<svg version="1.1" viewBox="0.0 0.0 960.0 480.0" fill="none" stroke="none" stroke-linecap="square" stroke-miterlimit="10" xmlns:xlink="http://www.w3.org/1999/xlink" xmlns="http://www.w3.org/2000/svg"><clipPath id="g2eda1780393_0_191.0"><path d="m0 0l960.0 0l0 480.0l-960.0 0l0 -480.0z" clip-rule="nonzero"/></clipPath><g clip-path="url(#g2eda1780393_0_191.0)"><path fill="#ffffff" d="m0 0l960.0 0l0 480.0l-960.0 0z" fill-rule="evenodd"/><path fill="#ff0454" d="m335.44882 79.70079l289.1024 0l0 320.59845l-289.1024 0z" fill-rule="evenodd"/><path stroke="#ff0454" stroke-width="1.0" stroke-linejoin="round" stroke-linecap="butt" d="m335.44882 79.70079l289.1024 0l0 320.59845l-289.1024 0z" fill-rule="evenodd"/><path fill="#ffffff" d="m516.9449 190.4176l0 0c0 -7.900284 6.40448 -14.304749 14.304749 -14.304749l58.22516 0l0 0c3.7938232 0 7.432312 1.5071106 10.11499 4.1897736c2.6826172 2.682663 4.1897583 6.321121 4.1897583 10.114975l0 57.217285c0 7.900284 -6.40448 14.304749 -14.304749 14.304749l-58.22516 0c-7.9002686 0 -14.304749 -6.4044647 -14.304749 -14.304749z" fill-rule="evenodd"/><path stroke="#ff0454" stroke-width="1.0" stroke-linejoin="round" stroke-linecap="butt" d="m516.9449 190.4176l0 0c0 -7.900284 6.40448 -14.304749 14.304749 -14.304749l58.22516 0l0 0c3.7938232 0 7.432312 1.5071106 10.11499 4.1897736c2.6826172 2.682663 4.1897583 6.321121 4.1897583 10.114975l0 57.217285c0 7.900284 -6.40448 14.304749 -14.304749 14.304749l-58.22516 0c-7.9002686 0 -14.304749 -6.4044647 -14.304749 -14.304749z" fill-rule="evenodd"/><path fill="#ffffff" d="m516.9449 290.6722l0 0c0 -7.900299 6.40448 -14.304749 14.304749 -14.304749l58.22516 0l0 0c3.7938232 0 7.432312 1.5070801 10.11499 4.1897583c2.6826172 2.6826477 4.1897583 6.3211365 4.1897583 10.11499l0 57.217255c0 7.900299 -6.40448 14.304749 -14.304749 14.304749l-58.22516 0c-7.9002686 0 -14.304749 -6.4044495 -14.304749 -14.304749z" fill-rule="evenodd"/><path stroke="#ff0454" stroke-width="1.0" stroke-linejoin="round" stroke-linecap="butt" d="m516.9449 290.6722l0 0c0 -7.900299 6.40448 -14.304749 14.304749 -14.304749l58.22516 0l0 0c3.7938232 0 7.432312 1.5070801 10.11499 4.1897583c2.6826172 2.6826477 4.1897583 6.3211365 4.1897583 10.11499l0 57.217255c0 7.900299 -6.40448 14.304749 -14.304749 14.304749l-58.22516 0c-7.9002686 0 -14.304749 -6.4044495 -14.304749 -14.304749z" fill-rule="evenodd"/><path fill="#ffffff" d="m356.18896 290.28638l0 0c0 -7.900299 6.40448 -14.304749 14.304749 -14.304749l58.22516 0l0 0c3.7938538 0 7.432312 1.5071106 10.11499 4.1897583c2.6826477 2.6826782 4.1897583 6.3211365 4.1897583 10.11499l0 57.217285c0 7.9002686 -6.4044495 14.304749 -14.304749 14.304749l-58.22516 0c-7.9002686 0 -14.304749 -6.40448 -14.304749 -14.304749z" fill-rule="evenodd"/><path stroke="#ff0454" stroke-width="1.0" stroke-linejoin="round" stroke-linecap="butt" d="m356.18896 290.28638l0 0c0 -7.900299 6.40448 -14.304749 14.304749 -14.304749l58.22516 0l0 0c3.7938538 0 7.432312 1.5071106 10.11499 4.1897583c2.6826477 2.6826782 4.1897583 6.3211365 4.1897583 10.11499l0 57.217285c0 7.9002686 -6.4044495 14.304749 -14.304749 14.304749l-58.22516 0c-7.9002686 0 -14.304749 -6.40448 -14.304749 -14.304749z" fill-rule="evenodd"/><path fill="#ffffff" d="m356.18896 192.56197l0 0c0 -7.900299 6.40448 -14.304749 14.304749 -14.304749l58.22516 0l0 0c3.7938538 0 7.432312 1.5071106 10.11499 4.1897583c2.6826477 2.682663 4.1897583 6.3211365 4.1897583 10.11499l0 57.21727c0 7.900299 -6.4044495 14.304749 -14.304749 14.304749l-58.22516 0c-7.9002686 0 -14.304749 -6.4044495 -14.304749 -14.304749z" fill-rule="evenodd"/><path stroke="#ff0454" stroke-width="1.0" stroke-linejoin="round" stroke-linecap="butt" d="m356.18896 192.56197l0 0c0 -7.900299 6.40448 -14.304749 14.304749 -14.304749l58.22516 0l0 0c3.7938538 0 7.432312 1.5071106 10.11499 4.1897583c2.6826477 2.682663 4.1897583 6.3211365 4.1897583 10.11499l0 57.21727c0 7.900299 -6.4044495 14.304749 -14.304749 14.304749l-58.22516 0c-7.9002686 0 -14.304749 -6.4044495 -14.304749 -14.304749z" fill-rule="evenodd"/><path fill="#ffffff" d="m459.6378 131.61154l10.268585 -17.795258l20.187256 0l10.268585 17.795258l-10.268585 17.795273l-20.187256 0z" fill-rule="evenodd"/><path stroke="#ff0454" stroke-width="1.0" stroke-linejoin="round" stroke-linecap="butt" d="m459.6378 131.61154l10.268585 -17.795258l20.187256 0l10.268585 17.795258l-10.268585 17.795273l-20.187256 0z" fill-rule="evenodd"/><path fill="#ffffff" d="m379.64304 213.7454l10.268585 -17.795273l20.187256 0l10.268585 17.795273l-10.268585 17.795273l-20.187256 0z" fill-rule="evenodd"/><path stroke="#ff0454" stroke-width="1.0" stroke-linejoin="round" stroke-linecap="butt" d="m379.64304 213.7454l10.268585 -17.795273l20.187256 0l10.268585 17.795273l-10.268585 17.795273l-20.187256 0z" fill-rule="evenodd"/><path fill="#ff0454" d="m390.66666 208.99738l14.007874 0l0 14.1653595l-14.007874 0z" fill-rule="evenodd"/><path fill="#cb0343" d="m404.67453 208.99738l4.6693115 -4.6692963l0 14.1653595l-4.6693115 4.6692963z" fill-rule="evenodd"/><path fill="#ff3676" d="m390.66666 208.99738l4.6693115 -4.6692963l14.007874 0l-4.6693115 4.6692963z" fill-rule="evenodd"/><path fill="#000000" fill-opacity="0.0" d="m390.66666 208.99738l4.6693115 -4.6692963l14.007874 0l0 14.1653595l-4.6693115 4.6692963l-14.007874 0zm0 0l14.007874 0l4.6693115 -4.6692963m-4.6693115 4.6692963l0 14.1653595" fill-rule="evenodd"/><path stroke="#ffffff" stroke-width="1.0" stroke-linejoin="round" stroke-linecap="butt" d="m390.66666 208.99738l4.6693115 -4.6692963l14.007874 0l0 14.1653595l-4.6693115 4.6692963l-14.007874 0zm0 0l14.007874 0l4.6693115 -4.6692963m-4.6693115 4.6692963l0 14.1653595" fill-rule="evenodd"/><path fill="#ffffff" d="m379.64304 312.51706l10.268585 -17.795258l20.187256 0l10.268585 17.795258l-10.268585 17.795258l-20.187256 0z" fill-rule="evenodd"/><path stroke="#ff0454" stroke-width="1.0" stroke-linejoin="round" stroke-linecap="butt" d="m379.64304 312.51706l10.268585 -17.795258l20.187256 0l10.268585 17.795258l-10.268585 17.795258l-20.187256 0z" fill-rule="evenodd"/><path fill="#ff0454" d="m390.66666 307.76904l14.007874 0l0 14.165344l-14.007874 0z" fill-rule="evenodd"/><path fill="#cb0343" d="m404.67453 307.76904l4.6693115 -4.6693115l0 14.165375l-4.6693115 4.669281z" fill-rule="evenodd"/><path fill="#ff3676" d="m390.66666 307.76904l4.6693115 -4.6693115l14.007874 0l-4.6693115 4.6693115z" fill-rule="evenodd"/><path fill="#000000" fill-opacity="0.0" d="m390.66666 307.76904l4.6693115 -4.6693115l14.007874 0l0 14.165375l-4.6693115 4.669281l-14.007874 0zm0 0l14.007874 0l4.6693115 -4.6693115m-4.6693115 4.6693115l0 14.165344" fill-rule="evenodd"/><path stroke="#ffffff" stroke-width="1.0" stroke-linejoin="round" stroke-linecap="butt" d="m390.66666 307.76904l4.6693115 -4.6693115l14.007874 0l0 14.165375l-4.6693115 4.669281l-14.007874 0zm0 0l14.007874 0l4.6693115 -4.6693115m-4.6693115 4.6693115l0 14.165344" fill-rule="evenodd"/><path fill="#ffffff" d="m540.0 213.7454l10.268616 -17.795273l20.187195 0l10.268616 17.795273l-10.268616 17.795273l-20.187195 0z" fill-rule="evenodd"/><path stroke="#ff0454" stroke-width="1.0" stroke-linejoin="round" stroke-linecap="butt" d="m540.0 213.7454l10.268616 -17.795273l20.187195 0l10.268616 17.795273l-10.268616 17.795273l-20.187195 0z" fill-rule="evenodd"/><path fill="#ff0454" d="m551.0236 208.99738l14.007874 0l0 14.1653595l-14.007874 0z" fill-rule="evenodd"/><path fill="#cb0343" d="m565.0315 208.99738l4.6693115 -4.6692963l0 14.1653595l-4.6693115 4.6692963z" fill-rule="evenodd"/><path fill="#ff3676" d="m551.0236 208.99738l4.6693115 -4.6692963l14.007874 0l-4.6693115 4.6692963z" fill-rule="evenodd"/><path fill="#000000" fill-opacity="0.0" d="m551.0236 208.99738l4.6693115 -4.6692963l14.007874 0l0 14.1653595l-4.6693115 4.6692963l-14.007874 0zm0 0l14.007874 0l4.6693115 -4.6692963m-4.6693115 4.6692963l0 14.1653595" fill-rule="evenodd"/><path stroke="#ffffff" stroke-width="1.0" stroke-linejoin="round" stroke-linecap="butt" d="m551.0236 208.99738l4.6693115 -4.6692963l14.007874 0l0 14.1653595l-4.6693115 4.6692963l-14.007874 0zm0 0l14.007874 0l4.6693115 -4.6692963m-4.6693115 4.6692963l0 14.1653595" fill-rule="evenodd"/><path fill="#ffffff" d="m540.0 312.51706l10.268616 -17.795258l20.187195 0l10.268616 17.795258l-10.268616 17.795258l-20.187195 0z" fill-rule="evenodd"/><path stroke="#ff0454" stroke-width="1.0" stroke-linejoin="round" stroke-linecap="butt" d="m540.0 312.51706l10.268616 -17.795258l20.187195 0l10.268616 17.795258l-10.268616 17.795258l-20.187195 0z" fill-rule="evenodd"/><path fill="#ff0454" d="m551.0236 307.76904l14.007874 0l0 14.165344l-14.007874 0z" fill-rule="evenodd"/><path fill="#cb0343" d="m565.0315 307.76904l4.6693115 -4.6693115l0 14.165375l-4.6693115 4.669281z" fill-rule="evenodd"/><path fill="#ff3676" d="m551.0236 307.76904l4.6693115 -4.6693115l14.007874 0l-4.6693115 4.6693115z" fill-rule="evenodd"/><path fill="#000000" fill-opacity="0.0" d="m551.0236 307.76904l4.6693115 -4.6693115l14.007874 0l0 14.165375l-4.6693115 4.669281l-14.007874 0zm0 0l14.007874 0l4.6693115 -4.6693115m-4.6693115 4.6693115l0 14.165344" fill-rule="evenodd"/><path stroke="#ffffff" stroke-width="1.0" stroke-linejoin="round" stroke-linecap="butt" d="m551.0236 307.76904l4.6693115 -4.6693115l14.007874 0l0 14.165375l-4.6693115 4.669281l-14.007874 0zm0 0l14.007874 0l4.6693115 -4.6693115m-4.6693115 4.6693115l0 14.165344" fill-rule="evenodd"/><path fill="#000000" fill-opacity="0.0" d="m509.1181 112.09974l102.48822 0l0 39.023613l-102.48822 0z" fill-rule="evenodd"/><path fill="#ffffff" d="m519.165 132.61974l0 -5.40625l-0.9375 0l0 -0.8125l0.9375 0l0 -0.671875q0 -0.625 0.109375 -0.921875q0.15625 -0.421875 0.53125 -0.671875q0.390625 -0.25 1.078125 -0.25q0.453125 0 0.984375 0.109375l-0.15625 0.90625q-0.328125 -0.046875 -0.625 -0.046875q-0.484375 0 -0.6875 0.203125q-0.1875 0.203125 -0.1875 0.765625l0 0.578125l1.21875 0l0 0.8125l-1.21875 0l0 5.40625l-1.046875 0zm3.0527344 0l0 -8.59375l1.0625 0l0 8.59375l-1.0625 0zm6.7753906 0l0 -0.921875q-0.734375 1.0625 -1.984375 1.0625q-0.546875 0 -1.03125 -0.203125q-0.46875 -0.21875 -0.703125 -0.53125q-0.234375 -0.328125 -0.328125 -0.796875q-0.0625 -0.296875 -0.0625 -0.984375l0 -3.84375l1.0625 0l0 3.453125q0 0.8125 0.0625 1.109375q0.09375 0.40625 0.40625 0.65625q0.328125 0.234375 0.8125 0.234375q0.46875 0 0.875 -0.234375q0.421875 -0.25 0.59375 -0.671875q0.1875 -0.421875 0.1875 -1.21875l0 -3.328125l1.046875 0l0 6.21875l-0.9375 0zm6.845703 -2.0l1.09375 0.125q-0.25 0.953125 -0.953125 1.484375q-0.703125 0.53125 -1.78125 0.53125q-1.359375 0 -2.171875 -0.84375q-0.796875 -0.84375 -0.796875 -2.359375q0 -1.5625 0.8125 -2.421875q0.8125 -0.875 2.09375 -0.875q1.25 0 2.03125 0.84375q0.796875 0.84375 0.796875 2.390625q0 0.09375 0 0.28125l-4.640625 0q0.0625 1.03125 0.578125 1.578125q0.515625 0.53125 1.296875 0.53125q0.578125 0 0.984375 -0.296875q0.421875 -0.3125 0.65625 -0.96875zm-3.453125 -1.703125l3.46875 0q-0.0625 -0.796875 -0.390625 -1.1875q-0.515625 -0.609375 -1.3125 -0.609375q-0.734375 0 -1.234375 0.484375q-0.484375 0.484375 -0.53125 1.3125zm5.876953 3.703125l0 -6.21875l0.9375 0l0 0.875q0.6875 -1.015625 1.984375 -1.015625q0.5625 0 1.03125 0.203125q0.484375 0.203125 0.71875 0.53125q0.234375 0.328125 0.328125 0.765625q0.046875 0.296875 0.046875 1.03125l0 3.828125l-1.046875 0l0 -3.78125q0 -0.65625 -0.125 -0.96875q-0.125 -0.3125 -0.4375 -0.5q-0.3125 -0.203125 -0.734375 -0.203125q-0.671875 0 -1.171875 0.4375q-0.484375 0.421875 -0.484375 1.609375l0 3.40625l-1.046875 0zm8.970703 -0.9375l0.15625 0.921875q-0.453125 0.09375 -0.796875 0.09375q-0.578125 0 -0.890625 -0.171875q-0.3125 -0.1875 -0.453125 -0.484375q-0.125 -0.296875 -0.125 -1.25l0 -3.578125l-0.765625 0l0 -0.8125l0.765625 0l0 -1.546875l1.046875 -0.625l0 2.171875l1.0625 0l0 0.8125l-1.0625 0l0 3.640625q0 0.453125 0.046875 0.578125q0.0625 0.125 0.1875 0.203125q0.125 0.078125 0.359375 0.078125q0.1875 0 0.46875 -0.03125zm5.0683594 0.9375l0 -0.78125q-0.59375 0.921875 -1.734375 0.921875q-0.75 0 -1.375 -0.40625q-0.625 -0.421875 -0.96875 -1.15625q-0.34375 -0.734375 -0.34375 -1.6875q0 -0.921875 0.3125 -1.6875q0.3125 -0.765625 0.9375 -1.15625q0.625 -0.40625 1.390625 -0.40625q0.5625 0 1.0 0.234375q0.4375 0.234375 0.71875 0.609375l0 -3.078125l1.046875 0l0 8.59375l-0.984375 0zm-3.328125 -3.109375q0 1.203125 0.5 1.796875q0.5 0.578125 1.1875 0.578125q0.6875 0 1.171875 -0.5625q0.484375 -0.5625 0.484375 -1.71875q0 -1.28125 -0.5 -1.875q-0.484375 -0.59375 -1.203125 -0.59375q-0.703125 0 -1.171875 0.578125q-0.46875 0.5625 -0.46875 1.796875z" fill-rule="nonzero"/><path fill="#000000" fill-opacity="0.0" d="m479.3281 149.33595c0 32.204727 -29.480316 64.409454 -58.960632 64.409454" fill-rule="evenodd"/><path stroke="#747bcb" stroke-width="1.0" stroke-linejoin="round" stroke-linecap="butt" d="m479.3281 149.33595c0 16.102371 -7.3700867 32.204727 -18.425201 44.281494c-5.5275574 6.038391 -11.976379 11.070389 -18.885834 14.592773c-3.454712 1.7612 -7.024597 3.144989 -10.652069 4.088501c-1.8137207 0.47174072 -3.6418457 0.8334198 -5.4772034 1.0771332c-0.4588318 0.060943604 -0.9180908 0.11450195 -1.3776855 0.1605835c-0.22982788 0.023025513 -0.45968628 0.044189453 -0.68969727 0.0634613l-0.028869629 0.0021972656" fill-rule="evenodd"/><path fill="#747bcb" stroke="#747bcb" stroke-width="1.0" stroke-linecap="butt" d="m423.79153 213.60208l1.0765686 -1.1706238l-3.040039 1.2528076l3.1340942 0.99438477z" fill-rule="evenodd"/><path fill="#000000" fill-opacity="0.0" d="m479.3386 149.33595c0 32.204727 30.330688 64.409454 60.661407 64.409454" fill-rule="evenodd"/><path stroke="#747bcb" stroke-width="1.0" stroke-linejoin="round" stroke-linecap="butt" d="m479.3386 149.33595c0 16.102371 7.582672 32.204727 18.956696 44.281494c5.686981 6.038391 12.321838 11.070389 19.430603 14.592773c3.5543823 1.7612 7.227234 3.144989 10.95929 4.088501c1.8660889 0.47174072 3.7469482 0.8334198 5.635254 1.0771332c0.47198486 0.060943604 0.9445801 0.11450195 1.4174194 0.1605835c0.2364502 0.023025513 0.47296143 0.044189453 0.7095947 0.0634613l0.12817383 0.009414673" fill-rule="evenodd"/><path fill="#747bcb" stroke="#747bcb" stroke-width="1.0" stroke-linecap="butt" d="m536.5756 213.60931l-1.168335 1.0790405l3.131958 -1.0010071l-3.0426636 -1.2463837z" fill-rule="evenodd"/><path fill="#000000" fill-opacity="0.0" d="m479.3281 149.7769c0 81.37009 -29.480316 162.74016 -58.960632 162.74016" fill-rule="evenodd"/><path stroke="#747bcb" stroke-width="1.0" stroke-linejoin="round" stroke-linecap="butt" d="m479.3281 149.7769c0 40.685043 -7.3700867 81.37009 -18.425201 111.883865c-5.5275574 15.256897 -11.976379 27.970947 -18.885834 36.87082c-3.454712 4.4499207 -7.024597 7.946289 -10.652069 10.33017c-1.8137207 1.1919556 -3.6418457 2.105774 -5.4772034 2.7216187c-0.4588318 0.15396118 -0.9180908 0.28927612 -1.3776855 0.40570068c-0.22982788 0.05819702 -0.45968628 0.11166382 -0.68969727 0.16033936l-0.044677734 0.009002686" fill-rule="evenodd"/><path fill="#747bcb" stroke="#747bcb" stroke-width="1.0" stroke-linecap="butt" d="m423.77573 312.15842l1.0007324 -1.236084l-2.9551392 1.441742l3.1904907 0.79507446z" fill-rule="evenodd"/><path fill="#000000" fill-opacity="0.0" d="m479.3386 151.54068c0 80.48819 30.330688 160.97638 60.661407 160.97638" fill-rule="evenodd"/><path stroke="#747bcb" stroke-width="1.0" stroke-linejoin="round" stroke-linecap="butt" d="m479.3386 151.54068c0 40.244095 7.582672 80.48819 18.956696 110.671265c5.686981 15.091522 12.321838 27.667816 19.430603 36.471222c3.5543823 4.4016724 7.227234 7.8601685 10.95929 10.218201c1.8660889 1.1790466 3.7469482 2.0829773 5.635254 2.6921082c0.47198486 0.15231323 0.9445801 0.28619385 1.4174194 0.40130615c0.2364502 0.057556152 0.47296143 0.11047363 0.7095947 0.15863037l0.14196777 0.027496338" fill-rule="evenodd"/><path fill="#747bcb" stroke="#747bcb" stroke-width="1.0" stroke-linecap="butt" d="m536.5894 312.1809l-1.2294312 1.0088501l3.1851807 -0.8161011l-2.9645996 -1.4222412z" fill-rule="evenodd"/><path fill="#000000" fill-opacity="0.0" d="m362.7454 231.54068l74.519714 0l0 26.64566l-74.519714 0z" fill-rule="evenodd"/><path fill="#747bcb" d="m382.17224 246.30069l0 -2.703125l-0.453125 0l0 -0.40625l0.453125 0l0 -0.328125q0 -0.3125 0.0625 -0.46875q0.078125 -0.203125 0.265625 -0.328125q0.1875 -0.140625 0.546875 -0.140625q0.21875 0 0.484375 0.0625l-0.078125 0.453125q-0.171875 -0.03125 -0.3125 -0.03125q-0.234375 0 -0.34375 0.109375q-0.09375 0.09375 -0.09375 0.375l0 0.296875l0.609375 0l0 0.40625l-0.609375 0l0 2.703125l-0.53125 0zm1.5419922 0l0 -4.296875l0.515625 0l0 4.296875l-0.515625 0zm3.3798828 0l0 -0.453125q-0.359375 0.53125 -0.984375 0.53125q-0.28125 0 -0.53125 -0.109375q-0.234375 -0.109375 -0.34375 -0.265625q-0.109375 -0.15625 -0.15625 -0.390625q-0.03125 -0.15625 -0.03125 -0.5l0 -1.921875l0.515625 0l0 1.71875q0 0.421875 0.03125 0.5625q0.0625 0.203125 0.21875 0.328125q0.15625 0.109375 0.390625 0.109375q0.25 0 0.453125 -0.109375q0.203125 -0.125 0.28125 -0.328125q0.09375 -0.21875 0.09375 -0.609375l0 -1.671875l0.53125 0l0 3.109375l-0.46875 0zm3.430664 -1.0l0.546875 0.0625q-0.140625 0.484375 -0.484375 0.75q-0.34375 0.265625 -0.890625 0.265625q-0.6875 0 -1.09375 -0.421875q-0.390625 -0.421875 -0.390625 -1.1875q0 -0.78125 0.40625 -1.21875q0.40625 -0.4375 1.046875 -0.4375q0.625 0 1.015625 0.4375q0.40625 0.421875 0.40625 1.1875q0 0.046875 -0.015625 0.140625l-2.3125 0q0.03125 0.515625 0.28125 0.796875q0.265625 0.265625 0.65625 0.265625q0.296875 0 0.5 -0.15625q0.203125 -0.15625 0.328125 -0.484375zm-1.734375 -0.859375l1.734375 0q-0.03125 -0.390625 -0.203125 -0.578125q-0.25 -0.3125 -0.65625 -0.3125q-0.359375 0 -0.609375 0.25q-0.234375 0.234375 -0.265625 0.640625zm2.930664 1.859375l0 -3.109375l0.484375 0l0 0.4375q0.34375 -0.515625 0.984375 -0.515625q0.28125 0 0.515625 0.109375q0.234375 0.09375 0.34375 0.265625q0.125 0.15625 0.171875 0.390625q0.03125 0.140625 0.03125 0.515625l0 1.90625l-0.53125 0l0 -1.890625q0 -0.328125 -0.0625 -0.484375q-0.046875 -0.15625 -0.21875 -0.25q-0.15625 -0.09375 -0.359375 -0.09375q-0.34375 0 -0.59375 0.21875q-0.234375 0.203125 -0.234375 0.796875l0 1.703125l-0.53125 0zm4.493164 -0.46875l0.078125 0.46875q-0.21875 0.046875 -0.40625 0.046875q-0.28125 0 -0.4375 -0.09375q-0.15625 -0.09375 -0.21875 -0.234375q-0.0625 -0.15625 -0.0625 -0.625l0 -1.796875l-0.390625 0l0 -0.40625l0.390625 0l0 -0.765625l0.515625 -0.328125l0 1.09375l0.53125 0l0 0.40625l-0.53125 0l0 1.828125q0 0.21875 0.03125 0.28125q0.03125 0.0625 0.09375 0.109375q0.0625 0.03125 0.171875 0.03125q0.09375 0 0.234375 -0.015625zm2.5419922 0.46875l0 -0.390625q-0.296875 0.46875 -0.875 0.46875q-0.375 0 -0.6875 -0.203125q-0.3125 -0.21875 -0.484375 -0.578125q-0.171875 -0.375 -0.171875 -0.84375q0 -0.46875 0.15625 -0.84375q0.15625 -0.390625 0.46875 -0.59375q0.3125 -0.203125 0.6875 -0.203125q0.28125 0 0.5 0.125q0.21875 0.125 0.359375 0.3125l0 -1.546875l0.53125 0l0 4.296875l-0.484375 0zm-1.671875 -1.546875q0 0.59375 0.25 0.890625q0.25 0.296875 0.59375 0.296875q0.34375 0 0.578125 -0.28125q0.25 -0.28125 0.25 -0.875q0 -0.625 -0.25 -0.921875q-0.234375 -0.3125 -0.59375 -0.3125q-0.359375 0 -0.59375 0.296875q-0.234375 0.28125 -0.234375 0.90625zm2.774414 0.25l0 -0.515625l1.625 0l0 0.515625l-1.625 0zm2.0605469 0.171875l0.546875 -0.046875q0.0625 0.40625 0.28125 0.609375q0.234375 0.203125 0.546875 0.203125q0.390625 0 0.640625 -0.28125q0.265625 -0.296875 0.265625 -0.765625q0 -0.453125 -0.25 -0.703125q-0.25 -0.265625 -0.65625 -0.265625q-0.265625 0 -0.46875 0.109375q-0.203125 0.109375 -0.3125 0.296875l-0.5 -0.0625l0.421875 -2.203125l2.125 0l0 0.5l-1.703125 0l-0.234375 1.15625q0.390625 -0.265625 0.8125 -0.265625q0.5625 0 0.9375 0.390625q0.390625 0.390625 0.390625 1.0q0 0.578125 -0.34375 1.0q-0.40625 0.53125 -1.125 0.53125q-0.578125 0 -0.953125 -0.328125q-0.375 -0.328125 -0.421875 -0.875zm3.336914 0l0.546875 -0.046875q0.0625 0.40625 0.28125 0.609375q0.234375 0.203125 0.546875 0.203125q0.390625 0 0.640625 -0.28125q0.265625 -0.296875 0.265625 -0.765625q0 -0.453125 -0.25 -0.703125q-0.25 -0.265625 -0.65625 -0.265625q-0.265625 0 -0.46875 0.109375q-0.203125 0.109375 -0.3125 0.296875l-0.5 -0.0625l0.421875 -2.203125l2.125 0l0 0.5l-1.703125 0l-0.234375 1.15625q0.390625 -0.265625 0.8125 -0.265625q0.5625 0 0.9375 0.390625q0.390625 0.390625 0.390625 1.0q0 0.578125 -0.34375 1.0q-0.40625 0.53125 -1.125 0.53125q-0.578125 0 -0.953125 -0.328125q-0.375 -0.328125 -0.421875 -0.875zm6.071289 -2.125l-0.515625 0.046875q-0.078125 -0.3125 -0.203125 -0.453125q-0.21875 -0.21875 -0.53125 -0.21875q-0.25 0 -0.4375 0.140625q-0.25 0.171875 -0.40625 0.53125q-0.140625 0.34375 -0.140625 0.984375q0.1875 -0.28125 0.453125 -0.421875q0.28125 -0.140625 0.59375 -0.140625q0.53125 0 0.890625 0.390625q0.375 0.375 0.375 1.0q0 0.40625 -0.171875 0.75q-0.171875 0.34375 -0.484375 0.53125q-0.296875 0.1875 -0.6875 0.1875q-0.65625 0 -1.078125 -0.484375q-0.421875 -0.484375 -0.421875 -1.609375q0 -1.234375 0.46875 -1.8125q0.40625 -0.484375 1.078125 -0.484375q0.515625 0 0.828125 0.28125q0.328125 0.28125 0.390625 0.78125zm-2.15625 1.859375q0 0.265625 0.109375 0.515625q0.125 0.25 0.328125 0.390625q0.21875 0.125 0.4375 0.125q0.34375 0 0.578125 -0.265625q0.234375 -0.28125 0.234375 -0.734375q0 -0.453125 -0.234375 -0.703125q-0.234375 -0.265625 -0.59375 -0.265625q-0.359375 0 -0.609375 0.265625q-0.25 0.25 -0.25 0.671875zm2.758789 0.265625l0.546875 -0.046875q0.0625 0.40625 0.28125 0.609375q0.234375 0.203125 0.546875 0.203125q0.390625 0 0.640625 -0.28125q0.265625 -0.296875 0.265625 -0.765625q0 -0.453125 -0.25 -0.703125q-0.25 -0.265625 -0.65625 -0.265625q-0.265625 0 -0.46875 0.109375q-0.203125 0.109375 -0.3125 0.296875l-0.5 -0.0625l0.421875 -2.203125l2.125 0l0 0.5l-1.703125 0l-0.234375 1.15625q0.390625 -0.265625 0.8125 -0.265625q0.5625 0 0.9375 0.390625q0.390625 0.390625 0.390625 1.0q0 0.578125 -0.34375 1.0q-0.40625 0.53125 -1.125 0.53125q-0.578125 0 -0.953125 -0.328125q-0.375 -0.328125 -0.421875 -0.875zm3.961914 1.125l-0.484375 0l0 -4.296875l0.53125 0l0 1.53125q0.328125 -0.421875 0.84375 -0.421875q0.296875 0 0.546875 0.125q0.265625 0.109375 0.421875 0.328125q0.171875 0.203125 0.265625 0.5q0.09375 0.296875 0.09375 0.625q0 0.8125 -0.40625 1.25q-0.390625 0.4375 -0.9375 0.4375q-0.546875 0 -0.875 -0.46875l0 0.390625zm0 -1.578125q0 0.5625 0.15625 0.8125q0.25 0.40625 0.671875 0.40625q0.34375 0 0.59375 -0.296875q0.25 -0.3125 0.25 -0.90625q0 -0.609375 -0.25 -0.890625q-0.234375 -0.296875 -0.578125 -0.296875q-0.34375 0 -0.59375 0.3125q-0.25 0.296875 -0.25 0.859375z" fill-rule="nonzero"/><path fill="#000000" fill-opacity="0.0" d="m362.7454 330.31235l74.519714 0l0 26.64566l-74.519714 0z" fill-rule="evenodd"/><path fill="#747bcb" d="m382.3407 345.07233l0 -2.703125l-0.453125 0l0 -0.40625l0.453125 0l0 -0.328125q0 -0.3125 0.0625 -0.46875q0.078125 -0.203125 0.265625 -0.328125q0.1875 -0.140625 0.546875 -0.140625q0.21875 0 0.484375 0.0625l-0.078125 0.453125q-0.171875 -0.03125 -0.3125 -0.03125q-0.234375 0 -0.34375 0.109375q-0.09375 0.09375 -0.09375 0.375l0 0.296875l0.609375 0l0 0.40625l-0.609375 0l0 2.703125l-0.53125 0zm1.5419922 0l0 -4.296875l0.515625 0l0 4.296875l-0.515625 0zm3.3798828 0l0 -0.453125q-0.359375 0.53125 -0.984375 0.53125q-0.28125 0 -0.53125 -0.109375q-0.234375 -0.109375 -0.34375 -0.265625q-0.109375 -0.15625 -0.15625 -0.390625q-0.03125 -0.15625 -0.03125 -0.5l0 -1.921875l0.515625 0l0 1.71875q0 0.421875 0.03125 0.5625q0.0625 0.203125 0.21875 0.328125q0.15625 0.109375 0.390625 0.109375q0.25 0 0.453125 -0.109375q0.203125 -0.125 0.28125 -0.328125q0.09375 -0.21875 0.09375 -0.609375l0 -1.671875l0.53125 0l0 3.109375l-0.46875 0zm3.430664 -1.0l0.546875 0.0625q-0.140625 0.484375 -0.484375 0.75q-0.34375 0.265625 -0.890625 0.265625q-0.6875 0 -1.09375 -0.421875q-0.390625 -0.421875 -0.390625 -1.1875q0 -0.78125 0.40625 -1.21875q0.40625 -0.4375 1.046875 -0.4375q0.625 0 1.015625 0.4375q0.40625 0.421875 0.40625 1.1875q0 0.046875 -0.015625 0.140625l-2.3125 0q0.03125 0.515625 0.28125 0.796875q0.265625 0.265625 0.65625 0.265625q0.296875 0 0.5 -0.15625q0.203125 -0.15625 0.328125 -0.484375zm-1.734375 -0.859375l1.734375 0q-0.03125 -0.390625 -0.203125 -0.578125q-0.25 -0.3125 -0.65625 -0.3125q-0.359375 0 -0.609375 0.25q-0.234375 0.234375 -0.265625 0.640625zm2.930664 1.859375l0 -3.109375l0.484375 0l0 0.4375q0.34375 -0.515625 0.984375 -0.515625q0.28125 0 0.515625 0.109375q0.234375 0.09375 0.34375 0.265625q0.125 0.15625 0.171875 0.390625q0.03125 0.140625 0.03125 0.515625l0 1.90625l-0.53125 0l0 -1.890625q0 -0.328125 -0.0625 -0.484375q-0.046875 -0.15625 -0.21875 -0.25q-0.15625 -0.09375 -0.359375 -0.09375q-0.34375 0 -0.59375 0.21875q-0.234375 0.203125 -0.234375 0.796875l0 1.703125l-0.53125 0zm4.493164 -0.46875l0.078125 0.46875q-0.21875 0.046875 -0.40625 0.046875q-0.28125 0 -0.4375 -0.09375q-0.15625 -0.09375 -0.21875 -0.234375q-0.0625 -0.15625 -0.0625 -0.625l0 -1.796875l-0.390625 0l0 -0.40625l0.390625 0l0 -0.765625l0.515625 -0.328125l0 1.09375l0.53125 0l0 0.40625l-0.53125 0l0 1.828125q0 0.21875 0.03125 0.28125q0.03125 0.0625 0.09375 0.109375q0.0625 0.03125 0.171875 0.03125q0.09375 0 0.234375 -0.015625zm2.5419922 0.46875l0 -0.390625q-0.296875 0.46875 -0.875 0.46875q-0.375 0 -0.6875 -0.203125q-0.3125 -0.21875 -0.484375 -0.578125q-0.171875 -0.375 -0.171875 -0.84375q0 -0.46875 0.15625 -0.84375q0.15625 -0.390625 0.46875 -0.59375q0.3125 -0.203125 0.6875 -0.203125q0.28125 0 0.5 0.125q0.21875 0.125 0.359375 0.3125l0 -1.546875l0.53125 0l0 4.296875l-0.484375 0zm-1.671875 -1.546875q0 0.59375 0.25 0.890625q0.25 0.296875 0.59375 0.296875q0.34375 0 0.578125 -0.28125q0.25 -0.28125 0.25 -0.875q0 -0.625 -0.25 -0.921875q-0.234375 -0.3125 -0.59375 -0.3125q-0.359375 0 -0.59375 0.296875q-0.234375 0.28125 -0.234375 0.90625zm2.774414 0.25l0 -0.515625l1.625 0l0 0.515625l-1.625 0zm2.2011719 1.296875l0 -3.109375l0.484375 0l0 0.4375q0.34375 -0.515625 0.984375 -0.515625q0.28125 0 0.515625 0.109375q0.234375 0.09375 0.34375 0.265625q0.125 0.15625 0.171875 0.390625q0.03125 0.140625 0.03125 0.515625l0 1.90625l-0.53125 0l0 -1.890625q0 -0.328125 -0.0625 -0.484375q-0.046875 -0.15625 -0.21875 -0.25q-0.15625 -0.09375 -0.359375 -0.09375q-0.34375 0 -0.59375 0.21875q-0.234375 0.203125 -0.234375 0.796875l0 1.703125l-0.53125 0zm5.477539 -1.0l0.546875 0.0625q-0.140625 0.484375 -0.484375 0.75q-0.34375 0.265625 -0.890625 0.265625q-0.6875 0 -1.09375 -0.421875q-0.390625 -0.421875 -0.390625 -1.1875q0 -0.78125 0.40625 -1.21875q0.40625 -0.4375 1.046875 -0.4375q0.625 0 1.015625 0.4375q0.40625 0.421875 0.40625 1.1875q0 0.046875 -0.015625 0.140625l-2.3125 0q0.03125 0.515625 0.28125 0.796875q0.265625 0.265625 0.65625 0.265625q0.296875 0 0.5 -0.15625q0.203125 -0.15625 0.328125 -0.484375zm-1.734375 -0.859375l1.734375 0q-0.03125 -0.390625 -0.203125 -0.578125q-0.25 -0.3125 -0.65625 -0.3125q-0.359375 0 -0.609375 0.25q-0.234375 0.234375 -0.265625 0.640625zm3.805664 1.859375l-1.1875 -3.109375l0.5625 0l0.65625 1.859375q0.109375 0.296875 0.203125 0.625q0.078125 -0.25 0.203125 -0.59375l0.6875 -1.890625l0.546875 0l-1.1875 3.109375l-0.484375 0zm4.71875 -3.25l-0.515625 0.046875q-0.078125 -0.3125 -0.203125 -0.453125q-0.21875 -0.21875 -0.53125 -0.21875q-0.25 0 -0.4375 0.140625q-0.25 0.171875 -0.40625 0.53125q-0.140625 0.34375 -0.140625 0.984375q0.1875 -0.28125 0.453125 -0.421875q0.28125 -0.140625 0.59375 -0.140625q0.53125 0 0.890625 0.390625q0.375 0.375 0.375 1.0q0 0.40625 -0.171875 0.75q-0.171875 0.34375 -0.484375 0.53125q-0.296875 0.1875 -0.6875 0.1875q-0.65625 0 -1.078125 -0.484375q-0.421875 -0.484375 -0.421875 -1.609375q0 -1.234375 0.46875 -1.8125q0.40625 -0.484375 1.078125 -0.484375q0.515625 0 0.828125 0.28125q0.328125 0.28125 0.390625 0.78125zm-2.15625 1.859375q0 0.265625 0.109375 0.515625q0.125 0.25 0.328125 0.390625q0.21875 0.125 0.4375 0.125q0.34375 0 0.578125 -0.265625q0.234375 -0.28125 0.234375 -0.734375q0 -0.453125 -0.234375 -0.703125q-0.234375 -0.265625 -0.59375 -0.265625q-0.359375 0 -0.609375 0.265625q-0.25 0.25 -0.25 0.671875zm2.758789 0.265625l0.546875 -0.046875q0.0625 0.40625 0.28125 0.609375q0.234375 0.203125 0.546875 0.203125q0.390625 0 0.640625 -0.28125q0.265625 -0.296875 0.265625 -0.765625q0 -0.453125 -0.25 -0.703125q-0.25 -0.265625 -0.65625 -0.265625q-0.265625 0 -0.46875 0.109375q-0.203125 0.109375 -0.3125 0.296875l-0.5 -0.0625l0.421875 -2.203125l2.125 0l0 0.5l-1.703125 0l-0.234375 1.15625q0.390625 -0.265625 0.8125 -0.265625q0.5625 0 0.9375 0.390625q0.390625 0.390625 0.390625 1.0q0 0.578125 -0.34375 1.0q-0.40625 0.53125 -1.125 0.53125q-0.578125 0 -0.953125 -0.328125q-0.375 -0.328125 -0.421875 -0.875z" fill-rule="nonzero"/><path fill="#000000" fill-opacity="0.0" d="m523.10236 330.31235l74.519714 0l0 26.64566l-74.519714 0z" fill-rule="evenodd"/><path fill="#747bcb" d="m543.1986 345.07233l0 -2.703125l-0.453125 0l0 -0.40625l0.453125 0l0 -0.328125q0 -0.3125 0.0625 -0.46875q0.078125 -0.203125 0.265625 -0.328125q0.1875 -0.140625 0.546875 -0.140625q0.21875 0 0.484375 0.0625l-0.078125 0.453125q-0.171875 -0.03125 -0.3125 -0.03125q-0.234375 0 -0.34375 0.109375q-0.09375 0.09375 -0.09375 0.375l0 0.296875l0.609375 0l0 0.40625l-0.609375 0l0 2.703125l-0.53125 0zm1.5419922 0l0 -4.296875l0.515625 0l0 4.296875l-0.515625 0zm3.3798828 0l0 -0.453125q-0.359375 0.53125 -0.984375 0.53125q-0.28125 0 -0.53125 -0.109375q-0.234375 -0.109375 -0.34375 -0.265625q-0.109375 -0.15625 -0.15625 -0.390625q-0.03125 -0.15625 -0.03125 -0.5l0 -1.921875l0.515625 0l0 1.71875q0 0.421875 0.03125 0.5625q0.0625 0.203125 0.21875 0.328125q0.15625 0.109375 0.390625 0.109375q0.25 0 0.453125 -0.109375q0.203125 -0.125 0.28125 -0.328125q0.09375 -0.21875 0.09375 -0.609375l0 -1.671875l0.53125 0l0 3.109375l-0.46875 0zm3.430664 -1.0l0.546875 0.0625q-0.140625 0.484375 -0.484375 0.75q-0.34375 0.265625 -0.890625 0.265625q-0.6875 0 -1.09375 -0.421875q-0.390625 -0.421875 -0.390625 -1.1875q0 -0.78125 0.40625 -1.21875q0.40625 -0.4375 1.046875 -0.4375q0.625 0 1.015625 0.4375q0.40625 0.421875 0.40625 1.1875q0 0.046875 -0.015625 0.140625l-2.3125 0q0.03125 0.515625 0.28125 0.796875q0.265625 0.265625 0.65625 0.265625q0.296875 0 0.5 -0.15625q0.203125 -0.15625 0.328125 -0.484375zm-1.734375 -0.859375l1.734375 0q-0.03125 -0.390625 -0.203125 -0.578125q-0.25 -0.3125 -0.65625 -0.3125q-0.359375 0 -0.609375 0.25q-0.234375 0.234375 -0.265625 0.640625zm2.930664 1.859375l0 -3.109375l0.484375 0l0 0.4375q0.34375 -0.515625 0.984375 -0.515625q0.28125 0 0.515625 0.109375q0.234375 0.09375 0.34375 0.265625q0.125 0.15625 0.171875 0.390625q0.03125 0.140625 0.03125 0.515625l0 1.90625l-0.53125 0l0 -1.890625q0 -0.328125 -0.0625 -0.484375q-0.046875 -0.15625 -0.21875 -0.25q-0.15625 -0.09375 -0.359375 -0.09375q-0.34375 0 -0.59375 0.21875q-0.234375 0.203125 -0.234375 0.796875l0 1.703125l-0.53125 0zm4.493164 -0.46875l0.078125 0.46875q-0.21875 0.046875 -0.40625 0.046875q-0.28125 0 -0.4375 -0.09375q-0.15625 -0.09375 -0.21875 -0.234375q-0.0625 -0.15625 -0.0625 -0.625l0 -1.796875l-0.390625 0l0 -0.40625l0.390625 0l0 -0.765625l0.515625 -0.328125l0 1.09375l0.53125 0l0 0.40625l-0.53125 0l0 1.828125q0 0.21875 0.03125 0.28125q0.03125 0.0625 0.09375 0.109375q0.0625 0.03125 0.171875 0.03125q0.09375 0 0.234375 -0.015625zm2.5419922 0.46875l0 -0.390625q-0.296875 0.46875 -0.875 0.46875q-0.375 0 -0.6875 -0.203125q-0.3125 -0.21875 -0.484375 -0.578125q-0.171875 -0.375 -0.171875 -0.84375q0 -0.46875 0.15625 -0.84375q0.15625 -0.390625 0.46875 -0.59375q0.3125 -0.203125 0.6875 -0.203125q0.28125 0 0.5 0.125q0.21875 0.125 0.359375 0.3125l0 -1.546875l0.53125 0l0 4.296875l-0.484375 0zm-1.671875 -1.546875q0 0.59375 0.25 0.890625q0.25 0.296875 0.59375 0.296875q0.34375 0 0.578125 -0.28125q0.25 -0.28125 0.25 -0.875q0 -0.625 -0.25 -0.921875q-0.234375 -0.3125 -0.59375 -0.3125q-0.359375 0 -0.59375 0.296875q-0.234375 0.28125 -0.234375 0.90625zm2.774414 0.25l0 -0.515625l1.625 0l0 0.515625l-1.625 0zm2.1074219 1.5625l0.515625 0.0625q0.03125 0.25 0.171875 0.359375q0.203125 0.140625 0.546875 0.140625q0.359375 0 0.5625 -0.15625q0.203125 -0.140625 0.265625 -0.40625q0.046875 -0.15625 0.046875 -0.671875q-0.359375 0.40625 -0.875 0.40625q-0.640625 0 -1.0 -0.453125q-0.34375 -0.46875 -0.34375 -1.125q0 -0.4375 0.15625 -0.8125q0.171875 -0.375 0.46875 -0.578125q0.3125 -0.21875 0.734375 -0.21875q0.546875 0 0.90625 0.453125l0 -0.375l0.484375 0l0 2.6875q0 0.734375 -0.15625 1.03125q-0.140625 0.296875 -0.46875 0.46875q-0.3125 0.1875 -0.78125 0.1875q-0.5625 0 -0.90625 -0.25q-0.34375 -0.25 -0.328125 -0.75zm0.4375 -1.875q0 0.609375 0.234375 0.890625q0.25 0.28125 0.625 0.28125q0.359375 0 0.59375 -0.28125q0.25 -0.28125 0.25 -0.875q0 -0.578125 -0.25 -0.859375q-0.25 -0.296875 -0.609375 -0.296875q-0.34375 0 -0.59375 0.296875q-0.25 0.28125 -0.25 0.84375zm5.133789 0.609375l0.546875 0.0625q-0.140625 0.484375 -0.484375 0.75q-0.34375 0.265625 -0.890625 0.265625q-0.6875 0 -1.09375 -0.421875q-0.390625 -0.421875 -0.390625 -1.1875q0 -0.78125 0.40625 -1.21875q0.40625 -0.4375 1.046875 -0.4375q0.625 0 1.015625 0.4375q0.40625 0.421875 0.40625 1.1875q0 0.046875 -0.015625 0.140625l-2.3125 0q0.03125 0.515625 0.28125 0.796875q0.265625 0.265625 0.65625 0.265625q0.296875 0 0.5 -0.15625q0.203125 -0.15625 0.328125 -0.484375zm-1.734375 -0.859375l1.734375 0q-0.03125 -0.390625 -0.203125 -0.578125q-0.25 -0.3125 -0.65625 -0.3125q-0.359375 0 -0.609375 0.25q-0.234375 0.234375 -0.265625 0.640625zm2.930664 1.859375l0 -3.109375l0.46875 0l0 0.46875q0.1875 -0.328125 0.34375 -0.4375q0.15625 -0.109375 0.328125 -0.109375q0.28125 0 0.546875 0.171875l-0.171875 0.5q-0.203125 -0.125 -0.390625 -0.125q-0.171875 0 -0.3125 0.109375q-0.140625 0.109375 -0.203125 0.28125q-0.078125 0.28125 -0.078125 0.625l0 1.625l-0.53125 0zm1.9355469 -1.0l0.5 -0.046875q0.078125 0.359375 0.25 0.53125q0.1875 0.15625 0.46875 0.15625q0.25 0 0.421875 -0.109375q0.1875 -0.109375 0.296875 -0.296875q0.125 -0.1875 0.203125 -0.5q0.078125 -0.328125 0.078125 -0.65625q0 -0.03125 0 -0.09375q-0.15625 0.25 -0.4375 0.40625q-0.265625 0.15625 -0.59375 0.15625q-0.53125 0 -0.90625 -0.390625q-0.359375 -0.390625 -0.359375 -1.015625q0 -0.65625 0.375 -1.046875q0.390625 -0.40625 0.96875 -0.40625q0.421875 0 0.765625 0.234375q0.359375 0.21875 0.53125 0.640625q0.1875 0.40625 0.1875 1.203125q0 0.828125 -0.1875 1.3125q-0.171875 0.484375 -0.53125 0.75q-0.34375 0.25 -0.828125 0.25q-0.5 0 -0.828125 -0.28125q-0.3125 -0.28125 -0.375 -0.796875zm2.15625 -1.890625q0 -0.453125 -0.25 -0.71875q-0.234375 -0.265625 -0.5625 -0.265625q-0.359375 0 -0.625 0.296875q-0.25 0.28125 -0.25 0.734375q0 0.40625 0.234375 0.671875q0.25 0.25 0.625 0.25q0.359375 0 0.59375 -0.25q0.234375 -0.265625 0.234375 -0.71875zm1.9150391 0.5625q-0.328125 -0.125 -0.484375 -0.34375q-0.15625 -0.21875 -0.15625 -0.53125q0 -0.46875 0.328125 -0.78125q0.34375 -0.328125 0.90625 -0.328125q0.5625 0 0.890625 0.328125q0.34375 0.328125 0.34375 0.796875q0 0.296875 -0.15625 0.515625q-0.15625 0.21875 -0.46875 0.34375q0.390625 0.125 0.59375 0.421875q0.21875 0.28125 0.21875 0.671875q0 0.5625 -0.390625 0.9375q-0.390625 0.375 -1.03125 0.375q-0.640625 0 -1.03125 -0.375q-0.375 -0.390625 -0.375 -0.953125q0 -0.40625 0.203125 -0.6875q0.21875 -0.296875 0.609375 -0.390625zm-0.109375 -0.890625q0 0.296875 0.1875 0.5q0.203125 0.1875 0.515625 0.1875q0.3125 0 0.5 -0.1875q0.203125 -0.203125 0.203125 -0.46875q0 -0.296875 -0.203125 -0.484375q-0.203125 -0.203125 -0.5 -0.203125q-0.296875 0 -0.5 0.1875q-0.203125 0.1875 -0.203125 0.46875zm-0.171875 1.984375q0 0.21875 0.109375 0.4375q0.109375 0.203125 0.3125 0.328125q0.21875 0.109375 0.46875 0.109375q0.375 0 0.609375 -0.234375q0.25 -0.25 0.25 -0.625q0 -0.390625 -0.25 -0.625q-0.25 -0.25 -0.640625 -0.25q-0.359375 0 -0.609375 0.25q-0.25 0.234375 -0.25 0.609375z" fill-rule="nonzero"/><path fill="#000000" fill-opacity="0.0" d="m523.10236 231.54068l74.519714 0l0 26.64566l-74.519714 0z" fill-rule="evenodd"/><path fill="#747bcb" d="m544.3661 246.30069l0 -2.703125l-0.453125 0l0 -0.40625l0.453125 0l0 -0.328125q0 -0.3125 0.0625 -0.46875q0.078125 -0.203125 0.265625 -0.328125q0.1875 -0.140625 0.546875 -0.140625q0.21875 0 0.484375 0.0625l-0.078125 0.453125q-0.171875 -0.03125 -0.3125 -0.03125q-0.234375 0 -0.34375 0.109375q-0.09375 0.09375 -0.09375 0.375l0 0.296875l0.609375 0l0 0.40625l-0.609375 0l0 2.703125l-0.53125 0zm1.5419922 0l0 -4.296875l0.515625 0l0 4.296875l-0.515625 0zm3.3798828 0l0 -0.453125q-0.359375 0.53125 -0.984375 0.53125q-0.28125 0 -0.53125 -0.109375q-0.234375 -0.109375 -0.34375 -0.265625q-0.109375 -0.15625 -0.15625 -0.390625q-0.03125 -0.15625 -0.03125 -0.5l0 -1.921875l0.515625 0l0 1.71875q0 0.421875 0.03125 0.5625q0.0625 0.203125 0.21875 0.328125q0.15625 0.109375 0.390625 0.109375q0.25 0 0.453125 -0.109375q0.203125 -0.125 0.28125 -0.328125q0.09375 -0.21875 0.09375 -0.609375l0 -1.671875l0.53125 0l0 3.109375l-0.46875 0zm3.430664 -1.0l0.546875 0.0625q-0.140625 0.484375 -0.484375 0.75q-0.34375 0.265625 -0.890625 0.265625q-0.6875 0 -1.09375 -0.421875q-0.390625 -0.421875 -0.390625 -1.1875q0 -0.78125 0.40625 -1.21875q0.40625 -0.4375 1.046875 -0.4375q0.625 0 1.015625 0.4375q0.40625 0.421875 0.40625 1.1875q0 0.046875 -0.015625 0.140625l-2.3125 0q0.03125 0.515625 0.28125 0.796875q0.265625 0.265625 0.65625 0.265625q0.296875 0 0.5 -0.15625q0.203125 -0.15625 0.328125 -0.484375zm-1.734375 -0.859375l1.734375 0q-0.03125 -0.390625 -0.203125 -0.578125q-0.25 -0.3125 -0.65625 -0.3125q-0.359375 0 -0.609375 0.25q-0.234375 0.234375 -0.265625 0.640625zm2.930664 1.859375l0 -3.109375l0.484375 0l0 0.4375q0.34375 -0.515625 0.984375 -0.515625q0.28125 0 0.515625 0.109375q0.234375 0.09375 0.34375 0.265625q0.125 0.15625 0.171875 0.390625q0.03125 0.140625 0.03125 0.515625l0 1.90625l-0.53125 0l0 -1.890625q0 -0.328125 -0.0625 -0.484375q-0.046875 -0.15625 -0.21875 -0.25q-0.15625 -0.09375 -0.359375 -0.09375q-0.34375 0 -0.59375 0.21875q-0.234375 0.203125 -0.234375 0.796875l0 1.703125l-0.53125 0zm4.493164 -0.46875l0.078125 0.46875q-0.21875 0.046875 -0.40625 0.046875q-0.28125 0 -0.4375 -0.09375q-0.15625 -0.09375 -0.21875 -0.234375q-0.0625 -0.15625 -0.0625 -0.625l0 -1.796875l-0.390625 0l0 -0.40625l0.390625 0l0 -0.765625l0.515625 -0.328125l0 1.09375l0.53125 0l0 0.40625l-0.53125 0l0 1.828125q0 0.21875 0.03125 0.28125q0.03125 0.0625 0.09375 0.109375q0.0625 0.03125 0.171875 0.03125q0.09375 0 0.234375 -0.015625zm2.5419922 0.46875l0 -0.390625q-0.296875 0.46875 -0.875 0.46875q-0.375 0 -0.6875 -0.203125q-0.3125 -0.21875 -0.484375 -0.578125q-0.171875 -0.375 -0.171875 -0.84375q0 -0.46875 0.15625 -0.84375q0.15625 -0.390625 0.46875 -0.59375q0.3125 -0.203125 0.6875 -0.203125q0.28125 0 0.5 0.125q0.21875 0.125 0.359375 0.3125l0 -1.546875l0.53125 0l0 4.296875l-0.484375 0zm-1.671875 -1.546875q0 0.59375 0.25 0.890625q0.25 0.296875 0.59375 0.296875q0.34375 0 0.578125 -0.28125q0.25 -0.28125 0.25 -0.875q0 -0.625 -0.25 -0.921875q-0.234375 -0.3125 -0.59375 -0.3125q-0.359375 0 -0.59375 0.296875q-0.234375 0.28125 -0.234375 0.90625zm2.774414 0.25l0 -0.515625l1.625 0l0 0.515625l-1.625 0zm2.3261719 1.296875l0 -2.703125l-0.453125 0l0 -0.40625l0.453125 0l0 -0.328125q0 -0.3125 0.0625 -0.46875q0.078125 -0.203125 0.265625 -0.328125q0.1875 -0.140625 0.546875 -0.140625q0.21875 0 0.484375 0.0625l-0.078125 0.453125q-0.171875 -0.03125 -0.3125 -0.03125q-0.234375 0 -0.34375 0.109375q-0.09375 0.09375 -0.09375 0.375l0 0.296875l0.609375 0l0 0.40625l-0.609375 0l0 2.703125l-0.53125 0zm1.5419922 0l0 -4.296875l0.515625 0l0 4.296875l-0.515625 0zm1.1455078 -1.5625q0 -0.859375 0.484375 -1.28125q0.390625 -0.34375 0.96875 -0.34375q0.640625 0 1.046875 0.421875q0.40625 0.421875 0.40625 1.171875q0 0.59375 -0.1875 0.9375q-0.171875 0.34375 -0.515625 0.546875q-0.34375 0.1875 -0.75 0.1875q-0.65625 0 -1.0625 -0.421875q-0.390625 -0.421875 -0.390625 -1.21875zm0.53125 0q0 0.609375 0.265625 0.90625q0.265625 0.296875 0.65625 0.296875q0.390625 0 0.65625 -0.296875q0.265625 -0.3125 0.265625 -0.921875q0 -0.578125 -0.265625 -0.875q-0.265625 -0.296875 -0.65625 -0.296875q-0.390625 0 -0.65625 0.296875q-0.265625 0.296875 -0.265625 0.890625zm2.852539 -0.5625q0 -0.75 0.15625 -1.21875q0.15625 -0.46875 0.46875 -0.71875q0.3125 -0.25 0.78125 -0.25q0.34375 0 0.59375 0.140625q0.265625 0.140625 0.4375 0.40625q0.171875 0.25 0.265625 0.640625q0.09375 0.375 0.09375 1.0q0 0.765625 -0.15625 1.234375q-0.15625 0.453125 -0.46875 0.71875q-0.296875 0.25 -0.765625 0.25q-0.625 0 -0.984375 -0.453125q-0.421875 -0.53125 -0.421875 -1.75zm0.546875 0q0 1.0625 0.234375 1.421875q0.25 0.34375 0.625 0.34375q0.359375 0 0.609375 -0.34375q0.25 -0.359375 0.25 -1.421875q0 -1.046875 -0.25 -1.390625q-0.25 -0.359375 -0.625 -0.359375q-0.359375 0 -0.578125 0.3125q-0.265625 0.390625 -0.265625 1.4375zm2.790039 0.984375l0.53125 -0.0625q0.09375 0.453125 0.3125 0.65625q0.21875 0.1875 0.53125 0.1875q0.375 0 0.625 -0.25q0.25 -0.265625 0.25 -0.640625q0 -0.375 -0.234375 -0.609375q-0.234375 -0.234375 -0.59375 -0.234375q-0.15625 0 -0.375 0.0625l0.046875 -0.46875q0.0625 0.015625 0.09375 0.015625q0.328125 0 0.59375 -0.171875q0.28125 -0.1875 0.28125 -0.546875q0 -0.296875 -0.203125 -0.484375q-0.1875 -0.1875 -0.5 -0.1875q-0.3125 0 -0.515625 0.1875q-0.203125 0.1875 -0.265625 0.578125l-0.515625 -0.09375q0.09375 -0.53125 0.4375 -0.8125q0.34375 -0.296875 0.84375 -0.296875q0.359375 0 0.65625 0.15625q0.296875 0.140625 0.453125 0.40625q0.15625 0.265625 0.15625 0.546875q0 0.28125 -0.15625 0.515625q-0.140625 0.21875 -0.4375 0.359375q0.375 0.09375 0.578125 0.375q0.21875 0.265625 0.21875 0.6875q0 0.5625 -0.40625 0.953125q-0.40625 0.390625 -1.03125 0.390625q-0.578125 0 -0.953125 -0.328125q-0.359375 -0.34375 -0.421875 -0.890625z" fill-rule="nonzero"/><path fill="#000000" fill-opacity="0.0" d="m418.8189 79.70079l122.36218 0l0 35.590546l-122.36218 0z" fill-rule="evenodd"/><path fill="#ffc404" d="m446.95276 101.500786l0 -9.546875l3.28125 0q1.109375 0 1.703125 0.140625q0.8125 0.1875 1.390625 0.6875q0.765625 0.640625 1.140625 1.640625q0.375 0.984375 0.375 2.25q0 1.09375 -0.265625 1.9375q-0.25 0.828125 -0.65625 1.390625q-0.390625 0.546875 -0.859375 0.859375q-0.46875 0.3125 -1.140625 0.484375q-0.65625 0.15625 -1.53125 0.15625l-3.4375 0zm1.265625 -1.125l2.03125 0q0.9375 0 1.46875 -0.171875q0.546875 -0.1875 0.875 -0.5q0.4375 -0.453125 0.6875 -1.203125q0.25 -0.765625 0.25 -1.84375q0 -1.5 -0.5 -2.296875q-0.484375 -0.8125 -1.1875 -1.078125q-0.5 -0.203125 -1.625 -0.203125l-2.0 0l0 7.296875zm12.718903 0.265625q-0.65625 0.5625 -1.265625 0.796875q-0.59375 0.21875 -1.28125 0.21875q-1.140625 0 -1.75 -0.546875q-0.609375 -0.5625 -0.609375 -1.4375q0 -0.5 0.21875 -0.921875q0.234375 -0.421875 0.609375 -0.671875q0.375 -0.25 0.84375 -0.390625q0.34375 -0.078125 1.046875 -0.171875q1.421875 -0.171875 2.09375 -0.40625q0 -0.234375 0 -0.296875q0 -0.71875 -0.328125 -1.015625q-0.453125 -0.390625 -1.34375 -0.390625q-0.8125 0 -1.21875 0.296875q-0.390625 0.28125 -0.578125 1.015625l-1.140625 -0.15625q0.15625 -0.734375 0.515625 -1.1875q0.359375 -0.453125 1.03125 -0.6875q0.671875 -0.25 1.5625 -0.25q0.890625 0 1.4375 0.203125q0.5625 0.203125 0.8125 0.53125q0.265625 0.3125 0.375 0.796875q0.046875 0.296875 0.046875 1.078125l0 1.5625q0 1.625 0.078125 2.0625q0.078125 0.4375 0.296875 0.828125l-1.21875 0q-0.1875 -0.359375 -0.234375 -0.859375zm-0.09375 -2.609375q-0.640625 0.265625 -1.921875 0.4375q-0.71875 0.109375 -1.015625 0.25q-0.296875 0.125 -0.46875 0.375q-0.15625 0.25 -0.15625 0.546875q0 0.46875 0.34375 0.78125q0.359375 0.3125 1.046875 0.3125q0.671875 0 1.203125 -0.296875q0.53125 -0.296875 0.78125 -0.8125q0.1875 -0.390625 0.1875 -1.171875l0 -0.421875zm7.7249756 1.25l1.203125 0.140625q-0.28125 1.0625 -1.0625 1.65625q-0.765625 0.578125 -1.96875 0.578125q-1.515625 0 -2.40625 -0.9375q-0.890625 -0.9375 -0.890625 -2.609375q0 -1.75 0.890625 -2.703125q0.90625 -0.96875 2.34375 -0.96875q1.390625 0 2.265625 0.9375q0.875 0.9375 0.875 2.65625q0 0.109375 0 0.3125l-5.15625 0q0.0625 1.140625 0.640625 1.75q0.578125 0.59375 1.4375 0.59375q0.65625 0 1.109375 -0.328125q0.453125 -0.34375 0.71875 -1.078125zm-3.84375 -1.90625l3.859375 0q-0.078125 -0.859375 -0.4375 -1.296875q-0.5625 -0.6875 -1.453125 -0.6875q-0.8125 0 -1.359375 0.546875q-0.546875 0.53125 -0.609375 1.4375zm6.5218506 4.125l0 -6.90625l1.046875 0l0 0.96875q0.328125 -0.515625 0.859375 -0.8125q0.546875 -0.3125 1.234375 -0.3125q0.78125 0 1.265625 0.3125q0.484375 0.3125 0.6875 0.890625q0.828125 -1.203125 2.140625 -1.203125q1.03125 0 1.578125 0.578125q0.5625 0.5625 0.5625 1.734375l0 4.75l-1.171875 0l0 -4.359375q0 -0.703125 -0.125 -1.0q-0.109375 -0.3125 -0.40625 -0.5q-0.296875 -0.1875 -0.703125 -0.1875q-0.71875 0 -1.203125 0.484375q-0.484375 0.484375 -0.484375 1.546875l0 4.015625l-1.171875 0l0 -4.484375q0 -0.78125 -0.296875 -1.171875q-0.28125 -0.390625 -0.921875 -0.390625q-0.5 0 -0.921875 0.265625q-0.421875 0.25 -0.609375 0.75q-0.1875 0.5 -0.1875 1.453125l0 3.578125l-1.171875 0zm10.664917 -3.453125q0 -1.921875 1.078125 -2.84375q0.890625 -0.765625 2.171875 -0.765625q1.421875 0 2.328125 0.9375q0.90625 0.921875 0.90625 2.578125q0 1.328125 -0.40625 2.09375q-0.390625 0.765625 -1.15625 1.1875q-0.765625 0.421875 -1.671875 0.421875q-1.453125 0 -2.359375 -0.921875q-0.890625 -0.9375 -0.890625 -2.6875zm1.203125 0q0 1.328125 0.578125 1.984375q0.59375 0.65625 1.46875 0.65625q0.875 0 1.453125 -0.65625q0.578125 -0.671875 0.578125 -2.03125q0 -1.28125 -0.59375 -1.9375q-0.578125 -0.65625 -1.4375 -0.65625q-0.875 0 -1.46875 0.65625q-0.578125 0.65625 -0.578125 1.984375zm6.6468506 3.453125l0 -6.90625l1.0625 0l0 0.984375q0.75 -1.140625 2.1875 -1.140625q0.625 0 1.15625 0.21875q0.53125 0.21875 0.78125 0.59375q0.265625 0.359375 0.375 0.859375q0.0625 0.328125 0.0625 1.140625l0 4.25l-1.171875 0l0 -4.203125q0 -0.71875 -0.140625 -1.0625q-0.140625 -0.359375 -0.484375 -0.5625q-0.34375 -0.21875 -0.8125 -0.21875q-0.75 0 -1.296875 0.46875q-0.546875 0.46875 -0.546875 1.796875l0 3.78125l-1.171875 0zm6.9437256 -2.0625l1.15625 -0.1875q0.109375 0.703125 0.546875 1.078125q0.453125 0.359375 1.25 0.359375q0.8125 0 1.203125 -0.328125q0.390625 -0.328125 0.390625 -0.765625q0 -0.390625 -0.359375 -0.625q-0.234375 -0.15625 -1.1875 -0.390625q-1.296875 -0.328125 -1.796875 -0.5625q-0.484375 -0.25 -0.75 -0.65625q-0.25 -0.421875 -0.25 -0.9375q0 -0.453125 0.203125 -0.84375q0.21875 -0.40625 0.578125 -0.671875q0.28125 -0.1875 0.75 -0.328125q0.46875 -0.140625 1.015625 -0.140625q0.8125 0 1.421875 0.234375q0.609375 0.234375 0.90625 0.640625q0.296875 0.390625 0.40625 1.0625l-1.140625 0.15625q-0.078125 -0.53125 -0.453125 -0.828125q-0.375 -0.3125 -1.0625 -0.3125q-0.8125 0 -1.15625 0.265625q-0.34375 0.265625 -0.34375 0.625q0 0.234375 0.140625 0.421875q0.15625 0.1875 0.453125 0.3125q0.171875 0.0625 1.03125 0.296875q1.25 0.328125 1.734375 0.546875q0.5 0.203125 0.78125 0.609375q0.28125 0.40625 0.28125 1.0q0 0.59375 -0.34375 1.109375q-0.34375 0.515625 -1.0 0.796875q-0.640625 0.28125 -1.453125 0.28125q-1.34375 0 -2.046875 -0.5625q-0.703125 -0.5625 -0.90625 -1.65625zm11.8671875 -0.15625l1.203125 0.140625q-0.28125 1.0625 -1.0625 1.65625q-0.765625 0.578125 -1.96875 0.578125q-1.515625 0 -2.40625 -0.9375q-0.890625 -0.9375 -0.890625 -2.609375q0 -1.75 0.890625 -2.703125q0.90625 -0.96875 2.34375 -0.96875q1.390625 0 2.265625 0.9375q0.875 0.9375 0.875 2.65625q0 0.109375 0 0.3125l-5.15625 0q0.0625 1.140625 0.640625 1.75q0.578125 0.59375 1.4375 0.59375q0.65625 0 1.109375 -0.328125q0.453125 -0.34375 0.71875 -1.078125zm-3.84375 -1.90625l3.859375 0q-0.078125 -0.859375 -0.4375 -1.296875q-0.5625 -0.6875 -1.453125 -0.6875q-0.8125 0 -1.359375 0.546875q-0.546875 0.53125 -0.609375 1.4375zm9.084381 3.078125l0.171875 1.03125q-0.5 0.109375 -0.890625 0.109375q-0.640625 0 -1.0 -0.203125q-0.34378052 -0.203125 -0.48440552 -0.53125q-0.140625 -0.328125 -0.140625 -1.390625l0 -3.96875l-0.859375 0l0 -0.90625l0.859375 0l0 -1.71875l1.1719055 -0.703125l0 2.421875l1.171875 0l0 0.90625l-1.171875 0l0 4.046875q0 0.5 0.046875 0.640625q0.0625 0.140625 0.203125 0.234375q0.140625 0.078125 0.40625 0.078125q0.203125 0 0.515625 -0.046875z" fill-rule="nonzero"/><path fill="#000000" fill-opacity="0.0" d="m362.7454 169.97113l74.519714 0l0 31.496063l-74.519714 0z" fill-rule="evenodd"/><path fill="#ff0454" d="m382.15515 188.57112l0 -7.15625l0.96875 0l3.765625 5.625l0 -5.625l0.90625 0l0 7.15625l-0.96875 0l-3.765625 -5.625l0 5.625l-0.90625 0zm6.9404297 -3.484375q0 -1.78125 0.953125 -2.78125q0.953125 -1.015625 2.46875 -1.015625q1.0 0 1.796875 0.46875q0.796875 0.46875 1.203125 1.328125q0.421875 0.84375 0.421875 1.921875q0 1.078125 -0.4375 1.9375q-0.4375 0.859375 -1.25 1.3125q-0.796875 0.4375 -1.734375 0.4375q-1.015625 0 -1.8125 -0.484375q-0.796875 -0.5 -1.203125 -1.34375q-0.40625 -0.84375 -0.40625 -1.78125zm0.96875 0.015625q0 1.296875 0.703125 2.046875q0.703125 0.734375 1.75 0.734375q1.0625 0 1.75 -0.75q0.703125 -0.75 0.703125 -2.140625q0 -0.875 -0.296875 -1.515625q-0.296875 -0.65625 -0.875 -1.015625q-0.5625 -0.359375 -1.265625 -0.359375q-1.015625 0 -1.75 0.6875q-0.71875 0.6875 -0.71875 2.3125zm7.0908203 3.46875l0 -7.15625l2.46875 0q0.84375 0 1.28125 0.09375q0.609375 0.140625 1.046875 0.515625q0.5625 0.484375 0.84375 1.234375q0.28125 0.734375 0.28125 1.6875q0 0.828125 -0.1875 1.453125q-0.1875 0.625 -0.484375 1.046875q-0.296875 0.40625 -0.65625 0.640625q-0.359375 0.234375 -0.859375 0.359375q-0.5 0.125 -1.140625 0.125l-2.59375 0zm0.953125 -0.84375l1.53125 0q0.703125 0 1.109375 -0.125q0.40625 -0.140625 0.640625 -0.375q0.34375 -0.34375 0.53125 -0.90625q0.1875 -0.578125 0.1875 -1.390625q0 -1.109375 -0.375 -1.71875q-0.375 -0.609375 -0.890625 -0.8125q-0.390625 -0.140625 -1.234375 -0.140625l-1.5 0l0 5.46875zm6.2998047 0.84375l0 -7.15625l5.171875 0l0 0.84375l-4.234375 0l0 2.1875l3.96875 0l0 0.84375l-3.96875 0l0 2.4375l4.40625 0l0 0.84375l-5.34375 0zm12.370117 0l-0.875 0l0 -5.59375q-0.3125 0.296875 -0.828125 0.609375q-0.515625 0.296875 -0.921875 0.4375l0 -0.84375q0.734375 -0.34375 1.28125 -0.828125q0.5625 -0.5 0.78125 -0.96875l0.5625 0l0 7.1875z" fill-rule="nonzero"/><path fill="#000000" fill-opacity="0.0" d="m526.6877 167.98163l74.51965 0l0 31.496063l-74.51965 0z" fill-rule="evenodd"/><path fill="#ff0454" d="m546.0974 186.58162l0 -7.15625l0.96875 0l3.765625 5.625l0 -5.625l0.90625 0l0 7.15625l-0.96875 0l-3.765625 -5.625l0 5.625l-0.90625 0zm6.9404297 -3.484375q0 -1.78125 0.953125 -2.78125q0.953125 -1.015625 2.46875 -1.015625q1.0 0 1.796875 0.46875q0.796875 0.46875 1.203125 1.328125q0.421875 0.84375 0.421875 1.921875q0 1.078125 -0.4375 1.9375q-0.4375 0.859375 -1.25 1.3125q-0.796875 0.4375 -1.734375 0.4375q-1.015625 0 -1.8125 -0.484375q-0.796875 -0.5 -1.203125 -1.34375q-0.40625 -0.84375 -0.40625 -1.78125zm0.96875 0.015625q0 1.296875 0.703125 2.046875q0.703125 0.734375 1.75 0.734375q1.0625 0 1.75 -0.75q0.703125 -0.75 0.703125 -2.140625q0 -0.875 -0.296875 -1.515625q-0.296875 -0.65625 -0.875 -1.015625q-0.5625 -0.359375 -1.265625 -0.359375q-1.015625 0 -1.75 0.6875q-0.71875 0.6875 -0.71875 2.3125zm7.0908203 3.46875l0 -7.15625l2.46875 0q0.84375 0 1.28125 0.09375q0.609375 0.140625 1.046875 0.515625q0.5625 0.484375 0.84375 1.234375q0.28125 0.734375 0.28125 1.6875q0 0.828125 -0.1875 1.453125q-0.1875 0.625 -0.484375 1.046875q-0.296875 0.40625 -0.65625 0.640625q-0.359375 0.234375 -0.859375 0.359375q-0.5 0.125 -1.140625 0.125l-2.59375 0zm0.953125 -0.84375l1.53125 0q0.703125 0 1.109375 -0.125q0.40625 -0.140625 0.640625 -0.375q0.34375 -0.34375 0.53125 -0.90625q0.1875 -0.578125 0.1875 -1.390625q0 -1.109375 -0.375 -1.71875q-0.375 -0.609375 -0.890625 -0.8125q-0.390625 -0.140625 -1.234375 -0.140625l-1.5 0l0 5.46875zm6.2998047 0.84375l0 -7.15625l5.171875 0l0 0.84375l-4.234375 0l0 2.1875l3.96875 0l0 0.84375l-3.96875 0l0 2.4375l4.40625 0l0 0.84375l-5.34375 0zm13.682617 -0.84375l0 0.84375l-4.734375 0q0 -0.3125 0.109375 -0.609375q0.1875 -0.484375 0.578125 -0.953125q0.390625 -0.46875 1.15625 -1.078125q1.15625 -0.96875 1.5625 -1.515625q0.421875 -0.5625 0.421875 -1.0625q0 -0.53125 -0.375 -0.875q-0.375 -0.359375 -0.96875 -0.359375q-0.640625 0 -1.03125 0.375q-0.375 0.375 -0.375 1.046875l-0.90625 -0.09375q0.09375 -1.0 0.6875 -1.53125q0.609375 -0.53125 1.640625 -0.53125q1.03125 0 1.625 0.578125q0.609375 0.5625 0.609375 1.40625q0 0.4375 -0.1875 0.859375q-0.171875 0.40625 -0.578125 0.875q-0.40625 0.453125 -1.359375 1.25q-0.78125 0.65625 -1.015625 0.90625q-0.21875 0.234375 -0.359375 0.46875l3.5 0z" fill-rule="nonzero"/><path fill="#000000" fill-opacity="0.0" d="m362.7454 267.84253l74.519714 0l0 31.496063l-74.519714 0z" fill-rule="evenodd"/><path fill="#ff0454" d="m382.15515 286.4425l0 -7.15625l0.96875 0l3.765625 5.625l0 -5.625l0.90625 0l0 7.15625l-0.96875 0l-3.765625 -5.625l0 5.625l-0.90625 0zm6.9404297 -3.484375q0 -1.78125 0.953125 -2.78125q0.953125 -1.015625 2.46875 -1.015625q1.0 0 1.796875 0.46875q0.796875 0.46875 1.203125 1.328125q0.421875 0.84375 0.421875 1.921875q0 1.078125 -0.4375 1.9375q-0.4375 0.859375 -1.25 1.3125q-0.796875 0.4375 -1.734375 0.4375q-1.015625 0 -1.8125 -0.484375q-0.796875 -0.5 -1.203125 -1.34375q-0.40625 -0.84375 -0.40625 -1.78125zm0.96875 0.015625q0 1.296875 0.703125 2.046875q0.703125 0.734375 1.75 0.734375q1.0625 0 1.75 -0.75q0.703125 -0.75 0.703125 -2.140625q0 -0.875 -0.296875 -1.515625q-0.296875 -0.65625 -0.875 -1.015625q-0.5625 -0.359375 -1.265625 -0.359375q-1.015625 0 -1.75 0.6875q-0.71875 0.6875 -0.71875 2.3125zm7.0908203 3.46875l0 -7.15625l2.46875 0q0.84375 0 1.28125 0.09375q0.609375 0.140625 1.046875 0.515625q0.5625 0.484375 0.84375 1.234375q0.28125 0.734375 0.28125 1.6875q0 0.828125 -0.1875 1.453125q-0.1875 0.625 -0.484375 1.046875q-0.296875 0.40625 -0.65625 0.640625q-0.359375 0.234375 -0.859375 0.359375q-0.5 0.125 -1.140625 0.125l-2.59375 0zm0.953125 -0.84375l1.53125 0q0.703125 0 1.109375 -0.125q0.40625 -0.140625 0.640625 -0.375q0.34375 -0.34375 0.53125 -0.90625q0.1875 -0.578125 0.1875 -1.390625q0 -1.109375 -0.375 -1.71875q-0.375 -0.609375 -0.890625 -0.8125q-0.390625 -0.140625 -1.234375 -0.140625l-1.5 0l0 5.46875zm6.2998047 0.84375l0 -7.15625l5.171875 0l0 0.84375l-4.234375 0l0 2.1875l3.96875 0l0 0.84375l-3.96875 0l0 2.4375l4.40625 0l0 0.84375l-5.34375 0zm9.073242 -1.890625l0.875 -0.109375q0.15625 0.734375 0.515625 1.078125q0.359375 0.328125 0.890625 0.328125q0.625 0 1.046875 -0.421875q0.421875 -0.4375 0.421875 -1.078125q0 -0.609375 -0.390625 -1.0q-0.390625 -0.390625 -1.0 -0.390625q-0.25 0 -0.625 0.09375l0.09375 -0.765625q0.09375 0 0.140625 0q0.5625 0 1.015625 -0.28125q0.453125 -0.296875 0.453125 -0.90625q0 -0.484375 -0.328125 -0.796875q-0.328125 -0.328125 -0.84375 -0.328125q-0.515625 0 -0.859375 0.328125q-0.34375 0.3125 -0.4375 0.96875l-0.875 -0.15625q0.15625 -0.890625 0.71875 -1.375q0.578125 -0.484375 1.421875 -0.484375q0.59375 0 1.078125 0.25q0.5 0.25 0.75 0.6875q0.265625 0.4375 0.265625 0.921875q0 0.46875 -0.25 0.84375q-0.234375 0.375 -0.734375 0.609375q0.640625 0.140625 0.984375 0.609375q0.359375 0.453125 0.359375 1.15625q0 0.9375 -0.6875 1.59375q-0.6875 0.640625 -1.71875 0.640625q-0.953125 0 -1.578125 -0.5625q-0.609375 -0.5625 -0.703125 -1.453125z" fill-rule="nonzero"/><path fill="#000000" fill-opacity="0.0" d="m526.6877 267.84253l74.51965 0l0 31.496063l-74.51965 0z" fill-rule="evenodd"/><path fill="#ff0454" d="m546.0974 286.4425l0 -7.15625l0.96875 0l3.765625 5.625l0 -5.625l0.90625 0l0 7.15625l-0.96875 0l-3.765625 -5.625l0 5.625l-0.90625 0zm6.9404297 -3.484375q0 -1.78125 0.953125 -2.78125q0.953125 -1.015625 2.46875 -1.015625q1.0 0 1.796875 0.46875q0.796875 0.46875 1.203125 1.328125q0.421875 0.84375 0.421875 1.921875q0 1.078125 -0.4375 1.9375q-0.4375 0.859375 -1.25 1.3125q-0.796875 0.4375 -1.734375 0.4375q-1.015625 0 -1.8125 -0.484375q-0.796875 -0.5 -1.203125 -1.34375q-0.40625 -0.84375 -0.40625 -1.78125zm0.96875 0.015625q0 1.296875 0.703125 2.046875q0.703125 0.734375 1.75 0.734375q1.0625 0 1.75 -0.75q0.703125 -0.75 0.703125 -2.140625q0 -0.875 -0.296875 -1.515625q-0.296875 -0.65625 -0.875 -1.015625q-0.5625 -0.359375 -1.265625 -0.359375q-1.015625 0 -1.75 0.6875q-0.71875 0.6875 -0.71875 2.3125zm7.0908203 3.46875l0 -7.15625l2.46875 0q0.84375 0 1.28125 0.09375q0.609375 0.140625 1.046875 0.515625q0.5625 0.484375 0.84375 1.234375q0.28125 0.734375 0.28125 1.6875q0 0.828125 -0.1875 1.453125q-0.1875 0.625 -0.484375 1.046875q-0.296875 0.40625 -0.65625 0.640625q-0.359375 0.234375 -0.859375 0.359375q-0.5 0.125 -1.140625 0.125l-2.59375 0zm0.953125 -0.84375l1.53125 0q0.703125 0 1.109375 -0.125q0.40625 -0.140625 0.640625 -0.375q0.34375 -0.34375 0.53125 -0.90625q0.1875 -0.578125 0.1875 -1.390625q0 -1.109375 -0.375 -1.71875q-0.375 -0.609375 -0.890625 -0.8125q-0.390625 -0.140625 -1.234375 -0.140625l-1.5 0l0 5.46875zm6.2998047 0.84375l0 -7.15625l5.171875 0l0 0.84375l-4.234375 0l0 2.1875l3.96875 0l0 0.84375l-3.96875 0l0 2.4375l4.40625 0l0 0.84375l-5.34375 0zm11.885742 0l0 -1.71875l-3.109375 0l0 -0.796875l3.265625 -4.640625l0.71875 0l0 4.640625l0.96875 0l0 0.796875l-0.96875 0l0 1.71875l-0.875 0zm0 -2.515625l0 -3.234375l-2.25 3.234375l2.25 0z" fill-rule="nonzero"/><path fill="#ffffff" d="m471.88715 122.419945l22.015747 0l0 12.692909l-22.015747 0z" fill-rule="evenodd"/><path stroke="#ff0454" stroke-width="1.0" stroke-linejoin="round" stroke-linecap="butt" d="m471.88715 122.419945l22.015747 0l0 12.692909l-22.015747 0z" fill-rule="evenodd"/><path fill="#ff0454" d="m467.7139 127.45407l22.015747 0l0 12.692917l-22.015747 0z" fill-rule="evenodd"/><path stroke="#ffffff" stroke-width="1.0" stroke-linejoin="round" stroke-linecap="butt" d="m467.7139 127.45407l22.015747 0l0 12.692917l-22.015747 0z" fill-rule="evenodd"/></g></svg>