<svg version="1.1" viewBox="0.0 0.0 960.0 480.0" fill="none" stroke="none" stroke-linecap="square" stroke-miterlimit="10" xmlns:xlink="http://www.w3.org/1999/xlink" xmlns="http://www.w3.org/2000/svg"><clipPath id="g2eda1780393_0_191.0"><path d="m0 0l960.0 0l0 480.0l-960.0 0l0 -480.0z" clip-rule="nonzero"/></clipPath><g clip-path="url(#g2eda1780393_0_191.0)"><path fill="#ffffff" d="m0 0l960.0 0l0 480.0l-960.0 0z" fill-rule="evenodd"/><path fill="#ff0454" d="m335.44882 90.64042l289.1024 0l0 320.59842l-289.1024 0z" fill-rule="evenodd"/><path stroke="#ff0454" stroke-width="1.0" stroke-linejoin="round" stroke-linecap="butt" d="m335.44882 90.64042l289.1024 0l0 320.59842l-289.1024 0z" fill-rule="evenodd"/><path fill="#ffffff" d="m359.77954 218.98222l0 0c0 -16.450012 13.335358 -29.78537 29.78537 -29.78537l180.87021 0c7.899536 0 15.475586 3.138092 21.061401 8.723938c5.5858765 5.5858307 8.723938 13.161865 8.723938 21.061432l0 119.137924c0 16.450012 -13.335327 29.78537 -29.78534 29.78537l-180.87021 0l0 0c-16.450012 0 -29.78537 -13.335358 -29.78537 -29.78537z" fill-rule="evenodd"/><path stroke="#ff0454" stroke-width="1.0" stroke-linejoin="round" stroke-linecap="butt" d="m359.77954 218.98222l0 0c0 -16.450012 13.335358 -29.78537 29.78537 -29.78537l180.87021 0c7.899536 0 15.475586 3.138092 21.061401 8.723938c5.5858765 5.5858307 8.723938 13.161865 8.723938 21.061432l0 119.137924c0 16.450012 -13.335327 29.78537 -29.78534 29.78537l-180.87021 0l0 0c-16.450012 0 -29.78537 -13.335358 -29.78537 -29.78537z" fill-rule="evenodd"/><path fill="#ffffff" d="m459.6378 142.55118l10.268585 -17.795265l20.187256 0l10.268585 17.795265l-10.268585 17.795273l-20.187256 0z" fill-rule="evenodd"/><path stroke="#ff0454" stroke-width="1.0" stroke-linejoin="round" stroke-linecap="butt" d="m459.6378 142.55118l10.268585 -17.795265l20.187256 0l10.268585 17.795265l-10.268585 17.795273l-20.187256 0z" fill-rule="evenodd"/><path fill="#ff0454" d="m468.99213 151.9685l0 -10.594498l0 0c0 -4.5509033 3.6892395 -8.240143 8.240143 -8.240143l3.1811218 0l0 0c2.1854248 0 4.2813416 0.8681488 5.82666 2.4134827c1.5453491 1.5453186 2.4134827 3.6412354 2.4134827 5.82666l0 1.1771698l2.3543396 0l-4.7086487 4.708664l-4.708679 -4.708664l2.3543396 0l0 -1.1771698c0 -1.9503784 -1.5811157 -3.5314941 -3.5314941 -3.5314941l-3.1811218 0l0 0c-1.9503784 0 -3.5314941 1.5811157 -3.5314941 3.5314941l0 10.594498z" fill-rule="evenodd"/><path stroke="#ff0454" stroke-width="1.0" stroke-linejoin="round" stroke-linecap="butt" d="m468.99213 151.9685l0 -10.594498l0 0c0 -4.5509033 3.6892395 -8.240143 8.240143 -8.240143l3.1811218 0l0 0c2.1854248 0 4.2813416 0.8681488 5.82666 2.4134827c1.5453491 1.5453186 2.4134827 3.6412354 2.4134827 5.82666l0 1.1771698l2.3543396 0l-4.7086487 4.708664l-4.708679 -4.708664l2.3543396 0l0 -1.1771698c0 -1.9503784 -1.5811157 -3.5314941 -3.5314941 -3.5314941l-3.1811218 0l0 0c-1.9503784 0 -3.5314941 1.5811157 -3.5314941 3.5314941l0 10.594498z" fill-rule="evenodd"/><path fill="#ffffff" d="m379.64304 224.68504l10.268585 -17.795273l20.187256 0l10.268585 17.795273l-10.268585 17.795258l-20.187256 0z" fill-rule="evenodd"/><path stroke="#ff0454" stroke-width="1.0" stroke-linejoin="round" stroke-linecap="butt" d="m379.64304 224.68504l10.268585 -17.795273l20.187256 0l10.268585 17.795273l-10.268585 17.795258l-20.187256 0z" fill-rule="evenodd"/><path fill="#ff0454" d="m390.66666 219.93701l14.007874 0l0 14.165344l-14.007874 0z" fill-rule="evenodd"/><path fill="#cb0343" d="m404.67453 219.93701l4.6693115 -4.6692963l0 14.1653595l-4.6693115 4.669281z" fill-rule="evenodd"/><path fill="#ff3676" d="m390.66666 219.93701l4.6693115 -4.6692963l14.007874 0l-4.6693115 4.6692963z" fill-rule="evenodd"/><path fill="#000000" fill-opacity="0.0" d="m390.66666 219.93701l4.6693115 -4.6692963l14.007874 0l0 14.1653595l-4.6693115 4.669281l-14.007874 0zm0 0l14.007874 0l4.6693115 -4.6692963m-4.6693115 4.6692963l0 14.165344" fill-rule="evenodd"/><path stroke="#ffffff" stroke-width="1.0" stroke-linejoin="round" stroke-linecap="butt" d="m390.66666 219.93701l4.6693115 -4.6692963l14.007874 0l0 14.1653595l-4.6693115 4.669281l-14.007874 0zm0 0l14.007874 0l4.6693115 -4.6692963m-4.6693115 4.6692963l0 14.165344" fill-rule="evenodd"/><path fill="#ffffff" d="m379.64304 323.4567l10.268585 -17.795258l20.187256 0l10.268585 17.795258l-10.268585 17.795258l-20.187256 0z" fill-rule="evenodd"/><path stroke="#ff0454" stroke-width="1.0" stroke-linejoin="round" stroke-linecap="butt" d="m379.64304 323.4567l10.268585 -17.795258l20.187256 0l10.268585 17.795258l-10.268585 17.795258l-20.187256 0z" fill-rule="evenodd"/><path fill="#ff0454" d="m390.66666 318.70865l14.007874 0l0 14.165375l-14.007874 0z" fill-rule="evenodd"/><path fill="#cb0343" d="m404.67453 318.70865l4.6693115 -4.669281l0 14.165344l-4.6693115 4.6693115z" fill-rule="evenodd"/><path fill="#ff3676" d="m390.66666 318.70865l4.6693115 -4.669281l14.007874 0l-4.6693115 4.669281z" fill-rule="evenodd"/><path fill="#000000" fill-opacity="0.0" d="m390.66666 318.70865l4.6693115 -4.669281l14.007874 0l0 14.165344l-4.6693115 4.6693115l-14.007874 0zm0 0l14.007874 0l4.6693115 -4.669281m-4.6693115 4.669281l0 14.165375" fill-rule="evenodd"/><path stroke="#ffffff" stroke-width="1.0" stroke-linejoin="round" stroke-linecap="butt" d="m390.66666 318.70865l4.6693115 -4.669281l14.007874 0l0 14.165344l-4.6693115 4.6693115l-14.007874 0zm0 0l14.007874 0l4.6693115 -4.669281m-4.6693115 4.669281l0 14.165375" fill-rule="evenodd"/><path fill="#ffffff" d="m540.0 224.68504l10.268616 -17.795273l20.187195 0l10.268616 17.795273l-10.268616 17.795258l-20.187195 0z" fill-rule="evenodd"/><path stroke="#ff0454" stroke-width="1.0" stroke-linejoin="round" stroke-linecap="butt" d="m540.0 224.68504l10.268616 -17.795273l20.187195 0l10.268616 17.795273l-10.268616 17.795258l-20.187195 0z" fill-rule="evenodd"/><path fill="#ff0454" d="m551.0236 219.93701l14.007874 0l0 14.165344l-14.007874 0z" fill-rule="evenodd"/><path fill="#cb0343" d="m565.0315 219.93701l4.6693115 -4.6692963l0 14.1653595l-4.6693115 4.669281z" fill-rule="evenodd"/><path fill="#ff3676" d="m551.0236 219.93701l4.6693115 -4.6692963l14.007874 0l-4.6693115 4.6692963z" fill-rule="evenodd"/><path fill="#000000" fill-opacity="0.0" d="m551.0236 219.93701l4.6693115 -4.6692963l14.007874 0l0 14.1653595l-4.6693115 4.669281l-14.007874 0zm0 0l14.007874 0l4.6693115 -4.6692963m-4.6693115 4.6692963l0 14.165344" fill-rule="evenodd"/><path stroke="#ffffff" stroke-width="1.0" stroke-linejoin="round" stroke-linecap="butt" d="m551.0236 219.93701l4.6693115 -4.6692963l14.007874 0l0 14.1653595l-4.6693115 4.669281l-14.007874 0zm0 0l14.007874 0l4.6693115 -4.6692963m-4.6693115 4.6692963l0 14.165344" fill-rule="evenodd"/><path fill="#ffffff" d="m540.0 323.4567l10.268616 -17.795258l20.187195 0l10.268616 17.795258l-10.268616 17.795258l-20.187195 0z" fill-rule="evenodd"/><path stroke="#ff0454" stroke-width="1.0" stroke-linejoin="round" stroke-linecap="butt" d="m540.0 323.4567l10.268616 -17.795258l20.187195 0l10.268616 17.795258l-10.268616 17.795258l-20.187195 0z" fill-rule="evenodd"/><path fill="#ff0454" d="m551.0236 318.70865l14.007874 0l0 14.165375l-14.007874 0z" fill-rule="evenodd"/><path fill="#cb0343" d="m565.0315 318.70865l4.6693115 -4.669281l0 14.165344l-4.6693115 4.6693115z" fill-rule="evenodd"/><path fill="#ff3676" d="m551.0236 318.70865l4.6693115 -4.669281l14.007874 0l-4.6693115 4.669281z" fill-rule="evenodd"/><path fill="#000000" fill-opacity="0.0" d="m551.0236 318.70865l4.6693115 -4.669281l14.007874 0l0 14.165344l-4.6693115 4.6693115l-14.007874 0zm0 0l14.007874 0l4.6693115 -4.669281m-4.6693115 4.669281l0 14.165375" fill-rule="evenodd"/><path stroke="#ffffff" stroke-width="1.0" stroke-linejoin="round" stroke-linecap="butt" d="m551.0236 318.70865l4.6693115 -4.669281l14.007874 0l0 14.165344l-4.6693115 4.6693115l-14.007874 0zm0 0l14.007874 0l4.6693115 -4.669281m-4.6693115 4.669281l0 14.165375" fill-rule="evenodd"/><path fill="#000000" fill-opacity="0.0" d="m342.25986 123.03937l102.48816 0l0 39.02362l-102.48816 0z" fill-rule="evenodd"/><path fill="#ffffff" d="m352.19736 143.55937l0 -8.59375l3.8125 0q1.15625 0 1.75 0.234375q0.59375 0.234375 0.953125 0.828125q0.359375 0.578125 0.359375 1.28125q0 0.921875 -0.59375 1.546875q-0.59375 0.625 -1.828125 0.796875q0.453125 0.21875 0.6875 0.421875q0.5 0.453125 0.9375 1.140625l1.5 2.34375l-1.4375 0l-1.125 -1.78125q-0.5 -0.78125 -0.828125 -1.1875q-0.3125 -0.40625 -0.578125 -0.5625q-0.25 -0.171875 -0.515625 -0.25q-0.1875 -0.03125 -0.625 -0.03125l-1.328125 0l0 3.8125l-1.140625 0zm1.140625 -4.796875l2.453125 0q0.765625 0 1.203125 -0.15625q0.453125 -0.171875 0.671875 -0.515625q0.234375 -0.359375 0.234375 -0.78125q0 -0.609375 -0.453125 -1.0q-0.4375 -0.390625 -1.390625 -0.390625l-2.71875 0l0 2.84375zm11.634766 2.796875l1.09375 0.125q-0.25 0.953125 -0.953125 1.484375q-0.703125 0.53125 -1.78125 0.53125q-1.359375 0 -2.171875 -0.84375q-0.796875 -0.84375 -0.796875 -2.359375q0 -1.5625 0.8125 -2.421875q0.8125 -0.875 2.09375 -0.875q1.25 0 2.03125 0.84375q0.796875 0.84375 0.796875 2.390625q0 0.09375 0 0.28125l-4.640625 0q0.0625 1.03125 0.578125 1.578125q0.515625 0.53125 1.296875 0.53125q0.578125 0 0.984375 -0.296875q0.421875 -0.3125 0.65625 -0.96875zm-3.453125 -1.703125l3.46875 0q-0.0625 -0.796875 -0.390625 -1.1875q-0.515625 -0.609375 -1.3125 -0.609375q-0.734375 0 -1.234375 0.484375q-0.484375 0.484375 -0.53125 1.3125zm1.125 -3.296875l0.78125 -1.640625l1.390625 0l-1.296875 1.640625l-0.875 0zm4.751953 9.390625l0 -8.609375l0.953125 0l0 0.796875q0.34375 -0.46875 0.765625 -0.703125q0.4375 -0.234375 1.046875 -0.234375q0.796875 0 1.40625 0.40625q0.609375 0.40625 0.90625 1.15625q0.3125 0.75 0.3125 1.640625q0 0.953125 -0.34375 1.71875q-0.328125 0.765625 -0.984375 1.171875q-0.65625 0.40625 -1.375 0.40625q-0.53125 0 -0.953125 -0.21875q-0.421875 -0.234375 -0.6875 -0.5625l0 3.03125l-1.046875 0zm0.953125 -5.46875q0 1.203125 0.484375 1.78125q0.484375 0.5625 1.171875 0.5625q0.703125 0 1.203125 -0.59375q0.5 -0.59375 0.5 -1.84375q0 -1.1875 -0.484375 -1.765625q-0.484375 -0.59375 -1.171875 -0.59375q-0.671875 0 -1.1875 0.625q-0.515625 0.625 -0.515625 1.828125zm5.689453 3.078125l0 -8.59375l1.0625 0l0 8.59375l-1.0625 0zm2.6972656 -7.375l0 -1.21875l1.0625 0l0 1.21875l-1.0625 0zm0 7.375l0 -6.21875l1.0625 0l0 6.21875l-1.0625 0zm6.7285156 -2.28125l1.03125 0.140625q-0.171875 1.0625 -0.875 1.671875q-0.703125 0.609375 -1.71875 0.609375q-1.28125 0 -2.0625 -0.828125q-0.765625 -0.84375 -0.765625 -2.40625q0 -1.0 0.328125 -1.75q0.34375 -0.765625 1.015625 -1.140625q0.6875 -0.375 1.5 -0.375q1.0 0 1.640625 0.515625q0.65625 0.5 0.84375 1.453125l-1.03125 0.15625q-0.140625 -0.625 -0.515625 -0.9375q-0.375 -0.328125 -0.90625 -0.328125q-0.796875 0 -1.296875 0.578125q-0.5 0.5625 -0.5 1.796875q0 1.265625 0.484375 1.828125q0.484375 0.5625 1.25 0.5625q0.625 0 1.03125 -0.375q0.421875 -0.375 0.546875 -1.171875zm6.0 1.515625q-0.59375 0.5 -1.140625 0.703125q-0.53125 0.203125 -1.15625 0.203125q-1.03125 0 -1.578125 -0.5q-0.546875 -0.5 -0.546875 -1.28125q0 -0.453125 0.203125 -0.828125q0.203125 -0.390625 0.546875 -0.609375q0.34375 -0.234375 0.765625 -0.34375q0.296875 -0.09375 0.9375 -0.171875q1.265625 -0.140625 1.875 -0.359375q0 -0.21875 0 -0.265625q0 -0.65625 -0.296875 -0.921875q-0.40625 -0.34375 -1.203125 -0.34375q-0.734375 0 -1.09375 0.265625q-0.359375 0.25 -0.53125 0.90625l-1.03125 -0.140625q0.140625 -0.65625 0.46875 -1.0625q0.328125 -0.40625 0.9375 -0.625q0.609375 -0.21875 1.40625 -0.21875q0.796875 0 1.296875 0.1875q0.5 0.1875 0.734375 0.46875q0.234375 0.28125 0.328125 0.71875q0.046875 0.265625 0.046875 0.96875l0 1.40625q0 1.46875 0.0625 1.859375q0.078125 0.390625 0.28125 0.75l-1.109375 0q-0.15625 -0.328125 -0.203125 -0.765625zm-0.09375 -2.359375q-0.578125 0.234375 -1.71875 0.40625q-0.65625 0.09375 -0.921875 0.21875q-0.265625 0.109375 -0.421875 0.328125q-0.140625 0.21875 -0.140625 0.5q0 0.421875 0.3125 0.703125q0.328125 0.28125 0.9375 0.28125q0.609375 0 1.078125 -0.265625q0.484375 -0.265625 0.703125 -0.734375q0.171875 -0.359375 0.171875 -1.046875l0 -0.390625zm2.2832031 1.265625l1.03125 -0.15625q0.09375 0.625 0.484375 0.953125q0.40625 0.328125 1.140625 0.328125q0.71875 0 1.0625 -0.28125q0.359375 -0.296875 0.359375 -0.703125q0 -0.359375 -0.3125 -0.5625q-0.21875 -0.140625 -1.078125 -0.359375q-1.15625 -0.296875 -1.609375 -0.5q-0.4375 -0.21875 -0.671875 -0.59375q-0.234375 -0.375 -0.234375 -0.84375q0 -0.40625 0.1875 -0.765625q0.1875 -0.359375 0.515625 -0.59375q0.25 -0.171875 0.671875 -0.296875q0.421875 -0.125 0.921875 -0.125q0.71875 0 1.265625 0.21875q0.5625 0.203125 0.828125 0.5625q0.265625 0.359375 0.359375 0.953125l-1.03125 0.140625q-0.0625 -0.46875 -0.40625 -0.734375q-0.328125 -0.28125 -0.953125 -0.28125q-0.71875 0 -1.03125 0.25q-0.3125 0.234375 -0.3125 0.5625q0 0.203125 0.125 0.359375q0.140625 0.171875 0.40625 0.28125q0.15625 0.0625 0.9375 0.265625q1.125 0.3125 1.5625 0.5q0.4375 0.1875 0.6875 0.546875q0.25 0.359375 0.25 0.90625q0 0.53125 -0.3125 1.0q-0.296875 0.453125 -0.875 0.71875q-0.578125 0.25 -1.3125 0.25q-1.21875 0 -1.859375 -0.5q-0.625 -0.515625 -0.796875 -1.5zm10.037109 -3.15625l0 -1.203125l1.203125 0l0 1.203125l-1.203125 0zm0 5.015625l0 -1.203125l1.203125 0l0 1.203125l-1.203125 0zm9.464844 0l0 -2.0625l-3.71875 0l0 -0.96875l3.921875 -5.5625l0.859375 0l0 5.5625l1.15625 0l0 0.96875l-1.15625 0l0 2.0625l-1.0625 0zm0 -3.03125l0 -3.859375l-2.6875 3.859375l2.6875 0z" fill-rule="nonzero"/><path fill="#000000" fill-opacity="0.0" d="m420.36746 139.70604l34.141724 0" fill-rule="evenodd"/><path stroke="#ffffff" stroke-width="1.0" stroke-linejoin="round" stroke-linecap="butt" d="m420.36746 139.70604l28.141724 0" fill-rule="evenodd"/><path fill="#ffffff" stroke="#ffffff" stroke-width="1.0" stroke-linecap="butt" d="m448.5092 141.35777l4.538086 -1.6517334l-4.538086 -1.6517334z" fill-rule="evenodd"/><path fill="#000000" fill-opacity="0.0" d="m509.1181 123.03937l102.48822 0l0 39.02362l-102.48822 0z" fill-rule="evenodd"/><path fill="#ffffff" d="m519.04 143.55937l0 -8.59375l1.15625 0l4.515625 6.75l0 -6.75l1.09375 0l0 8.59375l-1.171875 0l-4.515625 -6.75l0 6.75l-1.078125 0zm8.337891 0.515625l1.03125 0.15625q0.0625 0.46875 0.359375 0.6875q0.390625 0.296875 1.0625 0.296875q0.734375 0 1.125 -0.296875q0.40625 -0.296875 0.546875 -0.8125q0.09375 -0.328125 0.078125 -1.359375q-0.6875 0.8125 -1.71875 0.8125q-1.28125 0 -1.984375 -0.921875q-0.703125 -0.9375 -0.703125 -2.21875q0 -0.890625 0.3125 -1.640625q0.328125 -0.765625 0.9375 -1.171875q0.609375 -0.40625 1.4375 -0.40625q1.109375 0 1.828125 0.890625l0 -0.75l0.96875 0l0 5.375q0 1.453125 -0.296875 2.0625q-0.296875 0.609375 -0.9375 0.953125q-0.640625 0.359375 -1.578125 0.359375q-1.109375 0 -1.796875 -0.5q-0.6875 -0.5 -0.671875 -1.515625zm0.875 -3.734375q0 1.21875 0.484375 1.78125q0.484375 0.5625 1.21875 0.5625q0.734375 0 1.21875 -0.5625q0.5 -0.5625 0.5 -1.75q0 -1.140625 -0.515625 -1.71875q-0.5 -0.578125 -1.21875 -0.578125q-0.703125 0 -1.203125 0.578125q-0.484375 0.5625 -0.484375 1.6875zm6.001953 -4.15625l0 -1.21875l1.0625 0l0 1.21875l-1.0625 0zm0 7.375l0 -6.21875l1.0625 0l0 6.21875l-1.0625 0zm2.6660156 0l0 -6.21875l0.9375 0l0 0.875q0.6875 -1.015625 1.984375 -1.015625q0.5625 0 1.03125 0.203125q0.484375 0.203125 0.71875 0.53125q0.234375 0.328125 0.328125 0.765625q0.046875 0.296875 0.046875 1.03125l0 3.828125l-1.046875 0l0 -3.78125q0 -0.65625 -0.125 -0.96875q-0.125 -0.3125 -0.4375 -0.5q-0.3125 -0.203125 -0.734375 -0.203125q-0.671875 0 -1.171875 0.4375q-0.484375 0.421875 -0.484375 1.609375l0 3.40625l-1.046875 0zm5.970703 0l2.265625 -3.234375l-2.09375 -2.984375l1.3125 0l0.953125 1.453125q0.265625 0.421875 0.4375 0.703125q0.25 -0.390625 0.46875 -0.6875l1.046875 -1.46875l1.265625 0l-2.15625 2.921875l2.3125 3.296875l-1.28125 0l-1.28125 -1.9375l-0.34375 -0.515625l-1.640625 2.453125l-1.265625 0z" fill-rule="nonzero"/><path fill="#000000" fill-opacity="0.0" d="m479.3281 160.27559c0 32.204727 -29.480316 64.409454 -58.960632 64.409454" fill-rule="evenodd"/><path stroke="#747bcb" stroke-width="1.0" stroke-linejoin="round" stroke-linecap="butt" d="m479.3281 160.27559c0 16.102371 -7.3700867 32.204727 -18.425201 44.281494c-5.5275574 6.038391 -11.976379 11.070374 -18.885834 14.592773c-3.454712 1.7611847 -7.024597 3.144989 -10.652069 4.088501c-1.8137207 0.47174072 -3.6418457 0.83340454 -5.4772034 1.0771332c-0.4588318 0.060943604 -0.9180908 0.11450195 -1.3776855 0.1605835c-0.22982788 0.023025513 -0.45968628 0.044189453 -0.68969727 0.0634613l-0.028869629 0.0021972656" fill-rule="evenodd"/><path fill="#747bcb" stroke="#747bcb" stroke-width="1.0" stroke-linecap="butt" d="m423.79153 224.54172l1.0765686 -1.1706238l-3.040039 1.2528076l3.1340942 0.99438477z" fill-rule="evenodd"/><path fill="#000000" fill-opacity="0.0" d="m479.3386 160.27559c0 32.204727 30.330688 64.409454 60.661407 64.409454" fill-rule="evenodd"/><path stroke="#747bcb" stroke-width="1.0" stroke-linejoin="round" stroke-linecap="butt" d="m479.3386 160.27559c0 16.102371 7.582672 32.204727 18.956696 44.281494c5.686981 6.038391 12.321838 11.070374 19.430603 14.592773c3.5543823 1.7611847 7.227234 3.144989 10.95929 4.088501c1.8660889 0.47174072 3.7469482 0.83340454 5.635254 1.0771332c0.47198486 0.060943604 0.9445801 0.11450195 1.4174194 0.1605835c0.2364502 0.023025513 0.47296143 0.044189453 0.7095947 0.0634613l0.12817383 0.009414673" fill-rule="evenodd"/><path fill="#747bcb" stroke="#747bcb" stroke-width="1.0" stroke-linecap="butt" d="m536.5756 224.54895l-1.168335 1.0790405l3.131958 -1.0010071l-3.0426636 -1.2463837z" fill-rule="evenodd"/><path fill="#000000" fill-opacity="0.0" d="m479.3281 160.71654c0 81.37007 -29.480316 162.74016 -58.960632 162.74016" fill-rule="evenodd"/><path stroke="#747bcb" stroke-width="1.0" stroke-linejoin="round" stroke-linecap="butt" d="m479.3281 160.71654c0 40.685043 -7.3700867 81.37007 -18.425201 111.883865c-5.5275574 15.256866 -11.976379 27.970947 -18.885834 36.87082c-3.454712 4.4499207 -7.024597 7.946289 -10.652069 10.33017c-1.8137207 1.1919556 -3.6418457 2.105774 -5.4772034 2.7216187c-0.4588318 0.15396118 -0.9180908 0.28927612 -1.3776855 0.40570068c-0.22982788 0.05819702 -0.45968628 0.11166382 -0.68969727 0.16033936l-0.044677734 0.009002686" fill-rule="evenodd"/><path fill="#747bcb" stroke="#747bcb" stroke-width="1.0" stroke-linecap="butt" d="m423.77573 323.09805l1.0007324 -1.236084l-2.9551392 1.441742l3.1904907 0.79507446z" fill-rule="evenodd"/><path fill="#000000" fill-opacity="0.0" d="m479.3386 162.48032c0 80.48819 30.330688 160.97638 60.661407 160.97638" fill-rule="evenodd"/><path stroke="#747bcb" stroke-width="1.0" stroke-linejoin="round" stroke-linecap="butt" d="m479.3386 162.48032c0 40.244095 7.582672 80.48819 18.956696 110.671265c5.686981 15.091522 12.321838 27.667816 19.430603 36.47119c3.5543823 4.401703 7.227234 7.860199 10.95929 10.218231c1.8660889 1.1790161 3.7469482 2.0829773 5.635254 2.6921082c0.47198486 0.15228271 0.9445801 0.28616333 1.4174194 0.40130615c0.2364502 0.057556152 0.47296143 0.11047363 0.7095947 0.15863037l0.14196777 0.027496338" fill-rule="evenodd"/><path fill="#747bcb" stroke="#747bcb" stroke-width="1.0" stroke-linecap="butt" d="m536.5894 323.12054l-1.2294312 1.0088501l3.1851807 -0.8161011l-2.9645996 -1.4222412z" fill-rule="evenodd"/><path fill="#000000" fill-opacity="0.0" d="m362.7454 242.48032l74.519714 0l0 26.64566l-74.519714 0z" fill-rule="evenodd"/><path fill="#747bcb" d="m374.70984 257.24033l0 -3.1093903l0.484375 0l0 0.4375q0.34375 -0.515625 0.984375 -0.515625q0.28125 0 0.515625 0.109375q0.234375 0.09375 0.34375 0.265625q0.125 0.15625 0.171875 0.390625q0.03125 0.140625 0.03125 0.515625l0 1.9062653l-0.53125 0l0 -1.8906403q0 -0.328125 -0.0625 -0.484375q-0.046875 -0.15625 -0.21875 -0.25q-0.15625 -0.09375 -0.359375 -0.09375q-0.34375 0 -0.59375 0.21875q-0.234375 0.203125 -0.234375 0.796875l0 1.7031403l-0.53125 0zm3.243164 0.265625l0.515625 0.0625q0.03125 0.25 0.171875 0.359375q0.203125 0.140625 0.546875 0.140625q0.359375 0 0.5625 -0.15625q0.203125 -0.140625 0.265625 -0.40625q0.046875 -0.15625 0.046875 -0.671875q-0.359375 0.40625 -0.875 0.40625q-0.640625 0 -1.0 -0.453125q-0.34375 -0.46875 -0.34375 -1.1250153q0 -0.4375 0.15625 -0.8125q0.171875 -0.375 0.46875 -0.578125q0.3125 -0.21875 0.734375 -0.21875q0.546875 0 0.90625 0.453125l0 -0.375l0.484375 0l0 2.6875153q0 0.734375 -0.15625 1.03125q-0.140625 0.296875 -0.46875 0.46875q-0.3125 0.1875 -0.78125 0.1875q-0.5625 0 -0.90625 -0.25q-0.34375 -0.25 -0.328125 -0.75zm0.4375 -1.8750153q0 0.60939026 0.234375 0.89064026q0.25 0.28125 0.625 0.28125q0.359375 0 0.59375 -0.28125q0.25 -0.28125 0.25 -0.87501526q0 -0.578125 -0.25 -0.859375q-0.25 -0.296875 -0.609375 -0.296875q-0.34375 0 -0.59375 0.296875q-0.25 0.28125 -0.25 0.84375zm3.008789 -2.078125l0 -0.609375l0.515625 0l0 0.609375l-0.515625 0zm0 3.6875153l0 -3.1093903l0.515625 0l0 3.1093903l-0.515625 0zm1.3173828 0l0 -3.1093903l0.484375 0l0 0.4375q0.34375 -0.515625 0.984375 -0.515625q0.28125 0 0.515625 0.109375q0.234375 0.09375 0.34375 0.265625q0.125 0.15625 0.171875 0.390625q0.03125 0.140625 0.03125 0.515625l0 1.9062653l-0.53125 0l0 -1.8906403q0 -0.328125 -0.0625 -0.484375q-0.046875 -0.15625 -0.21875 -0.25q-0.15625 -0.09375 -0.359375 -0.09375q-0.34375 0 -0.59375 0.21875q-0.234375 0.203125 -0.234375 0.796875l0 1.7031403l-0.53125 0zm2.993164 0l1.140625 -1.6250153l-1.0625 -1.484375l0.65625 0l0.484375 0.734375q0.140625 0.203125 0.21875 0.34375q0.125 -0.203125 0.234375 -0.34375l0.53125 -0.734375l0.625 0l-1.078125 1.46875l1.15625 1.6406403l-0.640625 0l-0.640625 -0.96875l-0.171875 -0.265625l-0.8125 1.234375l-0.640625 0zm3.140625 -1.2968903l0 -0.515625l1.625 0l0 0.515625l-1.625 0zm2.0605469 0.17189026l0.546875 -0.046875q0.0625 0.40625 0.28125 0.609375q0.234375 0.203125 0.546875 0.203125q0.390625 0 0.640625 -0.28125q0.265625 -0.296875 0.265625 -0.76564026q0 -0.453125 -0.25 -0.703125q-0.25 -0.265625 -0.65625 -0.265625q-0.265625 0 -0.46875 0.109375q-0.203125 0.109375 -0.3125 0.296875l-0.5 -0.0625l0.421875 -2.203125l2.125 0l0 0.5l-1.703125 0l-0.234375 1.15625q0.390625 -0.265625 0.8125 -0.265625q0.5625 0 0.9375 0.390625q0.390625 0.390625 0.390625 1.0q0 0.57814026 -0.34375 1.0000153q-0.40625 0.53125 -1.125 0.53125q-0.578125 0 -0.953125 -0.328125q-0.375 -0.328125 -0.421875 -0.875zm3.336914 0l0.546875 -0.046875q0.0625 0.40625 0.28125 0.609375q0.234375 0.203125 0.546875 0.203125q0.390625 0 0.640625 -0.28125q0.265625 -0.296875 0.265625 -0.76564026q0 -0.453125 -0.25 -0.703125q-0.25 -0.265625 -0.65625 -0.265625q-0.265625 0 -0.46875 0.109375q-0.203125 0.109375 -0.3125 0.296875l-0.5 -0.0625l0.421875 -2.203125l2.125 0l0 0.5l-1.703125 0l-0.234375 1.15625q0.390625 -0.265625 0.8125 -0.265625q0.5625 0 0.9375 0.390625q0.390625 0.390625 0.390625 1.0q0 0.57814026 -0.34375 1.0000153q-0.40625 0.53125 -1.125 0.53125q-0.578125 0 -0.953125 -0.328125q-0.375 -0.328125 -0.421875 -0.875zm6.071289 -2.1250153l-0.515625 0.046875q-0.078125 -0.3125 -0.203125 -0.453125q-0.21875 -0.21875 -0.53125 -0.21875q-0.25 0 -0.4375 0.140625q-0.25 0.171875 -0.40625 0.53125q-0.140625 0.34375 -0.140625 0.984375q0.1875 -0.28125 0.453125 -0.421875q0.28125 -0.140625 0.59375 -0.140625q0.53125 0 0.890625 0.390625q0.375 0.375 0.375 1.0q0 0.40626526 -0.171875 0.75001526q-0.171875 0.34375 -0.484375 0.53125q-0.296875 0.1875 -0.6875 0.1875q-0.65625 0 -1.078125 -0.484375q-0.421875 -0.484375 -0.421875 -1.6093903q0 -1.234375 0.46875 -1.8125q0.40625 -0.484375 1.078125 -0.484375q0.515625 0 0.828125 0.28125q0.328125 0.28125 0.390625 0.78125zm-2.15625 1.859375q0 0.26564026 0.109375 0.51564026q0.125 0.25 0.328125 0.390625q0.21875 0.125 0.4375 0.125q0.34375 0 0.578125 -0.265625q0.234375 -0.28125 0.234375 -0.73439026q0 -0.453125 -0.234375 -0.703125q-0.234375 -0.265625 -0.59375 -0.265625q-0.359375 0 -0.609375 0.265625q-0.25 0.25 -0.25 0.671875zm2.758789 0.26564026l0.546875 -0.046875q0.0625 0.40625 0.28125 0.609375q0.234375 0.203125 0.546875 0.203125q0.390625 0 0.640625 -0.28125q0.265625 -0.296875 0.265625 -0.76564026q0 -0.453125 -0.25 -0.703125q-0.25 -0.265625 -0.65625 -0.265625q-0.265625 0 -0.46875 0.109375q-0.203125 0.109375 -0.3125 0.296875l-0.5 -0.0625l0.421875 -2.203125l2.125 0l0 0.5l-1.703125 0l-0.234375 1.15625q0.390625 -0.265625 0.8125 -0.265625q0.5625 0 0.9375 0.390625q0.390625 0.390625 0.390625 1.0q0 0.57814026 -0.34375 1.0000153q-0.40625 0.53125 -1.125 0.53125q-0.578125 0 -0.953125 -0.328125q-0.375 -0.328125 -0.421875 -0.875zm3.961914 1.125l-0.484375 0l0 -4.2968903l0.53125 0l0 1.53125q0.328125 -0.421875 0.84375 -0.421875q0.296875 0 0.546875 0.125q0.265625 0.109375 0.421875 0.328125q0.171875 0.203125 0.265625 0.5q0.09375 0.296875 0.09375 0.625q0 0.81251526 -0.40625 1.2500153q-0.390625 0.4375 -0.9375 0.4375q-0.546875 0 -0.875 -0.46875l0 0.390625zm0 -1.5781403q0 0.56251526 0.15625 0.81251526q0.25 0.40625 0.671875 0.40625q0.34375 0 0.59375 -0.296875q0.25 -0.3125 0.25 -0.90626526q0 -0.609375 -0.25 -0.890625q-0.234375 -0.296875 -0.578125 -0.296875q-0.34375 0 -0.59375 0.3125q-0.25 0.296875 -0.25 0.859375zm2.649414 0.28125l0 -0.515625l1.625 0l0 0.515625l-1.625 0zm2.2011719 1.2968903l0 -3.1093903l0.484375 0l0 0.4375q0.34375 -0.515625 0.984375 -0.515625q0.28125 0 0.515625 0.109375q0.234375 0.09375 0.34375 0.265625q0.125 0.15625 0.171875 0.390625q0.03125 0.140625 0.03125 0.515625l0 1.9062653l-0.53125 0l0 -1.8906403q0 -0.328125 -0.0625 -0.484375q-0.046875 -0.15625 -0.21875 -0.25q-0.15625 -0.09375 -0.359375 -0.09375q-0.34375 0 -0.59375 0.21875q-0.234375 0.203125 -0.234375 0.796875l0 1.7031403l-0.53125 0zm5.961914 -0.5l0 0.5l-2.828125 0q-0.015625 -0.1875 0.0625 -0.359375q0.109375 -0.296875 0.34375 -0.578125q0.234375 -0.28125 0.6875 -0.65626526q0.703125 -0.5625 0.9375 -0.890625q0.25 -0.34375 0.25 -0.640625q0 -0.328125 -0.21875 -0.53125q-0.21875 -0.21875 -0.578125 -0.21875q-0.390625 0 -0.625 0.234375q-0.21875 0.21875 -0.21875 0.625l-0.546875 -0.0625q0.0625 -0.59375 0.421875 -0.90625q0.359375 -0.328125 0.96875 -0.328125q0.625 0 0.984375 0.34375q0.359375 0.34375 0.359375 0.84375q0 0.265625 -0.109375 0.515625q-0.109375 0.25 -0.359375 0.53125q-0.234375 0.265625 -0.796875 0.75q-0.484375 0.39064026 -0.625 0.53126526q-0.125 0.140625 -0.203125 0.296875l2.09375 0zm2.258789 0.5l0 -1.03125l-1.859375 0l0 -0.48439026l1.953125 -2.78125l0.4375 0l0 2.78125l0.578125 0l0 0.48439026l-0.578125 0l0 1.03125l-0.53125 0zm0 -1.5156403l0 -1.9375l-1.34375 1.9375l1.34375 0zm1.5244141 1.5156403l0 -0.421875l1.96875 -2.2812653q-0.328125 0.015625 -0.59375 0.015625l-1.265625 0l0 -0.421875l2.546875 0l0 0.34375l-1.6875 1.9843903l-0.328125 0.359375q0.359375 -0.03125 0.671875 -0.03125l1.4375 0l0 0.453125l-2.75 0zm3.171875 0.265625l0.515625 0.0625q0.03125 0.25 0.171875 0.359375q0.203125 0.140625 0.546875 0.140625q0.359375 0 0.5625 -0.15625q0.203125 -0.140625 0.265625 -0.40625q0.046875 -0.15625 0.046875 -0.671875q-0.359375 0.40625 -0.875 0.40625q-0.640625 0 -1.0 -0.453125q-0.34375 -0.46875 -0.34375 -1.1250153q0 -0.4375 0.15625 -0.8125q0.171875 -0.375 0.46875 -0.578125q0.3125 -0.21875 0.734375 -0.21875q0.546875 0 0.90625 0.453125l0 -0.375l0.484375 0l0 2.6875153q0 0.734375 -0.15625 1.03125q-0.140625 0.296875 -0.46875 0.46875q-0.3125 0.1875 -0.78125 0.1875q-0.5625 0 -0.90625 -0.25q-0.34375 -0.25 -0.328125 -0.75zm0.4375 -1.8750153q0 0.60939026 0.234375 0.89064026q0.25 0.28125 0.625 0.28125q0.359375 0 0.59375 -0.28125q0.25 -0.28125 0.25 -0.87501526q0 -0.578125 -0.25 -0.859375q-0.25 -0.296875 -0.609375 -0.296875q-0.34375 0 -0.59375 0.296875q-0.25 0.28125 -0.25 0.84375z" fill-rule="nonzero"/><path fill="#000000" fill-opacity="0.0" d="m362.7454 341.25198l74.519714 0l0 26.64566l-74.519714 0z" fill-rule="evenodd"/><path fill="#747bcb" d="m375.37634 356.01196l0 -3.109375l0.484375 0l0 0.4375q0.34375 -0.515625 0.984375 -0.515625q0.28125 0 0.515625 0.109375q0.234375 0.09375 0.34375 0.265625q0.125 0.15625 0.171875 0.390625q0.03125 0.140625 0.03125 0.515625l0 1.90625l-0.53125 0l0 -1.890625q0 -0.328125 -0.0625 -0.484375q-0.046875 -0.15625 -0.21875 -0.25q-0.15625 -0.09375 -0.359375 -0.09375q-0.34375 0 -0.59375 0.21875q-0.234375 0.203125 -0.234375 0.796875l0 1.703125l-0.53125 0zm3.243164 0.265625l0.515625 0.0625q0.03125 0.25 0.171875 0.359375q0.203125 0.140625 0.546875 0.140625q0.359375 0 0.5625 -0.15625q0.203125 -0.140625 0.265625 -0.40625q0.046875 -0.15625 0.046875 -0.671875q-0.359375 0.40625 -0.875 0.40625q-0.640625 0 -1.0 -0.453125q-0.34375 -0.46875 -0.34375 -1.125q0 -0.4375 0.15625 -0.8125q0.171875 -0.375 0.46875 -0.578125q0.3125 -0.21875 0.734375 -0.21875q0.546875 0 0.90625 0.453125l0 -0.375l0.484375 0l0 2.6875q0 0.734375 -0.15625 1.03125q-0.140625 0.296875 -0.46875 0.46875q-0.3125 0.1875 -0.78125 0.1875q-0.5625 0 -0.90625 -0.25q-0.34375 -0.25 -0.328125 -0.75zm0.4375 -1.875q0 0.609375 0.234375 0.890625q0.25 0.28125 0.625 0.28125q0.359375 0 0.59375 -0.28125q0.25 -0.28125 0.25 -0.875q0 -0.578125 -0.25 -0.859375q-0.25 -0.296875 -0.609375 -0.296875q-0.34375 0 -0.59375 0.296875q-0.25 0.28125 -0.25 0.84375zm3.008789 -2.078125l0 -0.609375l0.515625 0l0 0.609375l-0.515625 0zm0 3.6875l0 -3.109375l0.515625 0l0 3.109375l-0.515625 0zm1.3173828 0l0 -3.109375l0.484375 0l0 0.4375q0.34375 -0.515625 0.984375 -0.515625q0.28125 0 0.515625 0.109375q0.234375 0.09375 0.34375 0.265625q0.125 0.15625 0.171875 0.390625q0.03125 0.140625 0.03125 0.515625l0 1.90625l-0.53125 0l0 -1.890625q0 -0.328125 -0.0625 -0.484375q-0.046875 -0.15625 -0.21875 -0.25q-0.15625 -0.09375 -0.359375 -0.09375q-0.34375 0 -0.59375 0.21875q-0.234375 0.203125 -0.234375 0.796875l0 1.703125l-0.53125 0zm2.993164 0l1.140625 -1.625l-1.0625 -1.484375l0.65625 0l0.484375 0.734375q0.140625 0.203125 0.21875 0.34375q0.125 -0.203125 0.234375 -0.34375l0.53125 -0.734375l0.625 0l-1.078125 1.46875l1.15625 1.640625l-0.640625 0l-0.640625 -0.96875l-0.171875 -0.265625l-0.8125 1.234375l-0.640625 0zm3.140625 -1.296875l0 -0.515625l1.625 0l0 0.515625l-1.625 0zm2.0605469 0.171875l0.546875 -0.046875q0.0625 0.40625 0.28125 0.609375q0.234375 0.203125 0.546875 0.203125q0.390625 0 0.640625 -0.28125q0.265625 -0.296875 0.265625 -0.765625q0 -0.453125 -0.25 -0.703125q-0.25 -0.265625 -0.65625 -0.265625q-0.265625 0 -0.46875 0.109375q-0.203125 0.109375 -0.3125 0.296875l-0.5 -0.0625l0.421875 -2.203125l2.125 0l0 0.5l-1.703125 0l-0.234375 1.15625q0.390625 -0.265625 0.8125 -0.265625q0.5625 0 0.9375 0.390625q0.390625 0.390625 0.390625 1.0q0 0.578125 -0.34375 1.0q-0.40625 0.53125 -1.125 0.53125q-0.578125 0 -0.953125 -0.328125q-0.375 -0.328125 -0.421875 -0.875zm3.336914 0l0.546875 -0.046875q0.0625 0.40625 0.28125 0.609375q0.234375 0.203125 0.546875 0.203125q0.390625 0 0.640625 -0.28125q0.265625 -0.296875 0.265625 -0.765625q0 -0.453125 -0.25 -0.703125q-0.25 -0.265625 -0.65625 -0.265625q-0.265625 0 -0.46875 0.109375q-0.203125 0.109375 -0.3125 0.296875l-0.5 -0.0625l0.421875 -2.203125l2.125 0l0 0.5l-1.703125 0l-0.234375 1.15625q0.390625 -0.265625 0.8125 -0.265625q0.5625 0 0.9375 0.390625q0.390625 0.390625 0.390625 1.0q0 0.578125 -0.34375 1.0q-0.40625 0.53125 -1.125 0.53125q-0.578125 0 -0.953125 -0.328125q-0.375 -0.328125 -0.421875 -0.875zm6.071289 -2.125l-0.515625 0.046875q-0.078125 -0.3125 -0.203125 -0.453125q-0.21875 -0.21875 -0.53125 -0.21875q-0.25 0 -0.4375 0.140625q-0.25 0.171875 -0.40625 0.53125q-0.140625 0.34375 -0.140625 0.984375q0.1875 -0.28125 0.453125 -0.421875q0.28125 -0.140625 0.59375 -0.140625q0.53125 0 0.890625 0.390625q0.375 0.375 0.375 1.0q0 0.40625 -0.171875 0.75q-0.171875 0.34375 -0.484375 0.53125q-0.296875 0.1875 -0.6875 0.1875q-0.65625 0 -1.078125 -0.484375q-0.421875 -0.484375 -0.421875 -1.609375q0 -1.234375 0.46875 -1.8125q0.40625 -0.484375 1.078125 -0.484375q0.515625 0 0.828125 0.28125q0.328125 0.28125 0.390625 0.78125zm-2.15625 1.859375q0 0.265625 0.109375 0.515625q0.125 0.25 0.328125 0.390625q0.21875 0.125 0.4375 0.125q0.34375 0 0.578125 -0.265625q0.234375 -0.28125 0.234375 -0.734375q0 -0.453125 -0.234375 -0.703125q-0.234375 -0.265625 -0.59375 -0.265625q-0.359375 0 -0.609375 0.265625q-0.25 0.25 -0.25 0.671875zm2.758789 0.265625l0.546875 -0.046875q0.0625 0.40625 0.28125 0.609375q0.234375 0.203125 0.546875 0.203125q0.390625 0 0.640625 -0.28125q0.265625 -0.296875 0.265625 -0.765625q0 -0.453125 -0.25 -0.703125q-0.25 -0.265625 -0.65625 -0.265625q-0.265625 0 -0.46875 0.109375q-0.203125 0.109375 -0.3125 0.296875l-0.5 -0.0625l0.421875 -2.203125l2.125 0l0 0.5l-1.703125 0l-0.234375 1.15625q0.390625 -0.265625 0.8125 -0.265625q0.5625 0 0.9375 0.390625q0.390625 0.390625 0.390625 1.0q0 0.578125 -0.34375 1.0q-0.40625 0.53125 -1.125 0.53125q-0.578125 0 -0.953125 -0.328125q-0.375 -0.328125 -0.421875 -0.875zm3.961914 1.125l-0.484375 0l0 -4.296875l0.53125 0l0 1.53125q0.328125 -0.421875 0.84375 -0.421875q0.296875 0 0.546875 0.125q0.265625 0.109375 0.421875 0.328125q0.171875 0.203125 0.265625 0.5q0.09375 0.296875 0.09375 0.625q0 0.8125 -0.40625 1.25q-0.390625 0.4375 -0.9375 0.4375q-0.546875 0 -0.875 -0.46875l0 0.390625zm0 -1.578125q0 0.5625 0.15625 0.8125q0.25 0.40625 0.671875 0.40625q0.34375 0 0.59375 -0.296875q0.25 -0.3125 0.25 -0.90625q0 -0.609375 -0.25 -0.890625q-0.234375 -0.296875 -0.578125 -0.296875q-0.34375 0 -0.59375 0.3125q-0.25 0.296875 -0.25 0.859375zm2.649414 0.28125l0 -0.515625l1.625 0l0 0.515625l-1.625 0zm2.2011719 1.296875l0 -3.109375l0.484375 0l0 0.4375q0.34375 -0.515625 0.984375 -0.515625q0.28125 0 0.515625 0.109375q0.234375 0.09375 0.34375 0.265625q0.125 0.15625 0.171875 0.390625q0.03125 0.140625 0.03125 0.515625l0 1.90625l-0.53125 0l0 -1.890625q0 -0.328125 -0.0625 -0.484375q-0.046875 -0.15625 -0.21875 -0.25q-0.15625 -0.09375 -0.359375 -0.09375q-0.34375 0 -0.59375 0.21875q-0.234375 0.203125 -0.234375 0.796875l0 1.703125l-0.53125 0zm3.196289 -1.140625l0.53125 -0.0625q0.09375 0.453125 0.3125 0.65625q0.21875 0.1875 0.53125 0.1875q0.375 0 0.625 -0.25q0.25 -0.265625 0.25 -0.640625q0 -0.375 -0.234375 -0.609375q-0.234375 -0.234375 -0.59375 -0.234375q-0.15625 0 -0.375 0.0625l0.046875 -0.46875q0.0625 0.015625 0.09375 0.015625q0.328125 0 0.59375 -0.171875q0.28125 -0.1875 0.28125 -0.546875q0 -0.296875 -0.203125 -0.484375q-0.1875 -0.1875 -0.5 -0.1875q-0.3125 0 -0.515625 0.1875q-0.203125 0.1875 -0.265625 0.578125l-0.515625 -0.09375q0.09375 -0.53125 0.4375 -0.8125q0.34375 -0.296875 0.84375 -0.296875q0.359375 0 0.65625 0.15625q0.296875 0.140625 0.453125 0.40625q0.15625 0.265625 0.15625 0.546875q0 0.28125 -0.15625 0.515625q-0.140625 0.21875 -0.4375 0.359375q0.375 0.09375 0.578125 0.375q0.21875 0.265625 0.21875 0.6875q0 0.5625 -0.40625 0.953125q-0.40625 0.390625 -1.03125 0.390625q-0.578125 0 -0.953125 -0.328125q-0.359375 -0.34375 -0.421875 -0.890625zm6.071289 -2.109375l-0.515625 0.046875q-0.078125 -0.3125 -0.203125 -0.453125q-0.21875 -0.21875 -0.53125 -0.21875q-0.25 0 -0.4375 0.140625q-0.25 0.171875 -0.40625 0.53125q-0.140625 0.34375 -0.140625 0.984375q0.1875 -0.28125 0.453125 -0.421875q0.28125 -0.140625 0.59375 -0.140625q0.53125 0 0.890625 0.390625q0.375 0.375 0.375 1.0q0 0.40625 -0.171875 0.75q-0.171875 0.34375 -0.484375 0.53125q-0.296875 0.1875 -0.6875 0.1875q-0.65625 0 -1.078125 -0.484375q-0.421875 -0.484375 -0.421875 -1.609375q0 -1.234375 0.46875 -1.8125q0.40625 -0.484375 1.078125 -0.484375q0.515625 0 0.828125 0.28125q0.328125 0.28125 0.390625 0.78125zm-2.15625 1.859375q0 0.265625 0.109375 0.515625q0.125 0.25 0.328125 0.390625q0.21875 0.125 0.4375 0.125q0.34375 0 0.578125 -0.265625q0.234375 -0.28125 0.234375 -0.734375q0 -0.453125 -0.234375 -0.703125q-0.234375 -0.265625 -0.59375 -0.265625q-0.359375 0 -0.609375 0.265625q-0.25 0.25 -0.25 0.671875zm4.883789 2.578125l0 -1.515625q-0.125 0.171875 -0.34375 0.296875q-0.21875 0.109375 -0.46875 0.109375q-0.546875 0 -0.953125 -0.4375q-0.390625 -0.453125 -0.390625 -1.21875q0 -0.46875 0.15625 -0.84375q0.15625 -0.375 0.46875 -0.5625q0.3125 -0.203125 0.6875 -0.203125q0.5625 0 0.90625 0.484375l0 -0.40625l0.46875 0l0 4.296875l-0.53125 0zm-1.625 -2.75q0 0.59375 0.25 0.90625q0.25 0.296875 0.609375 0.296875q0.34375 0 0.578125 -0.28125q0.25 -0.296875 0.25 -0.875q0 -0.625 -0.265625 -0.9375q-0.25 -0.3125 -0.59375 -0.3125q-0.34375 0 -0.59375 0.296875q-0.234375 0.28125 -0.234375 0.90625zm3.102539 1.5625l0 -2.703125l-0.453125 0l0 -0.40625l0.453125 0l0 -0.328125q0 -0.3125 0.0625 -0.46875q0.078125 -0.203125 0.265625 -0.328125q0.1875 -0.140625 0.546875 -0.140625q0.21875 0 0.484375 0.0625l-0.078125 0.453125q-0.171875 -0.03125 -0.3125 -0.03125q-0.234375 0 -0.34375 0.109375q-0.09375 0.09375 -0.09375 0.375l0 0.296875l0.609375 0l0 0.40625l-0.609375 0l0 2.703125l-0.53125 0z" fill-rule="nonzero"/><path fill="#000000" fill-opacity="0.0" d="m523.10236 341.25198l74.519714 0l0 26.64566l-74.519714 0z" fill-rule="evenodd"/><path fill="#747bcb" d="m535.0668 356.01196l0 -3.109375l0.484375 0l0 0.4375q0.34375 -0.515625 0.984375 -0.515625q0.28125 0 0.515625 0.109375q0.234375 0.09375 0.34375 0.265625q0.125 0.15625 0.171875 0.390625q0.03125 0.140625 0.03125 0.515625l0 1.90625l-0.53125 0l0 -1.890625q0 -0.328125 -0.0625 -0.484375q-0.046875 -0.15625 -0.21875 -0.25q-0.15625 -0.09375 -0.359375 -0.09375q-0.34375 0 -0.59375 0.21875q-0.234375 0.203125 -0.234375 0.796875l0 1.703125l-0.53125 0zm3.243164 0.265625l0.515625 0.0625q0.03125 0.25 0.171875 0.359375q0.203125 0.140625 0.546875 0.140625q0.359375 0 0.5625 -0.15625q0.203125 -0.140625 0.265625 -0.40625q0.046875 -0.15625 0.046875 -0.671875q-0.359375 0.40625 -0.875 0.40625q-0.640625 0 -1.0 -0.453125q-0.34375 -0.46875 -0.34375 -1.125q0 -0.4375 0.15625 -0.8125q0.171875 -0.375 0.46875 -0.578125q0.3125 -0.21875 0.734375 -0.21875q0.546875 0 0.90625 0.453125l0 -0.375l0.484375 0l0 2.6875q0 0.734375 -0.15625 1.03125q-0.140625 0.296875 -0.46875 0.46875q-0.3125 0.1875 -0.78125 0.1875q-0.5625 0 -0.90625 -0.25q-0.34375 -0.25 -0.328125 -0.75zm0.4375 -1.875q0 0.609375 0.234375 0.890625q0.25 0.28125 0.625 0.28125q0.359375 0 0.59375 -0.28125q0.25 -0.28125 0.25 -0.875q0 -0.578125 -0.25 -0.859375q-0.25 -0.296875 -0.609375 -0.296875q-0.34375 0 -0.59375 0.296875q-0.25 0.28125 -0.25 0.84375zm3.008789 -2.078125l0 -0.609375l0.515625 0l0 0.609375l-0.515625 0zm0 3.6875l0 -3.109375l0.515625 0l0 3.109375l-0.515625 0zm1.3173828 0l0 -3.109375l0.484375 0l0 0.4375q0.34375 -0.515625 0.984375 -0.515625q0.28125 0 0.515625 0.109375q0.234375 0.09375 0.34375 0.265625q0.125 0.15625 0.171875 0.390625q0.03125 0.140625 0.03125 0.515625l0 1.90625l-0.53125 0l0 -1.890625q0 -0.328125 -0.0625 -0.484375q-0.046875 -0.15625 -0.21875 -0.25q-0.15625 -0.09375 -0.359375 -0.09375q-0.34375 0 -0.59375 0.21875q-0.234375 0.203125 -0.234375 0.796875l0 1.703125l-0.53125 0zm2.993164 0l1.140625 -1.625l-1.0625 -1.484375l0.65625 0l0.484375 0.734375q0.140625 0.203125 0.21875 0.34375q0.125 -0.203125 0.234375 -0.34375l0.53125 -0.734375l0.625 0l-1.078125 1.46875l1.15625 1.640625l-0.640625 0l-0.640625 -0.96875l-0.171875 -0.265625l-0.8125 1.234375l-0.640625 0zm3.140625 -1.296875l0 -0.515625l1.625 0l0 0.515625l-1.625 0zm2.0605469 0.171875l0.546875 -0.046875q0.0625 0.40625 0.28125 0.609375q0.234375 0.203125 0.546875 0.203125q0.390625 0 0.640625 -0.28125q0.265625 -0.296875 0.265625 -0.765625q0 -0.453125 -0.25 -0.703125q-0.25 -0.265625 -0.65625 -0.265625q-0.265625 0 -0.46875 0.109375q-0.203125 0.109375 -0.3125 0.296875l-0.5 -0.0625l0.421875 -2.203125l2.125 0l0 0.5l-1.703125 0l-0.234375 1.15625q0.390625 -0.265625 0.8125 -0.265625q0.5625 0 0.9375 0.390625q0.390625 0.390625 0.390625 1.0q0 0.578125 -0.34375 1.0q-0.40625 0.53125 -1.125 0.53125q-0.578125 0 -0.953125 -0.328125q-0.375 -0.328125 -0.421875 -0.875zm3.336914 0l0.546875 -0.046875q0.0625 0.40625 0.28125 0.609375q0.234375 0.203125 0.546875 0.203125q0.390625 0 0.640625 -0.28125q0.265625 -0.296875 0.265625 -0.765625q0 -0.453125 -0.25 -0.703125q-0.25 -0.265625 -0.65625 -0.265625q-0.265625 0 -0.46875 0.109375q-0.203125 0.109375 -0.3125 0.296875l-0.5 -0.0625l0.421875 -2.203125l2.125 0l0 0.5l-1.703125 0l-0.234375 1.15625q0.390625 -0.265625 0.8125 -0.265625q0.5625 0 0.9375 0.390625q0.390625 0.390625 0.390625 1.0q0 0.578125 -0.34375 1.0q-0.40625 0.53125 -1.125 0.53125q-0.578125 0 -0.953125 -0.328125q-0.375 -0.328125 -0.421875 -0.875zm6.071289 -2.125l-0.515625 0.046875q-0.078125 -0.3125 -0.203125 -0.453125q-0.21875 -0.21875 -0.53125 -0.21875q-0.25 0 -0.4375 0.140625q-0.25 0.171875 -0.40625 0.53125q-0.140625 0.34375 -0.140625 0.984375q0.1875 -0.28125 0.453125 -0.421875q0.28125 -0.140625 0.59375 -0.140625q0.53125 0 0.890625 0.390625q0.375 0.375 0.375 1.0q0 0.40625 -0.171875 0.75q-0.171875 0.34375 -0.484375 0.53125q-0.296875 0.1875 -0.6875 0.1875q-0.65625 0 -1.078125 -0.484375q-0.421875 -0.484375 -0.421875 -1.609375q0 -1.234375 0.46875 -1.8125q0.40625 -0.484375 1.078125 -0.484375q0.515625 0 0.828125 0.28125q0.328125 0.28125 0.390625 0.78125zm-2.15625 1.859375q0 0.265625 0.109375 0.515625q0.125 0.25 0.328125 0.390625q0.21875 0.125 0.4375 0.125q0.34375 0 0.578125 -0.265625q0.234375 -0.28125 0.234375 -0.734375q0 -0.453125 -0.234375 -0.703125q-0.234375 -0.265625 -0.59375 -0.265625q-0.359375 0 -0.609375 0.265625q-0.25 0.25 -0.25 0.671875zm2.758789 0.265625l0.546875 -0.046875q0.0625 0.40625 0.28125 0.609375q0.234375 0.203125 0.546875 0.203125q0.390625 0 0.640625 -0.28125q0.265625 -0.296875 0.265625 -0.765625q0 -0.453125 -0.25 -0.703125q-0.25 -0.265625 -0.65625 -0.265625q-0.265625 0 -0.46875 0.109375q-0.203125 0.109375 -0.3125 0.296875l-0.5 -0.0625l0.421875 -2.203125l2.125 0l0 0.5l-1.703125 0l-0.234375 1.15625q0.390625 -0.265625 0.8125 -0.265625q0.5625 0 0.9375 0.390625q0.390625 0.390625 0.390625 1.0q0 0.578125 -0.34375 1.0q-0.40625 0.53125 -1.125 0.53125q-0.578125 0 -0.953125 -0.328125q-0.375 -0.328125 -0.421875 -0.875zm3.961914 1.125l-0.484375 0l0 -4.296875l0.53125 0l0 1.53125q0.328125 -0.421875 0.84375 -0.421875q0.296875 0 0.546875 0.125q0.265625 0.109375 0.421875 0.328125q0.171875 0.203125 0.265625 0.5q0.09375 0.296875 0.09375 0.625q0 0.8125 -0.40625 1.25q-0.390625 0.4375 -0.9375 0.4375q-0.546875 0 -0.875 -0.46875l0 0.390625zm0 -1.578125q0 0.5625 0.15625 0.8125q0.25 0.40625 0.671875 0.40625q0.34375 0 0.59375 -0.296875q0.25 -0.3125 0.25 -0.90625q0 -0.609375 -0.25 -0.890625q-0.234375 -0.296875 -0.578125 -0.296875q-0.34375 0 -0.59375 0.3125q-0.25 0.296875 -0.25 0.859375zm2.649414 0.28125l0 -0.515625l1.625 0l0 0.515625l-1.625 0zm2.2011719 1.296875l0 -3.109375l0.484375 0l0 0.4375q0.34375 -0.515625 0.984375 -0.515625q0.28125 0 0.515625 0.109375q0.234375 0.09375 0.34375 0.265625q0.125 0.15625 0.171875 0.390625q0.03125 0.140625 0.03125 0.515625l0 1.90625l-0.53125 0l0 -1.890625q0 -0.328125 -0.0625 -0.484375q-0.046875 -0.15625 -0.21875 -0.25q-0.15625 -0.09375 -0.359375 -0.09375q-0.34375 0 -0.59375 0.21875q-0.234375 0.203125 -0.234375 0.796875l0 1.703125l-0.53125 0zm5.477539 -1.0l0.546875 0.0625q-0.140625 0.484375 -0.484375 0.75q-0.34375 0.265625 -0.890625 0.265625q-0.6875 0 -1.09375 -0.421875q-0.390625 -0.421875 -0.390625 -1.1875q0 -0.78125 0.40625 -1.21875q0.40625 -0.4375 1.046875 -0.4375q0.625 0 1.015625 0.4375q0.40625 0.421875 0.40625 1.1875q0 0.046875 -0.015625 0.140625l-2.3125 0q0.03125 0.515625 0.28125 0.796875q0.265625 0.265625 0.65625 0.265625q0.296875 0 0.5 -0.15625q0.203125 -0.15625 0.328125 -0.484375zm-1.734375 -0.859375l1.734375 0q-0.03125 -0.390625 -0.203125 -0.578125q-0.25 -0.3125 -0.65625 -0.3125q-0.359375 0 -0.609375 0.25q-0.234375 0.234375 -0.265625 0.640625zm3.805664 1.859375l-1.1875 -3.109375l0.5625 0l0.65625 1.859375q0.109375 0.296875 0.203125 0.625q0.078125 -0.25 0.203125 -0.59375l0.6875 -1.890625l0.546875 0l-1.1875 3.109375l-0.484375 0zm4.71875 -3.25l-0.515625 0.046875q-0.078125 -0.3125 -0.203125 -0.453125q-0.21875 -0.21875 -0.53125 -0.21875q-0.25 0 -0.4375 0.140625q-0.25 0.171875 -0.40625 0.53125q-0.140625 0.34375 -0.140625 0.984375q0.1875 -0.28125 0.453125 -0.421875q0.28125 -0.140625 0.59375 -0.140625q0.53125 0 0.890625 0.390625q0.375 0.375 0.375 1.0q0 0.40625 -0.171875 0.75q-0.171875 0.34375 -0.484375 0.53125q-0.296875 0.1875 -0.6875 0.1875q-0.65625 0 -1.078125 -0.484375q-0.421875 -0.484375 -0.421875 -1.609375q0 -1.234375 0.46875 -1.8125q0.40625 -0.484375 1.078125 -0.484375q0.515625 0 0.828125 0.28125q0.328125 0.28125 0.390625 0.78125zm-2.15625 1.859375q0 0.265625 0.109375 0.515625q0.125 0.25 0.328125 0.390625q0.21875 0.125 0.4375 0.125q0.34375 0 0.578125 -0.265625q0.234375 -0.28125 0.234375 -0.734375q0 -0.453125 -0.234375 -0.703125q-0.234375 -0.265625 -0.59375 -0.265625q-0.359375 0 -0.609375 0.265625q-0.25 0.25 -0.25 0.671875zm4.446289 1.390625l0 -1.03125l-1.859375 0l0 -0.484375l1.953125 -2.78125l0.4375 0l0 2.78125l0.578125 0l0 0.484375l-0.578125 0l0 1.03125l-0.53125 0zm0 -1.515625l0 -1.9375l-1.34375 1.9375l1.34375 0z" fill-rule="nonzero"/><path fill="#000000" fill-opacity="0.0" d="m523.10236 242.48032l74.519714 0l0 26.64566l-74.519714 0z" fill-rule="evenodd"/><path fill="#747bcb" d="m537.5702 257.24033l0 -3.1093903l0.484375 0l0 0.4375q0.34375 -0.515625 0.984375 -0.515625q0.28125 0 0.515625 0.109375q0.234375 0.09375 0.34375 0.265625q0.125 0.15625 0.171875 0.390625q0.03125 0.140625 0.03125 0.515625l0 1.9062653l-0.53125 0l0 -1.8906403q0 -0.328125 -0.0625 -0.484375q-0.046875 -0.15625 -0.21875 -0.25q-0.15625 -0.09375 -0.359375 -0.09375q-0.34375 0 -0.59375 0.21875q-0.234375 0.203125 -0.234375 0.796875l0 1.7031403l-0.53125 0zm3.243164 0.265625l0.515625 0.0625q0.03125 0.25 0.171875 0.359375q0.203125 0.140625 0.546875 0.140625q0.359375 0 0.5625 -0.15625q0.203125 -0.140625 0.265625 -0.40625q0.046875 -0.15625 0.046875 -0.671875q-0.359375 0.40625 -0.875 0.40625q-0.640625 0 -1.0 -0.453125q-0.34375 -0.46875 -0.34375 -1.1250153q0 -0.4375 0.15625 -0.8125q0.171875 -0.375 0.46875 -0.578125q0.3125 -0.21875 0.734375 -0.21875q0.546875 0 0.90625 0.453125l0 -0.375l0.484375 0l0 2.6875153q0 0.734375 -0.15625 1.03125q-0.140625 0.296875 -0.46875 0.46875q-0.3125 0.1875 -0.78125 0.1875q-0.5625 0 -0.90625 -0.25q-0.34375 -0.25 -0.328125 -0.75zm0.4375 -1.8750153q0 0.60939026 0.234375 0.89064026q0.25 0.28125 0.625 0.28125q0.359375 0 0.59375 -0.28125q0.25 -0.28125 0.25 -0.87501526q0 -0.578125 -0.25 -0.859375q-0.25 -0.296875 -0.609375 -0.296875q-0.34375 0 -0.59375 0.296875q-0.25 0.28125 -0.25 0.84375zm3.008789 -2.078125l0 -0.609375l0.515625 0l0 0.609375l-0.515625 0zm0 3.6875153l0 -3.1093903l0.515625 0l0 3.1093903l-0.515625 0zm1.3173828 0l0 -3.1093903l0.484375 0l0 0.4375q0.34375 -0.515625 0.984375 -0.515625q0.28125 0 0.515625 0.109375q0.234375 0.09375 0.34375 0.265625q0.125 0.15625 0.171875 0.390625q0.03125 0.140625 0.03125 0.515625l0 1.9062653l-0.53125 0l0 -1.8906403q0 -0.328125 -0.0625 -0.484375q-0.046875 -0.15625 -0.21875 -0.25q-0.15625 -0.09375 -0.359375 -0.09375q-0.34375 0 -0.59375 0.21875q-0.234375 0.203125 -0.234375 0.796875l0 1.7031403l-0.53125 0zm2.993164 0l1.140625 -1.6250153l-1.0625 -1.484375l0.65625 0l0.484375 0.734375q0.140625 0.203125 0.21875 0.34375q0.125 -0.203125 0.234375 -0.34375l0.53125 -0.734375l0.625 0l-1.078125 1.46875l1.15625 1.6406403l-0.640625 0l-0.640625 -0.96875l-0.171875 -0.265625l-0.8125 1.234375l-0.640625 0zm3.140625 -1.2968903l0 -0.515625l1.625 0l0 0.515625l-1.625 0zm2.0605469 0.17189026l0.546875 -0.046875q0.0625 0.40625 0.28125 0.609375q0.234375 0.203125 0.546875 0.203125q0.390625 0 0.640625 -0.28125q0.265625 -0.296875 0.265625 -0.76564026q0 -0.453125 -0.25 -0.703125q-0.25 -0.265625 -0.65625 -0.265625q-0.265625 0 -0.46875 0.109375q-0.203125 0.109375 -0.3125 0.296875l-0.5 -0.0625l0.421875 -2.203125l2.125 0l0 0.5l-1.703125 0l-0.234375 1.15625q0.390625 -0.265625 0.8125 -0.265625q0.5625 0 0.9375 0.390625q0.390625 0.390625 0.390625 1.0q0 0.57814026 -0.34375 1.0000153q-0.40625 0.53125 -1.125 0.53125q-0.578125 0 -0.953125 -0.328125q-0.375 -0.328125 -0.421875 -0.875zm3.336914 0l0.546875 -0.046875q0.0625 0.40625 0.28125 0.609375q0.234375 0.203125 0.546875 0.203125q0.390625 0 0.640625 -0.28125q0.265625 -0.296875 0.265625 -0.76564026q0 -0.453125 -0.25 -0.703125q-0.25 -0.265625 -0.65625 -0.265625q-0.265625 0 -0.46875 0.109375q-0.203125 0.109375 -0.3125 0.296875l-0.5 -0.0625l0.421875 -2.203125l2.125 0l0 0.5l-1.703125 0l-0.234375 1.15625q0.390625 -0.265625 0.8125 -0.265625q0.5625 0 0.9375 0.390625q0.390625 0.390625 0.390625 1.0q0 0.57814026 -0.34375 1.0000153q-0.40625 0.53125 -1.125 0.53125q-0.578125 0 -0.953125 -0.328125q-0.375 -0.328125 -0.421875 -0.875zm6.071289 -2.1250153l-0.515625 0.046875q-0.078125 -0.3125 -0.203125 -0.453125q-0.21875 -0.21875 -0.53125 -0.21875q-0.25 0 -0.4375 0.140625q-0.25 0.171875 -0.40625 0.53125q-0.140625 0.34375 -0.140625 0.984375q0.1875 -0.28125 0.453125 -0.421875q0.28125 -0.140625 0.59375 -0.140625q0.53125 0 0.890625 0.390625q0.375 0.375 0.375 1.0q0 0.40626526 -0.171875 0.75001526q-0.171875 0.34375 -0.484375 0.53125q-0.296875 0.1875 -0.6875 0.1875q-0.65625 0 -1.078125 -0.484375q-0.421875 -0.484375 -0.421875 -1.6093903q0 -1.234375 0.46875 -1.8125q0.40625 -0.484375 1.078125 -0.484375q0.515625 0 0.828125 0.28125q0.328125 0.28125 0.390625 0.78125zm-2.15625 1.859375q0 0.26564026 0.109375 0.51564026q0.125 0.25 0.328125 0.390625q0.21875 0.125 0.4375 0.125q0.34375 0 0.578125 -0.265625q0.234375 -0.28125 0.234375 -0.73439026q0 -0.453125 -0.234375 -0.703125q-0.234375 -0.265625 -0.59375 -0.265625q-0.359375 0 -0.609375 0.265625q-0.25 0.25 -0.25 0.671875zm2.758789 0.26564026l0.546875 -0.046875q0.0625 0.40625 0.28125 0.609375q0.234375 0.203125 0.546875 0.203125q0.390625 0 0.640625 -0.28125q0.265625 -0.296875 0.265625 -0.76564026q0 -0.453125 -0.25 -0.703125q-0.25 -0.265625 -0.65625 -0.265625q-0.265625 0 -0.46875 0.109375q-0.203125 0.109375 -0.3125 0.296875l-0.5 -0.0625l0.421875 -2.203125l2.125 0l0 0.5l-1.703125 0l-0.234375 1.15625q0.390625 -0.265625 0.8125 -0.265625q0.5625 0 0.9375 0.390625q0.390625 0.390625 0.390625 1.0q0 0.57814026 -0.34375 1.0000153q-0.40625 0.53125 -1.125 0.53125q-0.578125 0 -0.953125 -0.328125q-0.375 -0.328125 -0.421875 -0.875zm3.961914 1.125l-0.484375 0l0 -4.2968903l0.53125 0l0 1.53125q0.328125 -0.421875 0.84375 -0.421875q0.296875 0 0.546875 0.125q0.265625 0.109375 0.421875 0.328125q0.171875 0.203125 0.265625 0.5q0.09375 0.296875 0.09375 0.625q0 0.81251526 -0.40625 1.2500153q-0.390625 0.4375 -0.9375 0.4375q-0.546875 0 -0.875 -0.46875l0 0.390625zm0 -1.5781403q0 0.56251526 0.15625 0.81251526q0.25 0.40625 0.671875 0.40625q0.34375 0 0.59375 -0.296875q0.25 -0.3125 0.25 -0.90626526q0 -0.609375 -0.25 -0.890625q-0.234375 -0.296875 -0.578125 -0.296875q-0.34375 0 -0.59375 0.3125q-0.25 0.296875 -0.25 0.859375zm2.649414 0.28125l0 -0.515625l1.625 0l0 0.515625l-1.625 0zm2.3261719 1.2968903l0 -2.7031403l-0.453125 0l0 -0.40625l0.453125 0l0 -0.328125q0 -0.3125 0.0625 -0.46875q0.078125 -0.203125 0.265625 -0.328125q0.1875 -0.140625 0.546875 -0.140625q0.21875 0 0.484375 0.0625l-0.078125 0.453125q-0.171875 -0.03125 -0.3125 -0.03125q-0.234375 0 -0.34375 0.109375q-0.09375 0.09375 -0.09375 0.375l0 0.296875l0.609375 0l0 0.40625l-0.609375 0l0 2.7031403l-0.53125 0zm1.5419922 0l0 -4.2968903l0.515625 0l0 4.2968903l-0.515625 0zm1.1455078 -1.5625153q0 -0.859375 0.484375 -1.28125q0.390625 -0.34375 0.96875 -0.34375q0.640625 0 1.046875 0.421875q0.40625 0.421875 0.40625 1.171875q0 0.59376526 -0.1875 0.93751526q-0.171875 0.34375 -0.515625 0.546875q-0.34375 0.1875 -0.75 0.1875q-0.65625 0 -1.0625 -0.421875q-0.390625 -0.421875 -0.390625 -1.2187653zm0.53125 0q0 0.60939026 0.265625 0.90626526q0.265625 0.296875 0.65625 0.296875q0.390625 0 0.65625 -0.296875q0.265625 -0.3125 0.265625 -0.92189026q0 -0.578125 -0.265625 -0.875q-0.265625 -0.296875 -0.65625 -0.296875q-0.390625 0 -0.65625 0.296875q-0.265625 0.296875 -0.265625 0.890625zm2.852539 0.43751526l0.546875 -0.046875q0.0625 0.40625 0.28125 0.609375q0.234375 0.203125 0.546875 0.203125q0.390625 0 0.640625 -0.28125q0.265625 -0.296875 0.265625 -0.76564026q0 -0.453125 -0.25 -0.703125q-0.25 -0.265625 -0.65625 -0.265625q-0.265625 0 -0.46875 0.109375q-0.203125 0.109375 -0.3125 0.296875l-0.5 -0.0625l0.421875 -2.203125l2.125 0l0 0.5l-1.703125 0l-0.234375 1.15625q0.390625 -0.265625 0.8125 -0.265625q0.5625 0 0.9375 0.390625q0.390625 0.390625 0.390625 1.0q0 0.57814026 -0.34375 1.0000153q-0.40625 0.53125 -1.125 0.53125q-0.578125 0 -0.953125 -0.328125q-0.375 -0.328125 -0.421875 -0.875zm3.602539 1.125l0 -2.7031403l-0.453125 0l0 -0.40625l0.453125 0l0 -0.328125q0 -0.3125 0.0625 -0.46875q0.078125 -0.203125 0.265625 -0.328125q0.1875 -0.140625 0.546875 -0.140625q0.21875 0 0.484375 0.0625l-0.078125 0.453125q-0.171875 -0.03125 -0.3125 -0.03125q-0.234375 0 -0.34375 0.109375q-0.09375 0.09375 -0.09375 0.375l0 0.296875l0.609375 0l0 0.40625l-0.609375 0l0 2.7031403l-0.53125 0z" fill-rule="nonzero"/><path fill="#000000" fill-opacity="0.0" d="m418.8189 90.64042l122.36218 0l0 35.590553l-122.36218 0z" fill-rule="evenodd"/><path fill="#ffc404" d="m445.4722 112.44042l0 -9.546875l3.28125 0q1.109375 0 1.703125 0.140625q0.8125 0.1875 1.390625 0.6875q0.765625 0.640625 1.140625 1.640625q0.375 0.984375 0.375 2.25q0 1.09375 -0.265625 1.9375q-0.25 0.828125 -0.65625 1.390625q-0.390625 0.546875 -0.859375 0.859375q-0.46875 0.3125 -1.140625 0.484375q-0.65625 0.15625 -1.53125 0.15625l-3.4375 0zm1.265625 -1.125l2.03125 0q0.9375 0 1.46875 -0.171875q0.546875 -0.1875 0.875 -0.5q0.4375 -0.453125 0.6875 -1.203125q0.25 -0.765625 0.25 -1.84375q0 -1.5 -0.5 -2.296875q-0.484375 -0.8125 -1.1875 -1.078125q-0.5 -0.203125 -1.625 -0.203125l-2.0 0l0 7.296875zm12.937653 -1.09375l1.203125 0.140625q-0.28125 1.0625 -1.0625 1.65625q-0.765625 0.578125 -1.96875 0.578125q-1.515625 0 -2.40625 -0.9375q-0.890625 -0.9375 -0.890625 -2.609375q0 -1.75 0.890625 -2.703125q0.90625 -0.96875 2.34375 -0.96875q1.390625 0 2.265625 0.9375q0.875 0.9375 0.875 2.65625q0 0.109375 0 0.3125l-5.15625 0q0.0625 1.140625 0.640625 1.75q0.578125 0.59375 1.4375 0.59375q0.65625 0 1.109375 -0.328125q0.453125 -0.34375 0.71875 -1.078125zm-3.84375 -1.90625l3.859375 0q-0.078125 -0.859375 -0.4375 -1.296875q-0.5625 -0.6875 -1.453125 -0.6875q-0.8125 0 -1.359375 0.546875q-0.546875 0.53125 -0.609375 1.4375zm6.5218506 6.78125l0 -9.5625l1.078125 0l0 0.890625q0.375 -0.53125 0.84375 -0.78125q0.484375 -0.265625 1.15625 -0.265625q0.875 0 1.546875 0.453125q0.6875 0.453125 1.03125 1.28125q0.34375 0.828125 0.34375 1.828125q0 1.046875 -0.375 1.90625q-0.375 0.84375 -1.109375 1.296875q-0.71875 0.453125 -1.53125 0.453125q-0.578125 0 -1.046875 -0.25q-0.46875 -0.25 -0.765625 -0.625l0 3.375l-1.171875 0zm1.0625 -6.078125q0 1.34375 0.53125 1.984375q0.546875 0.625 1.3125 0.625q0.78125 0 1.34375 -0.65625q0.5625 -0.65625 0.5625 -2.046875q0 -1.3125 -0.546875 -1.96875q-0.546875 -0.671875 -1.296875 -0.671875q-0.75 0 -1.328125 0.703125q-0.578125 0.703125 -0.578125 2.03125zm6.3343506 3.421875l0 -9.546875l1.171875 0l0 9.546875l-1.171875 0zm2.539215 -3.453125q0 -1.921875 1.078125 -2.84375q0.890625 -0.765625 2.171875 -0.765625q1.421875 0 2.328125 0.9375q0.90625 0.921875 0.90625 2.578125q0 1.328125 -0.40625 2.09375q-0.390625 0.765625 -1.15625 1.1875q-0.765625 0.421875 -1.671875 0.421875q-1.453125 0 -2.359375 -0.921875q-0.890625 -0.9375 -0.890625 -2.6875zm1.203125 0q0 1.328125 0.578125 1.984375q0.59375 0.65625 1.46875 0.65625q0.875 0 1.453125 -0.65625q0.578125 -0.671875 0.578125 -2.03125q0 -1.28125 -0.59375 -1.9375q-0.578125 -0.65625 -1.4375 -0.65625q-0.875 0 -1.46875 0.65625q-0.578125 0.65625 -0.578125 1.984375zm6.5999756 6.109375l-0.125 -1.09375q0.375 0.109375 0.65625 0.109375q0.390625 0 0.625 -0.140625q0.234375 -0.125 0.390625 -0.359375q0.109375 -0.171875 0.359375 -0.875q0.03125 -0.09375 0.109375 -0.28125l-2.625 -6.921875l1.265625 0l1.4375 4.0q0.28125 0.765625 0.5 1.59375q0.203125 -0.796875 0.46875 -1.578125l1.484375 -4.015625l1.171875 0l-2.625 7.015625q-0.421875 1.140625 -0.65625 1.578125q-0.3125 0.578125 -0.71875 0.84375q-0.40625 0.28125 -0.96875 0.28125q-0.328125 0 -0.75 -0.15625zm6.7109375 -2.65625l0 -6.90625l1.046875 0l0 0.96875q0.328125 -0.515625 0.859375 -0.8125q0.546875 -0.3125 1.234375 -0.3125q0.78125 0 1.265625 0.3125q0.484375 0.3125 0.6875 0.890625q0.828125 -1.203125 2.140625 -1.203125q1.03125 0 1.578125 0.578125q0.5625 0.5625 0.5625 1.734375l0 4.75l-1.171875 0l0 -4.359375q0 -0.703125 -0.125 -1.0q-0.109375 -0.3125 -0.40625 -0.5q-0.296875 -0.1875 -0.703125 -0.1875q-0.71875 0 -1.203125 0.484375q-0.484375 0.484375 -0.484375 1.546875l0 4.015625l-1.171875 0l0 -4.484375q0 -0.78125 -0.296875 -1.171875q-0.28125 -0.390625 -0.921875 -0.390625q-0.5 0 -0.921875 0.265625q-0.421875 0.25 -0.609375 0.75q-0.1875 0.5 -0.1875 1.453125l0 3.578125l-1.171875 0zm15.8368225 -2.21875l1.203125 0.140625q-0.28125 1.0625 -1.0625 1.65625q-0.765625 0.578125 -1.96875 0.578125q-1.515625 0 -2.40625 -0.9375q-0.890625 -0.9375 -0.890625 -2.609375q0 -1.75 0.890625 -2.703125q0.90625 -0.96875 2.34375 -0.96875q1.390625 0 2.265625 0.9375q0.875 0.9375 0.875 2.65625q0 0.109375 0 0.3125l-5.15625 0q0.0625 1.140625 0.640625 1.75q0.578125 0.59375 1.4375 0.59375q0.65625 0 1.109375 -0.328125q0.453125 -0.34375 0.71875 -1.078125zm-3.84375 -1.90625l3.859375 0q-0.078125 -0.859375 -0.4375 -1.296875q-0.5625 -0.6875 -1.453125 -0.6875q-0.8125 0 -1.359375 0.546875q-0.546875 0.53125 -0.609375 1.4375zm6.5218506 4.125l0 -6.90625l1.0625 0l0 0.984375q0.75 -1.140625 2.1875 -1.140625q0.625 0 1.15625 0.21875q0.53125 0.21875 0.78125 0.59375q0.265625 0.359375 0.375 0.859375q0.0625 0.328125 0.0625 1.140625l0 4.25l-1.171875 0l0 -4.203125q0 -0.71875 -0.140625 -1.0625q-0.140625 -0.359375 -0.484375 -0.5625q-0.34375 -0.21875 -0.8125 -0.21875q-0.75 0 -1.296875 0.46875q-0.546875 0.46875 -0.546875 1.796875l0 3.78125l-1.171875 0zm9.974976 -1.046875l0.171875 1.03125q-0.5 0.109375 -0.890625 0.109375q-0.640625 0 -1.0 -0.203125q-0.34375 -0.203125 -0.484375 -0.53125q-0.140625 -0.328125 -0.140625 -1.390625l0 -3.96875l-0.859375 0l0 -0.90625l0.859375 0l0 -1.71875l1.171875 -0.703125l0 2.421875l1.171875 0l0 0.90625l-1.171875 0l0 4.046875q0 0.5 0.046875 0.640625q0.0625 0.140625 0.203125 0.234375q0.140625 0.078125 0.40625 0.078125q0.203125 0 0.515625 -0.046875z" fill-rule="nonzero"/></g></svg>