<svg version="1.1" viewBox="0.0 0.0 960.0 480.0" fill="none" stroke="none" stroke-linecap="square" stroke-miterlimit="10" xmlns:xlink="http://www.w3.org/1999/xlink" xmlns="http://www.w3.org/2000/svg"><clipPath id="g2ee98ddc2e2_0_0.0"><path d="m0 0l960.0 0l0 480.0l-960.0 0l0 -480.0z" clip-rule="nonzero"/></clipPath><g clip-path="url(#g2ee98ddc2e2_0_0.0)"><path fill="#ffffff" d="m0 0l960.0 0l0 480.0l-960.0 0z" fill-rule="evenodd"/><path fill="#ffffff" d="m139.47089 117.232285l26.10765 -45.244072l47.721695 0l26.10765 45.244072l-26.10765 45.24408l-47.721695 0z" fill-rule="evenodd"/><path stroke="#ff0454" stroke-width="4.0" stroke-linejoin="round" stroke-linecap="butt" d="m139.47089 117.232285l26.10765 -45.244072l47.721695 0l26.10765 45.244072l-26.10765 45.24408l-47.721695 0z" fill-rule="evenodd"/><path fill="#ff0454" d="m166.52208 104.74207l34.370087 0l0 36.41732l-34.370087 0z" fill-rule="evenodd"/><path fill="#cb0343" d="m200.89217 104.74207l11.456696 -11.456688l0 36.417328l-11.456696 11.45668z" fill-rule="evenodd"/><path fill="#ff3676" d="m166.52208 104.74207l11.456696 -11.456688l34.370087 0l-11.456696 11.456688z" fill-rule="evenodd"/><path fill="#000000" fill-opacity="0.0" d="m166.52208 104.74207l11.456696 -11.456688l34.370087 0l0 36.417328l-11.456696 11.45668l-34.370087 0zm0 0l34.370087 0l11.456696 -11.456688m-11.456696 11.456688l0 36.41732" fill-rule="evenodd"/><path stroke="#ffffff" stroke-width="1.0" stroke-linejoin="round" stroke-linecap="butt" d="m166.52208 104.74207l11.456696 -11.456688l34.370087 0l0 36.417328l-11.456696 11.45668l-34.370087 0zm0 0l34.370087 0l11.456696 -11.456688m-11.456696 11.456688l0 36.41732" fill-rule="evenodd"/><path fill="#000000" fill-opacity="0.0" d="m98.00525 127.350395l182.86615 0l0 37.984245l-182.86615 0z" fill-rule="evenodd"/><path fill="#747bcb" d="m163.62598 151.07039l0 -7.953125l1.203125 0l0 1.125q0.375 -0.59375 0.984375 -0.9375q0.625 -0.359375 1.421875 -0.359375q0.890625 0 1.453125 0.375q0.5625 0.359375 0.796875 1.015625q0.9375 -1.390625 2.453125 -1.390625q1.1875 0 1.8125 0.65625q0.640625 0.65625 0.640625 2.015625l0 5.453125l-1.34375 0l0 -5.0q0 -0.8125 -0.140625 -1.171875q-0.125 -0.359375 -0.46875 -0.5625q-0.34375 -0.21875 -0.796875 -0.21875q-0.84375 0 -1.40625 0.5625q-0.546875 0.546875 -0.546875 1.765625l0 4.625l-1.34375 0l0 -5.171875q0 -0.890625 -0.328125 -1.328125q-0.328125 -0.453125 -1.078125 -0.453125q-0.578125 0 -1.0625 0.296875q-0.46875 0.296875 -0.6875 0.875q-0.21875 0.578125 -0.21875 1.65625l0 4.125l-1.34375 0zm12.705948 3.0625l-0.15625 -1.265625q0.453125 0.125 0.78125 0.125q0.4375 0 0.703125 -0.15625q0.28125 -0.15625 0.453125 -0.421875q0.125 -0.203125 0.40625 -1.0q0.046875 -0.109375 0.125 -0.328125l-3.015625 -7.96875l1.453125 0l1.65625 4.609375q0.3125 0.875 0.5625 1.84375q0.234375 -0.9375 0.5625 -1.8125l1.703125 -4.640625l1.34375 0l-3.03125 8.09375q-0.484375 1.296875 -0.75 1.796875q-0.359375 0.671875 -0.828125 0.96875q-0.453125 0.3125 -1.109375 0.3125q-0.390625 0 -0.859375 -0.15625zm7.1796875 -5.4375l1.328125 -0.203125q0.125 0.796875 0.625 1.234375q0.515625 0.421875 1.4375 0.421875q0.9375 0 1.375 -0.375q0.453125 -0.390625 0.453125 -0.890625q0 -0.46875 -0.390625 -0.71875q-0.28125 -0.1875 -1.375 -0.46875q-1.484375 -0.375 -2.0625 -0.640625q-0.578125 -0.265625 -0.875 -0.75q-0.28125 -0.484375 -0.28125 -1.078125q0 -0.53125 0.234375 -0.984375q0.25 -0.453125 0.671875 -0.75q0.3125 -0.234375 0.84375 -0.390625q0.546875 -0.15625 1.171875 -0.15625q0.9375 0 1.640625 0.265625q0.703125 0.265625 1.03125 0.734375q0.34375 0.453125 0.46875 1.234375l-1.3125 0.171875q-0.09375 -0.609375 -0.53125 -0.953125q-0.421875 -0.34375 -1.203125 -0.34375q-0.921875 0 -1.328125 0.3125q-0.390625 0.296875 -0.390625 0.703125q0 0.265625 0.15625 0.46875q0.171875 0.21875 0.515625 0.359375q0.203125 0.078125 1.203125 0.359375q1.421875 0.375 1.984375 0.625q0.5625 0.234375 0.890625 0.703125q0.328125 0.453125 0.328125 1.15625q0 0.671875 -0.40625 1.265625q-0.390625 0.59375 -1.125 0.921875q-0.734375 0.3125 -1.671875 0.3125q-1.5625 0 -2.375 -0.640625q-0.796875 -0.640625 -1.03125 -1.90625zm13.2734375 5.421875l0 -3.890625q-0.3125 0.4375 -0.875 0.734375q-0.5625 0.28125 -1.203125 0.28125q-1.421875 0 -2.453125 -1.125q-1.015625 -1.125 -1.015625 -3.09375q0 -1.203125 0.421875 -2.140625q0.421875 -0.953125 1.203125 -1.4375q0.796875 -0.5 1.734375 -0.5q1.46875 0 2.328125 1.234375l0 -1.0625l1.203125 0l0 11.0l-1.34375 0zm-4.15625 -7.046875q0 1.53125 0.640625 2.3125q0.640625 0.765625 1.546875 0.765625q0.859375 0 1.484375 -0.734375q0.625 -0.734375 0.625 -2.21875q0 -1.59375 -0.65625 -2.390625q-0.65625 -0.796875 -1.546875 -0.796875q-0.875 0 -1.484375 0.75q-0.609375 0.734375 -0.609375 2.3125zm7.5872803 4.0l0 -10.96875l1.34375 0l0 10.96875l-1.34375 0zm2.905426 -3.296875l0 -1.34375l4.140625 0l0 1.34375l-4.140625 0zm5.2606354 -2.109375q0 -1.953125 0.390625 -3.140625q0.40625 -1.1875 1.1875 -1.828125q0.796875 -0.640625 2.0 -0.640625q0.875 0 1.53125 0.359375q0.671875 0.34375 1.109375 1.015625q0.4375 0.671875 0.6875 1.640625q0.25 0.953125 0.25 2.59375q0 1.921875 -0.40625 3.109375q-0.390625 1.1875 -1.1875 1.84375q-0.78125 0.640625 -1.984375 0.640625q-1.59375 0 -2.5 -1.140625q-1.078125 -1.359375 -1.078125 -4.453125zm1.375 0q0 2.703125 0.625 3.59375q0.640625 0.890625 1.578125 0.890625q0.921875 0 1.546875 -0.890625q0.640625 -0.90625 0.640625 -3.59375q0 -2.71875 -0.640625 -3.609375q-0.625 -0.890625 -1.5625 -0.890625q-0.9375 0 -1.484375 0.796875q-0.703125 1.0 -0.703125 3.703125z" fill-rule="nonzero"/><path fill="#ff0454" d="m158.79579 240.0205l0 0c0 -5.535904 13.720306 -10.023651 30.645157 -10.023651c16.92485 0 30.645142 4.487747 30.645142 10.023651l0 40.09459c0 5.535919 -13.720291 10.023651 -30.645142 10.023651c-16.92485 0 -30.645157 -4.487732 -30.645157 -10.023651z" fill-rule="evenodd"/><path fill="#000000" fill-opacity="0.0" d="m220.08609 240.0205l0 0c0 5.535904 -13.720291 10.023651 -30.645142 10.023651c-16.92485 0 -30.645157 -4.487747 -30.645157 -10.023651" fill-rule="evenodd"/><path fill="#000000" fill-opacity="0.0" d="m158.79579 240.0205l0 0c0 -5.535904 13.720306 -10.023651 30.645157 -10.023651c16.92485 0 30.645142 4.487747 30.645142 10.023651l0 40.09459c0 5.535919 -13.720291 10.023651 -30.645142 10.023651c-16.92485 0 -30.645157 -4.487732 -30.645157 -10.023651z" fill-rule="evenodd"/><path stroke="#ffffff" stroke-width="1.0" stroke-linejoin="round" stroke-linecap="butt" d="m220.08609 240.0205l0 0c0 5.535904 -13.720291 10.023651 -30.645142 10.023651c-16.92485 0 -30.645157 -4.487747 -30.645157 -10.023651" fill-rule="evenodd"/><path stroke="#ffffff" stroke-width="1.0" stroke-linejoin="round" stroke-linecap="butt" d="m158.79579 240.0205l0 0c0 -5.535904 13.720306 -10.023651 30.645157 -10.023651c16.92485 0 30.645142 4.487747 30.645142 10.023651l0 40.09459c0 5.535919 -13.720291 10.023651 -30.645142 10.023651c-16.92485 0 -30.645157 -4.487732 -30.645157 -10.023651z" fill-rule="evenodd"/><path fill="#000000" fill-opacity="0.0" d="m98.00525 237.88718l182.86615 0l0 56.566925l-182.86615 0z" fill-rule="evenodd"/><path fill="#ffffff" d="m178.5275 264.65405l0 -11.0l1.21875 0l0 1.03125q0.4375 -0.59375 0.984375 -0.890625q0.546875 -0.3125 1.328125 -0.3125q1.015625 0 1.796875 0.53125q0.78125 0.515625 1.171875 1.46875q0.390625 0.953125 0.390625 2.09375q0 1.21875 -0.4375 2.203125q-0.4375 0.96875 -1.28125 1.484375q-0.828125 0.515625 -1.734375 0.515625q-0.6875 0 -1.21875 -0.28125q-0.53125 -0.28125 -0.875 -0.71875l0 3.875l-1.34375 0zm1.21875 -6.96875q0 1.53125 0.609375 2.265625q0.625 0.734375 1.515625 0.734375q0.890625 0 1.53125 -0.765625q0.640625 -0.765625 0.640625 -2.359375q0 -1.515625 -0.625 -2.265625q-0.625 -0.765625 -1.484375 -0.765625q-0.859375 0 -1.53125 0.8125q-0.65625 0.796875 -0.65625 2.34375zm9.509155 3.921875l-3.03125 -7.953125l1.421875 0l1.71875 4.765625q0.265625 0.765625 0.5 1.59375q0.1875 -0.625 0.5 -1.5l1.765625 -4.859375l1.390625 0l-3.015625 7.953125l-1.25 0zm10.6484375 -2.90625l1.3125 0.171875q-0.203125 1.359375 -1.109375 2.140625q-0.890625 0.765625 -2.1875 0.765625q-1.640625 0 -2.640625 -1.0625q-0.984375 -1.0625 -0.984375 -3.046875q0 -1.296875 0.421875 -2.25q0.4375 -0.96875 1.3125 -1.453125q0.875 -0.484375 1.890625 -0.484375q1.296875 0 2.109375 0.65625q0.828125 0.65625 1.0625 1.859375l-1.3125 0.203125q-0.1875 -0.8125 -0.65625 -1.203125q-0.46875 -0.40625 -1.140625 -0.40625q-1.03125 0 -1.671875 0.734375q-0.625 0.71875 -0.625 2.296875q0 1.609375 0.609375 2.34375q0.609375 0.71875 1.609375 0.71875q0.78125 0 1.3125 -0.484375q0.546875 -0.5 0.6875 -1.5z" fill-rule="nonzero"/><path fill="#ffffff" d="m163.62598 280.00717l0 -7.953125l1.203125 0l0 1.125q0.375 -0.59375 0.984375 -0.9375q0.625 -0.359375 1.421875 -0.359375q0.890625 0 1.453125 0.375q0.5625 0.359375 0.796875 1.015625q0.9375 -1.390625 2.453125 -1.390625q1.1875 0 1.8125 0.65625q0.640625 0.65625 0.640625 2.015625l0 5.453125l-1.34375 0l0 -5.0q0 -0.8125 -0.140625 -1.171875q-0.125 -0.359375 -0.46875 -0.5625q-0.34375 -0.21875 -0.796875 -0.21875q-0.84375 0 -1.40625 0.5625q-0.546875 0.546875 -0.546875 1.765625l0 4.625l-1.34375 0l0 -5.171875q0 -0.890625 -0.328125 -1.328125q-0.328125 -0.453125 -1.078125 -0.453125q-0.578125 0 -1.0625 0.296875q-0.46875 0.296875 -0.6875 0.875q-0.21875 0.578125 -0.21875 1.65625l0 4.125l-1.34375 0zm12.705948 3.0625l-0.15625 -1.265625q0.453125 0.125 0.78125 0.125q0.4375 0 0.703125 -0.15625q0.28125 -0.15625 0.453125 -0.421875q0.125 -0.203125 0.40625 -1.0q0.046875 -0.109375 0.125 -0.328125l-3.015625 -7.96875l1.453125 0l1.65625 4.609375q0.3125 0.875 0.5625 1.84375q0.234375 -0.9375 0.5625 -1.8125l1.703125 -4.640625l1.34375 0l-3.03125 8.09375q-0.484375 1.296875 -0.75 1.796875q-0.359375 0.671875 -0.828125 0.96875q-0.453125 0.3125 -1.109375 0.3125q-0.390625 0 -0.859375 -0.15625zm7.1796875 -5.4375l1.328125 -0.203125q0.125 0.796875 0.625 1.234375q0.515625 0.421875 1.4375 0.421875q0.9375 0 1.375 -0.375q0.453125 -0.390625 0.453125 -0.890625q0 -0.46875 -0.390625 -0.71875q-0.28125 -0.1875 -1.375 -0.46875q-1.484375 -0.375 -2.0625 -0.640625q-0.578125 -0.265625 -0.875 -0.75q-0.28125 -0.484375 -0.28125 -1.078125q0 -0.53125 0.234375 -0.984375q0.25 -0.453125 0.671875 -0.75q0.3125 -0.234375 0.84375 -0.390625q0.546875 -0.15625 1.171875 -0.15625q0.9375 0 1.640625 0.265625q0.703125 0.265625 1.03125 0.734375q0.34375 0.453125 0.46875 1.234375l-1.3125 0.171875q-0.09375 -0.609375 -0.53125 -0.953125q-0.421875 -0.34375 -1.203125 -0.34375q-0.921875 0 -1.328125 0.3125q-0.390625 0.296875 -0.390625 0.703125q0 0.265625 0.15625 0.46875q0.171875 0.21875 0.515625 0.359375q0.203125 0.078125 1.203125 0.359375q1.421875 0.375 1.984375 0.625q0.5625 0.234375 0.890625 0.703125q0.328125 0.453125 0.328125 1.15625q0 0.671875 -0.40625 1.265625q-0.390625 0.59375 -1.125 0.921875q-0.734375 0.3125 -1.671875 0.3125q-1.5625 0 -2.375 -0.640625q-0.796875 -0.640625 -1.03125 -1.90625zm13.2734375 5.421875l0 -3.890625q-0.3125 0.4375 -0.875 0.734375q-0.5625 0.28125 -1.203125 0.28125q-1.421875 0 -2.453125 -1.125q-1.015625 -1.125 -1.015625 -3.09375q0 -1.203125 0.421875 -2.140625q0.421875 -0.953125 1.203125 -1.4375q0.796875 -0.5 1.734375 -0.5q1.46875 0 2.328125 1.234375l0 -1.0625l1.203125 0l0 11.0l-1.34375 0zm-4.15625 -7.046875q0 1.53125 0.640625 2.3125q0.640625 0.765625 1.546875 0.765625q0.859375 0 1.484375 -0.734375q0.625 -0.734375 0.625 -2.21875q0 -1.59375 -0.65625 -2.390625q-0.65625 -0.796875 -1.546875 -0.796875q-0.875 0 -1.484375 0.75q-0.609375 0.734375 -0.609375 2.3125zm7.5872803 4.0l0 -10.96875l1.34375 0l0 10.96875l-1.34375 0zm2.905426 -3.296875l0 -1.34375l4.140625 0l0 1.34375l-4.140625 0zm5.2606354 -2.109375q0 -1.953125 0.390625 -3.140625q0.40625 -1.1875 1.1875 -1.828125q0.796875 -0.640625 2.0 -0.640625q0.875 0 1.53125 0.359375q0.671875 0.34375 1.109375 1.015625q0.4375 0.671875 0.6875 1.640625q0.25 0.953125 0.25 2.59375q0 1.921875 -0.40625 3.109375q-0.390625 1.1875 -1.1875 1.84375q-0.78125 0.640625 -1.984375 0.640625q-1.59375 0 -2.5 -1.140625q-1.078125 -1.359375 -1.078125 -4.453125zm1.375 0q0 2.703125 0.625 3.59375q0.640625 0.890625 1.578125 0.890625q0.921875 0 1.546875 -0.890625q0.640625 -0.90625 0.640625 -3.59375q0 -2.71875 -0.640625 -3.609375q-0.625 -0.890625 -1.5625 -0.890625q-0.9375 0 -1.484375 0.796875q-0.703125 1.0 -0.703125 3.703125z" fill-rule="nonzero"/><path fill="#ff0454" d="m158.79842 357.89188l0 0c0 -5.5358887 13.720306 -10.023651 30.645157 -10.023651c16.92485 0 30.645142 4.4877625 30.645142 10.023651l0 40.094604c0 5.5358887 -13.720291 10.023651 -30.645142 10.023651c-16.92485 0 -30.645157 -4.4877625 -30.645157 -10.023651z" fill-rule="evenodd"/><path fill="#000000" fill-opacity="0.0" d="m220.08871 357.89188l0 0c0 5.535919 -13.720291 10.023651 -30.645142 10.023651c-16.92485 0 -30.645157 -4.487732 -30.645157 -10.023651" fill-rule="evenodd"/><path fill="#000000" fill-opacity="0.0" d="m158.79842 357.89188l0 0c0 -5.5358887 13.720306 -10.023651 30.645157 -10.023651c16.92485 0 30.645142 4.4877625 30.645142 10.023651l0 40.094604c0 5.5358887 -13.720291 10.023651 -30.645142 10.023651c-16.92485 0 -30.645157 -4.4877625 -30.645157 -10.023651z" fill-rule="evenodd"/><path stroke="#ffffff" stroke-width="1.0" stroke-linejoin="round" stroke-linecap="butt" d="m220.08871 357.89188l0 0c0 5.535919 -13.720291 10.023651 -30.645142 10.023651c-16.92485 0 -30.645157 -4.487732 -30.645157 -10.023651" fill-rule="evenodd"/><path stroke="#ffffff" stroke-width="1.0" stroke-linejoin="round" stroke-linecap="butt" d="m158.79842 357.89188l0 0c0 -5.5358887 13.720306 -10.023651 30.645157 -10.023651c16.92485 0 30.645142 4.4877625 30.645142 10.023651l0 40.094604c0 5.5358887 -13.720291 10.023651 -30.645142 10.023651c-16.92485 0 -30.645157 -4.4877625 -30.645157 -10.023651z" fill-rule="evenodd"/><path fill="#000000" fill-opacity="0.0" d="m98.00787 355.75858l182.86615 0l0 37.984253l-182.86615 0z" fill-rule="evenodd"/><path fill="#ffffff" d="m182.36215 382.52545l0 -11.0l1.21875 0l0 1.03125q0.4375 -0.59375 0.984375 -0.890625q0.546875 -0.3125 1.328125 -0.3125q1.015625 0 1.796875 0.53125q0.78125 0.515625 1.171875 1.46875q0.390625 0.953125 0.390625 2.09375q0 1.21875 -0.4375 2.203125q-0.4375 0.96875 -1.28125 1.484375q-0.828125 0.515625 -1.734375 0.515625q-0.6875 0 -1.21875 -0.28125q-0.53125 -0.28125 -0.875 -0.71875l0 3.875l-1.34375 0zm1.21875 -6.96875q0 1.53125 0.609375 2.265625q0.625 0.734375 1.515625 0.734375q0.890625 0 1.53125 -0.765625q0.640625 -0.765625 0.640625 -2.359375q0 -1.515625 -0.625 -2.265625q-0.625 -0.765625 -1.484375 -0.765625q-0.859375 0 -1.53125 0.8125q-0.65625 0.796875 -0.65625 2.34375zm9.509155 3.921875l-3.03125 -7.953125l1.421875 0l1.71875 4.765625q0.265625 0.765625 0.5 1.59375q0.1875 -0.625 0.5 -1.5l1.765625 -4.859375l1.390625 0l-3.015625 7.953125l-1.25 0z" fill-rule="nonzero"/><path fill="#000000" fill-opacity="0.0" d="m189.43832 165.33464l0 72.566925" fill-rule="evenodd"/><path stroke="#595959" stroke-width="1.0" stroke-linejoin="round" stroke-linecap="butt" d="m189.43832 165.33464l0 69.13985" fill-rule="evenodd"/><path fill="#595959" stroke="#595959" stroke-width="1.0" stroke-linecap="butt" d="m189.43832 234.47449l-1.124588 -1.124588l1.124588 3.0897675l1.1245728 -3.0897675z" fill-rule="evenodd"/><path fill="#000000" fill-opacity="0.0" d="m189.43832 294.4541l0 61.29135" fill-rule="evenodd"/><path stroke="#595959" stroke-width="1.0" stroke-linejoin="round" stroke-linecap="butt" d="m189.43832 294.4541l0 57.864258" fill-rule="evenodd"/><path fill="#595959" stroke="#595959" stroke-width="1.0" stroke-linecap="butt" d="m189.43832 352.31836l-1.124588 -1.1245728l1.124588 3.0897522l1.1245728 -3.0897522z" fill-rule="evenodd"/><path fill="#ffffff" d="m430.03125 117.232285l26.107666 -45.244072l47.72168 0l26.107666 45.244072l-26.107666 45.24408l-47.72168 0z" fill-rule="evenodd"/><path stroke="#ff0454" stroke-width="4.0" stroke-linejoin="round" stroke-linecap="butt" d="m430.03125 117.232285l26.107666 -45.244072l47.72168 0l26.107666 45.244072l-26.107666 45.24408l-47.72168 0z" fill-rule="evenodd"/><path fill="#ff0454" d="m457.08246 104.74207l34.370087 0l0 36.41732l-34.370087 0z" fill-rule="evenodd"/><path fill="#cb0343" d="m491.45255 104.74207l11.456665 -11.456688l0 36.417328l-11.456665 11.45668z" fill-rule="evenodd"/><path fill="#ff3676" d="m457.08246 104.74207l11.456696 -11.456688l34.370056 0l-11.456665 11.456688z" fill-rule="evenodd"/><path fill="#000000" fill-opacity="0.0" d="m457.08246 104.74207l11.456696 -11.456688l34.370056 0l0 36.417328l-11.456665 11.45668l-34.370087 0zm0 0l34.370087 0l11.456665 -11.456688m-11.456665 11.456688l0 36.41732" fill-rule="evenodd"/><path stroke="#ffffff" stroke-width="1.0" stroke-linejoin="round" stroke-linecap="butt" d="m457.08246 104.74207l11.456696 -11.456688l34.370056 0l0 36.417328l-11.456665 11.45668l-34.370087 0zm0 0l34.370087 0l11.456665 -11.456688m-11.456665 11.456688l0 36.41732" fill-rule="evenodd"/><path fill="#000000" fill-opacity="0.0" d="m388.5656 127.350395l182.86615 0l0 37.984245l-182.86615 0z" fill-rule="evenodd"/><path fill="#747bcb" d="m454.18634 151.07039l0 -7.953125l1.203125 0l0 1.125q0.375 -0.59375 0.984375 -0.9375q0.625 -0.359375 1.421875 -0.359375q0.890625 0 1.453125 0.375q0.5625 0.359375 0.796875 1.015625q0.9375 -1.390625 2.453125 -1.390625q1.1875 0 1.8125 0.65625q0.640625 0.65625 0.640625 2.015625l0 5.453125l-1.34375 0l0 -5.0q0 -0.8125 -0.140625 -1.171875q-0.125 -0.359375 -0.46875 -0.5625q-0.34375 -0.21875 -0.796875 -0.21875q-0.84375 0 -1.40625 0.5625q-0.546875 0.546875 -0.546875 1.765625l0 4.625l-1.34375 0l0 -5.171875q0 -0.890625 -0.328125 -1.328125q-0.328125 -0.453125 -1.078125 -0.453125q-0.578125 0 -1.0625 0.296875q-0.46875 0.296875 -0.6875 0.875q-0.21875 0.578125 -0.21875 1.65625l0 4.125l-1.34375 0zm12.705933 3.0625l-0.15625 -1.265625q0.453125 0.125 0.78125 0.125q0.4375 0 0.703125 -0.15625q0.28125 -0.15625 0.453125 -0.421875q0.125 -0.203125 0.40625 -1.0q0.046875 -0.109375 0.125 -0.328125l-3.015625 -7.96875l1.453125 0l1.65625 4.609375q0.3125 0.875 0.5625 1.84375q0.234375 -0.9375 0.5625 -1.8125l1.703125 -4.640625l1.34375 0l-3.03125 8.09375q-0.484375 1.296875 -0.75 1.796875q-0.359375 0.671875 -0.828125 0.96875q-0.453125 0.3125 -1.109375 0.3125q-0.390625 0 -0.859375 -0.15625zm7.1796875 -5.4375l1.328125 -0.203125q0.125 0.796875 0.625 1.234375q0.515625 0.421875 1.4375 0.421875q0.9375 0 1.375 -0.375q0.453125 -0.390625 0.453125 -0.890625q0 -0.46875 -0.390625 -0.71875q-0.28125 -0.1875 -1.375 -0.46875q-1.484375 -0.375 -2.0625 -0.640625q-0.578125 -0.265625 -0.875 -0.75q-0.28125 -0.484375 -0.28125 -1.078125q0 -0.53125 0.234375 -0.984375q0.25 -0.453125 0.671875 -0.75q0.3125 -0.234375 0.84375 -0.390625q0.546875 -0.15625 1.171875 -0.15625q0.9375 0 1.640625 0.265625q0.703125 0.265625 1.03125 0.734375q0.34375 0.453125 0.46875 1.234375l-1.3125 0.171875q-0.09375 -0.609375 -0.53125 -0.953125q-0.421875 -0.34375 -1.203125 -0.34375q-0.921875 0 -1.328125 0.3125q-0.390625 0.296875 -0.390625 0.703125q0 0.265625 0.15625 0.46875q0.171875 0.21875 0.515625 0.359375q0.203125 0.078125 1.203125 0.359375q1.421875 0.375 1.984375 0.625q0.5625 0.234375 0.890625 0.703125q0.328125 0.453125 0.328125 1.15625q0 0.671875 -0.40625 1.265625q-0.390625 0.59375 -1.125 0.921875q-0.734375 0.3125 -1.671875 0.3125q-1.5625 0 -2.375 -0.640625q-0.796875 -0.640625 -1.03125 -1.90625zm13.2734375 5.421875l0 -3.890625q-0.3125 0.4375 -0.875 0.734375q-0.5625 0.28125 -1.203125 0.28125q-1.421875 0 -2.453125 -1.125q-1.015625 -1.125 -1.015625 -3.09375q0 -1.203125 0.421875 -2.140625q0.421875 -0.953125 1.203125 -1.4375q0.796875 -0.5 1.734375 -0.5q1.46875 0 2.328125 1.234375l0 -1.0625l1.203125 0l0 11.0l-1.34375 0zm-4.15625 -7.046875q0 1.53125 0.640625 2.3125q0.640625 0.765625 1.546875 0.765625q0.859375 0 1.484375 -0.734375q0.625 -0.734375 0.625 -2.21875q0 -1.59375 -0.65625 -2.390625q-0.65625 -0.796875 -1.546875 -0.796875q-0.875 0 -1.484375 0.75q-0.609375 0.734375 -0.609375 2.3125zm7.5872803 4.0l0 -10.96875l1.34375 0l0 10.96875l-1.34375 0zm2.905426 -3.296875l0 -1.34375l4.140625 0l0 1.34375l-4.140625 0zm10.323151 3.296875l-1.34375 0l0 -8.578125q-0.484375 0.453125 -1.28125 0.921875q-0.78125 0.46875 -1.40625 0.703125l0 -1.3125q1.125 -0.53125 1.96875 -1.28125q0.84375 -0.765625 1.203125 -1.46875l0.859375 0l0 11.015625z" fill-rule="nonzero"/><path fill="#ff0454" d="m449.35617 240.0205l0 0c0 -5.535904 13.720306 -10.023651 30.645142 -10.023651c16.924835 0 30.645142 4.487747 30.645142 10.023651l0 40.09459c0 5.535919 -13.720306 10.023651 -30.645142 10.023651c-16.924835 0 -30.645142 -4.487732 -30.645142 -10.023651z" fill-rule="evenodd"/><path fill="#000000" fill-opacity="0.0" d="m510.64645 240.0205l0 0c0 5.535904 -13.720306 10.023651 -30.645142 10.023651c-16.924835 0 -30.645142 -4.487747 -30.645142 -10.023651" fill-rule="evenodd"/><path fill="#000000" fill-opacity="0.0" d="m449.35617 240.0205l0 0c0 -5.535904 13.720306 -10.023651 30.645142 -10.023651c16.924835 0 30.645142 4.487747 30.645142 10.023651l0 40.09459c0 5.535919 -13.720306 10.023651 -30.645142 10.023651c-16.924835 0 -30.645142 -4.487732 -30.645142 -10.023651z" fill-rule="evenodd"/><path stroke="#ffffff" stroke-width="1.0" stroke-linejoin="round" stroke-linecap="butt" d="m510.64645 240.0205l0 0c0 5.535904 -13.720306 10.023651 -30.645142 10.023651c-16.924835 0 -30.645142 -4.487747 -30.645142 -10.023651" fill-rule="evenodd"/><path stroke="#ffffff" stroke-width="1.0" stroke-linejoin="round" stroke-linecap="butt" d="m449.35617 240.0205l0 0c0 -5.535904 13.720306 -10.023651 30.645142 -10.023651c16.924835 0 30.645142 4.487747 30.645142 10.023651l0 40.09459c0 5.535919 -13.720306 10.023651 -30.645142 10.023651c-16.924835 0 -30.645142 -4.487732 -30.645142 -10.023651z" fill-rule="evenodd"/><path fill="#000000" fill-opacity="0.0" d="m388.5656 237.88718l182.86615 0l0 56.566925l-182.86615 0z" fill-rule="evenodd"/><path fill="#ffffff" d="m469.08786 264.65405l0 -11.0l1.21875 0l0 1.03125q0.4375 -0.59375 0.984375 -0.890625q0.546875 -0.3125 1.328125 -0.3125q1.015625 0 1.796875 0.53125q0.78125 0.515625 1.171875 1.46875q0.390625 0.953125 0.390625 2.09375q0 1.21875 -0.4375 2.203125q-0.4375 0.96875 -1.28125 1.484375q-0.828125 0.515625 -1.734375 0.515625q-0.6875 0 -1.21875 -0.28125q-0.53125 -0.28125 -0.875 -0.71875l0 3.875l-1.34375 0zm1.21875 -6.96875q0 1.53125 0.609375 2.265625q0.625 0.734375 1.515625 0.734375q0.890625 0 1.53125 -0.765625q0.640625 -0.765625 0.640625 -2.359375q0 -1.515625 -0.625 -2.265625q-0.625 -0.765625 -1.484375 -0.765625q-0.859375 0 -1.53125 0.8125q-0.65625 0.796875 -0.65625 2.34375zm9.509155 3.921875l-3.03125 -7.953125l1.421875 0l1.71875 4.765625q0.265625 0.765625 0.5 1.59375q0.1875 -0.625 0.5 -1.5l1.765625 -4.859375l1.390625 0l-3.015625 7.953125l-1.25 0zm10.6484375 -2.90625l1.3125 0.171875q-0.203125 1.359375 -1.109375 2.140625q-0.890625 0.765625 -2.1875 0.765625q-1.640625 0 -2.640625 -1.0625q-0.984375 -1.0625 -0.984375 -3.046875q0 -1.296875 0.421875 -2.25q0.4375 -0.96875 1.3125 -1.453125q0.875 -0.484375 1.890625 -0.484375q1.296875 0 2.109375 0.65625q0.828125 0.65625 1.0625 1.859375l-1.3125 0.203125q-0.1875 -0.8125 -0.65625 -1.203125q-0.46875 -0.40625 -1.140625 -0.40625q-1.03125 0 -1.671875 0.734375q-0.625 0.71875 -0.625 2.296875q0 1.609375 0.609375 2.34375q0.609375 0.71875 1.609375 0.71875q0.78125 0 1.3125 -0.484375q0.546875 -0.5 0.6875 -1.5z" fill-rule="nonzero"/><path fill="#ffffff" d="m454.18634 280.00717l0 -7.953125l1.203125 0l0 1.125q0.375 -0.59375 0.984375 -0.9375q0.625 -0.359375 1.421875 -0.359375q0.890625 0 1.453125 0.375q0.5625 0.359375 0.796875 1.015625q0.9375 -1.390625 2.453125 -1.390625q1.1875 0 1.8125 0.65625q0.640625 0.65625 0.640625 2.015625l0 5.453125l-1.34375 0l0 -5.0q0 -0.8125 -0.140625 -1.171875q-0.125 -0.359375 -0.46875 -0.5625q-0.34375 -0.21875 -0.796875 -0.21875q-0.84375 0 -1.40625 0.5625q-0.546875 0.546875 -0.546875 1.765625l0 4.625l-1.34375 0l0 -5.171875q0 -0.890625 -0.328125 -1.328125q-0.328125 -0.453125 -1.078125 -0.453125q-0.578125 0 -1.0625 0.296875q-0.46875 0.296875 -0.6875 0.875q-0.21875 0.578125 -0.21875 1.65625l0 4.125l-1.34375 0zm12.705933 3.0625l-0.15625 -1.265625q0.453125 0.125 0.78125 0.125q0.4375 0 0.703125 -0.15625q0.28125 -0.15625 0.453125 -0.421875q0.125 -0.203125 0.40625 -1.0q0.046875 -0.109375 0.125 -0.328125l-3.015625 -7.96875l1.453125 0l1.65625 4.609375q0.3125 0.875 0.5625 1.84375q0.234375 -0.9375 0.5625 -1.8125l1.703125 -4.640625l1.34375 0l-3.03125 8.09375q-0.484375 1.296875 -0.75 1.796875q-0.359375 0.671875 -0.828125 0.96875q-0.453125 0.3125 -1.109375 0.3125q-0.390625 0 -0.859375 -0.15625zm7.1796875 -5.4375l1.328125 -0.203125q0.125 0.796875 0.625 1.234375q0.515625 0.421875 1.4375 0.421875q0.9375 0 1.375 -0.375q0.453125 -0.390625 0.453125 -0.890625q0 -0.46875 -0.390625 -0.71875q-0.28125 -0.1875 -1.375 -0.46875q-1.484375 -0.375 -2.0625 -0.640625q-0.578125 -0.265625 -0.875 -0.75q-0.28125 -0.484375 -0.28125 -1.078125q0 -0.53125 0.234375 -0.984375q0.25 -0.453125 0.671875 -0.75q0.3125 -0.234375 0.84375 -0.390625q0.546875 -0.15625 1.171875 -0.15625q0.9375 0 1.640625 0.265625q0.703125 0.265625 1.03125 0.734375q0.34375 0.453125 0.46875 1.234375l-1.3125 0.171875q-0.09375 -0.609375 -0.53125 -0.953125q-0.421875 -0.34375 -1.203125 -0.34375q-0.921875 0 -1.328125 0.3125q-0.390625 0.296875 -0.390625 0.703125q0 0.265625 0.15625 0.46875q0.171875 0.21875 0.515625 0.359375q0.203125 0.078125 1.203125 0.359375q1.421875 0.375 1.984375 0.625q0.5625 0.234375 0.890625 0.703125q0.328125 0.453125 0.328125 1.15625q0 0.671875 -0.40625 1.265625q-0.390625 0.59375 -1.125 0.921875q-0.734375 0.3125 -1.671875 0.3125q-1.5625 0 -2.375 -0.640625q-0.796875 -0.640625 -1.03125 -1.90625zm13.2734375 5.421875l0 -3.890625q-0.3125 0.4375 -0.875 0.734375q-0.5625 0.28125 -1.203125 0.28125q-1.421875 0 -2.453125 -1.125q-1.015625 -1.125 -1.015625 -3.09375q0 -1.203125 0.421875 -2.140625q0.421875 -0.953125 1.203125 -1.4375q0.796875 -0.5 1.734375 -0.5q1.46875 0 2.328125 1.234375l0 -1.0625l1.203125 0l0 11.0l-1.34375 0zm-4.15625 -7.046875q0 1.53125 0.640625 2.3125q0.640625 0.765625 1.546875 0.765625q0.859375 0 1.484375 -0.734375q0.625 -0.734375 0.625 -2.21875q0 -1.59375 -0.65625 -2.390625q-0.65625 -0.796875 -1.546875 -0.796875q-0.875 0 -1.484375 0.75q-0.609375 0.734375 -0.609375 2.3125zm7.5872803 4.0l0 -10.96875l1.34375 0l0 10.96875l-1.34375 0zm2.905426 -3.296875l0 -1.34375l4.140625 0l0 1.34375l-4.140625 0zm10.323151 3.296875l-1.34375 0l0 -8.578125q-0.484375 0.453125 -1.28125 0.921875q-0.78125 0.46875 -1.40625 0.703125l0 -1.3125q1.125 -0.53125 1.96875 -1.28125q0.84375 -0.765625 1.203125 -1.46875l0.859375 0l0 11.015625z" fill-rule="nonzero"/><path fill="#ff0454" d="m449.3588 357.89188l0 0c0 -5.5358887 13.720306 -10.023651 30.645142 -10.023651c16.924835 0 30.645142 4.4877625 30.645142 10.023651l0 40.094604c0 5.5358887 -13.720306 10.023651 -30.645142 10.023651c-16.924835 0 -30.645142 -4.4877625 -30.645142 -10.023651z" fill-rule="evenodd"/><path fill="#000000" fill-opacity="0.0" d="m510.64908 357.89188l0 0c0 5.535919 -13.720306 10.023651 -30.645142 10.023651c-16.924835 0 -30.645142 -4.487732 -30.645142 -10.023651" fill-rule="evenodd"/><path fill="#000000" fill-opacity="0.0" d="m449.3588 357.89188l0 0c0 -5.5358887 13.720306 -10.023651 30.645142 -10.023651c16.924835 0 30.645142 4.4877625 30.645142 10.023651l0 40.094604c0 5.5358887 -13.720306 10.023651 -30.645142 10.023651c-16.924835 0 -30.645142 -4.4877625 -30.645142 -10.023651z" fill-rule="evenodd"/><path stroke="#ffffff" stroke-width="1.0" stroke-linejoin="round" stroke-linecap="butt" d="m510.64908 357.89188l0 0c0 5.535919 -13.720306 10.023651 -30.645142 10.023651c-16.924835 0 -30.645142 -4.487732 -30.645142 -10.023651" fill-rule="evenodd"/><path stroke="#ffffff" stroke-width="1.0" stroke-linejoin="round" stroke-linecap="butt" d="m449.3588 357.89188l0 0c0 -5.5358887 13.720306 -10.023651 30.645142 -10.023651c16.924835 0 30.645142 4.4877625 30.645142 10.023651l0 40.094604c0 5.5358887 -13.720306 10.023651 -30.645142 10.023651c-16.924835 0 -30.645142 -4.4877625 -30.645142 -10.023651z" fill-rule="evenodd"/><path fill="#000000" fill-opacity="0.0" d="m388.56824 355.75858l182.86615 0l0 37.984253l-182.86615 0z" fill-rule="evenodd"/><path fill="#ffffff" d="m472.92252 382.52545l0 -11.0l1.21875 0l0 1.03125q0.4375 -0.59375 0.984375 -0.890625q0.546875 -0.3125 1.328125 -0.3125q1.015625 0 1.796875 0.53125q0.78125 0.515625 1.171875 1.46875q0.390625 0.953125 0.390625 2.09375q0 1.21875 -0.4375 2.203125q-0.4375 0.96875 -1.28125 1.484375q-0.828125 0.515625 -1.734375 0.515625q-0.6875 0 -1.21875 -0.28125q-0.53125 -0.28125 -0.875 -0.71875l0 3.875l-1.34375 0zm1.21875 -6.96875q0 1.53125 0.609375 2.265625q0.625 0.734375 1.515625 0.734375q0.890625 0 1.53125 -0.765625q0.640625 -0.765625 0.640625 -2.359375q0 -1.515625 -0.625 -2.265625q-0.625 -0.765625 -1.484375 -0.765625q-0.859375 0 -1.53125 0.8125q-0.65625 0.796875 -0.65625 2.34375zm9.509155 3.921875l-3.03125 -7.953125l1.421875 0l1.71875 4.765625q0.265625 0.765625 0.5 1.59375q0.1875 -0.625 0.5 -1.5l1.765625 -4.859375l1.390625 0l-3.015625 7.953125l-1.25 0z" fill-rule="nonzero"/><path fill="#000000" fill-opacity="0.0" d="m479.9987 165.33464l0 72.566925" fill-rule="evenodd"/><path stroke="#595959" stroke-width="1.0" stroke-linejoin="round" stroke-linecap="butt" d="m479.9987 165.33464l0 69.13985" fill-rule="evenodd"/><path fill="#595959" stroke="#595959" stroke-width="1.0" stroke-linecap="butt" d="m479.9987 234.47449l-1.1245728 -1.124588l1.1245728 3.0897675l1.1245728 -3.0897675z" fill-rule="evenodd"/><path fill="#000000" fill-opacity="0.0" d="m479.9987 294.4541l0 61.29135" fill-rule="evenodd"/><path stroke="#595959" stroke-width="1.0" stroke-linejoin="round" stroke-linecap="butt" d="m479.9987 294.4541l0 57.864258" fill-rule="evenodd"/><path fill="#595959" stroke="#595959" stroke-width="1.0" stroke-linecap="butt" d="m479.9987 352.31836l-1.1245728 -1.1245728l1.1245728 3.0897522l1.1245728 -3.0897522z" fill-rule="evenodd"/><path fill="#ffffff" d="m720.59033 118.61024l26.107605 -45.244072l47.72174 0l26.107605 45.244072l-26.107605 45.244072l-47.72174 0z" fill-rule="evenodd"/><path stroke="#ff0454" stroke-width="4.0" stroke-linejoin="round" stroke-linecap="butt" d="m720.59033 118.61024l26.107605 -45.244072l47.72174 0l26.107605 45.244072l-26.107605 45.244072l-47.72174 0z" fill-rule="evenodd"/><path fill="#ff0454" d="m747.6415 106.120026l34.370117 0l0 36.417328l-34.370117 0z" fill-rule="evenodd"/><path fill="#cb0343" d="m782.0116 106.120026l11.456665 -11.456688l0 36.41732l-11.456665 11.456696z" fill-rule="evenodd"/><path fill="#ff3676" d="m747.6415 106.120026l11.456726 -11.456688l34.370056 0l-11.456665 11.456688z" fill-rule="evenodd"/><path fill="#000000" fill-opacity="0.0" d="m747.6415 106.120026l11.456726 -11.456688l34.370056 0l0 36.41732l-11.456665 11.456696l-34.370117 0zm0 0l34.370117 0l11.456665 -11.456688m-11.456665 11.456688l0 36.417328" fill-rule="evenodd"/><path stroke="#ffffff" stroke-width="1.0" stroke-linejoin="round" stroke-linecap="butt" d="m747.6415 106.120026l11.456726 -11.456688l34.370056 0l0 36.41732l-11.456665 11.456696l-34.370117 0zm0 0l34.370117 0l11.456665 -11.456688m-11.456665 11.456688l0 36.417328" fill-rule="evenodd"/><path fill="#000000" fill-opacity="0.0" d="m679.1247 128.72835l182.86609 0l0 37.984253l-182.86609 0z" fill-rule="evenodd"/><path fill="#747bcb" d="m744.74536 152.44835l0 -7.953125l1.203125 0l0 1.125q0.375 -0.59375 0.984375 -0.9375q0.625 -0.359375 1.421875 -0.359375q0.890625 0 1.453125 0.375q0.5625 0.359375 0.796875 1.015625q0.9375 -1.390625 2.453125 -1.390625q1.1875 0 1.8125 0.65625q0.640625 0.65625 0.640625 2.015625l0 5.453125l-1.34375 0l0 -5.0q0 -0.8125 -0.140625 -1.171875q-0.125 -0.359375 -0.46875 -0.5625q-0.34375 -0.21875 -0.796875 -0.21875q-0.84375 0 -1.40625 0.5625q-0.546875 0.546875 -0.546875 1.765625l0 4.625l-1.34375 0l0 -5.171875q0 -0.890625 -0.328125 -1.328125q-0.328125 -0.453125 -1.078125 -0.453125q-0.578125 0 -1.0625 0.296875q-0.46875 0.296875 -0.6875 0.875q-0.21875 0.578125 -0.21875 1.65625l0 4.125l-1.34375 0zm12.705994 3.0625l-0.15625 -1.265625q0.453125 0.125 0.78125 0.125q0.4375 0 0.703125 -0.15625q0.28125 -0.15625 0.453125 -0.421875q0.125 -0.203125 0.40625 -1.0q0.046875 -0.109375 0.125 -0.328125l-3.015625 -7.96875l1.453125 0l1.65625 4.609375q0.3125 0.875 0.5625 1.84375q0.234375 -0.9375 0.5625 -1.8125l1.703125 -4.640625l1.34375 0l-3.03125 8.09375q-0.484375 1.296875 -0.75 1.796875q-0.359375 0.671875 -0.828125 0.96875q-0.453125 0.3125 -1.109375 0.3125q-0.390625 0 -0.859375 -0.15625zm7.1796875 -5.4375l1.328125 -0.203125q0.125 0.796875 0.625 1.234375q0.515625 0.421875 1.4375 0.421875q0.9375 0 1.375 -0.375q0.453125 -0.390625 0.453125 -0.890625q0 -0.46875 -0.390625 -0.71875q-0.28125 -0.1875 -1.375 -0.46875q-1.484375 -0.375 -2.0625 -0.640625q-0.578125 -0.265625 -0.875 -0.75q-0.28125 -0.484375 -0.28125 -1.078125q0 -0.53125 0.234375 -0.984375q0.25 -0.453125 0.671875 -0.75q0.3125 -0.234375 0.84375 -0.390625q0.546875 -0.15625 1.171875 -0.15625q0.9375 0 1.640625 0.265625q0.703125 0.265625 1.03125 0.734375q0.34375 0.453125 0.46875 1.234375l-1.3125 0.171875q-0.09375 -0.609375 -0.53125 -0.953125q-0.421875 -0.34375 -1.203125 -0.34375q-0.921875 0 -1.328125 0.3125q-0.390625 0.296875 -0.390625 0.703125q0 0.265625 0.15625 0.46875q0.171875 0.21875 0.515625 0.359375q0.203125 0.078125 1.203125 0.359375q1.421875 0.375 1.984375 0.625q0.5625 0.234375 0.890625 0.703125q0.328125 0.453125 0.328125 1.15625q0 0.671875 -0.40625 1.265625q-0.390625 0.59375 -1.125 0.921875q-0.734375 0.3125 -1.671875 0.3125q-1.5625 0 -2.375 -0.640625q-0.796875 -0.640625 -1.03125 -1.90625zm13.2734375 5.421875l0 -3.890625q-0.3125 0.4375 -0.875 0.734375q-0.5625 0.28125 -1.203125 0.28125q-1.421875 0 -2.453125 -1.125q-1.015625 -1.125 -1.015625 -3.09375q0 -1.203125 0.421875 -2.140625q0.421875 -0.953125 1.203125 -1.4375q0.796875 -0.5 1.734375 -0.5q1.46875 0 2.328125 1.234375l0 -1.0625l1.203125 0l0 11.0l-1.34375 0zm-4.15625 -7.046875q0 1.53125 0.640625 2.3125q0.640625 0.765625 1.546875 0.765625q0.859375 0 1.484375 -0.734375q0.625 -0.734375 0.625 -2.21875q0 -1.59375 -0.65625 -2.390625q-0.65625 -0.796875 -1.546875 -0.796875q-0.875 0 -1.484375 0.75q-0.609375 0.734375 -0.609375 2.3125zm7.5872803 4.0l0 -10.96875l1.34375 0l0 10.96875l-1.34375 0zm2.9053955 -3.296875l0 -1.34375l4.140625 0l0 1.34375l-4.140625 0zm12.338745 2.0l0 1.296875l-7.25 0q-0.015625 -0.484375 0.15625 -0.9375q0.265625 -0.734375 0.875 -1.453125q0.625 -0.71875 1.765625 -1.671875q1.796875 -1.46875 2.421875 -2.3125q0.625 -0.859375 0.625 -1.625q0 -0.796875 -0.578125 -1.34375q-0.5625 -0.5625 -1.484375 -0.5625q-0.96875 0 -1.5625 0.59375q-0.578125 0.578125 -0.578125 1.609375l-1.390625 -0.140625q0.140625 -1.546875 1.0625 -2.359375q0.9375 -0.8125 2.5 -0.8125q1.578125 0 2.5 0.875q0.921875 0.875 0.921875 2.171875q0 0.65625 -0.28125 1.296875q-0.265625 0.625 -0.890625 1.328125q-0.625 0.703125 -2.078125 1.9375q-1.203125 1.015625 -1.546875 1.390625q-0.34375 0.359375 -0.578125 0.71875l5.390625 0z" fill-rule="nonzero"/><path fill="#ff0454" d="m739.9152 241.39844l0 0c0 -5.535904 13.720276 -10.023636 30.645142 -10.023636c16.924866 0 30.645142 4.487732 30.645142 10.023636l0 40.094604c0 5.5358887 -13.720276 10.023651 -30.645142 10.023651c-16.924866 0 -30.645142 -4.4877625 -30.645142 -10.023651z" fill-rule="evenodd"/><path fill="#000000" fill-opacity="0.0" d="m801.2055 241.39844l0 0c0 5.535919 -13.720276 10.023651 -30.645142 10.023651c-16.924866 0 -30.645142 -4.487732 -30.645142 -10.023651" fill-rule="evenodd"/><path fill="#000000" fill-opacity="0.0" d="m739.9152 241.39844l0 0c0 -5.535904 13.720276 -10.023636 30.645142 -10.023636c16.924866 0 30.645142 4.487732 30.645142 10.023636l0 40.094604c0 5.5358887 -13.720276 10.023651 -30.645142 10.023651c-16.924866 0 -30.645142 -4.4877625 -30.645142 -10.023651z" fill-rule="evenodd"/><path stroke="#ffffff" stroke-width="1.0" stroke-linejoin="round" stroke-linecap="butt" d="m801.2055 241.39844l0 0c0 5.535919 -13.720276 10.023651 -30.645142 10.023651c-16.924866 0 -30.645142 -4.487732 -30.645142 -10.023651" fill-rule="evenodd"/><path stroke="#ffffff" stroke-width="1.0" stroke-linejoin="round" stroke-linecap="butt" d="m739.9152 241.39844l0 0c0 -5.535904 13.720276 -10.023636 30.645142 -10.023636c16.924866 0 30.645142 4.487732 30.645142 10.023636l0 40.094604c0 5.5358887 -13.720276 10.023651 -30.645142 10.023651c-16.924866 0 -30.645142 -4.4877625 -30.645142 -10.023651z" fill-rule="evenodd"/><path fill="#000000" fill-opacity="0.0" d="m679.1247 239.26514l182.86609 0l0 56.566925l-182.86609 0z" fill-rule="evenodd"/><path fill="#ffffff" d="m759.6469 266.032l0 -11.000015l1.21875 0l0 1.0312653q0.4375 -0.59376526 0.984375 -0.89064026q0.546875 -0.3125 1.328125 -0.3125q1.015625 0 1.796875 0.53125q0.78125 0.515625 1.171875 1.4687653q0.390625 0.953125 0.390625 2.09375q0 1.21875 -0.4375 2.203125q-0.4375 0.96875 -1.28125 1.484375q-0.828125 0.515625 -1.734375 0.515625q-0.6875 0 -1.21875 -0.28125q-0.53125 -0.28125 -0.875 -0.71875l0 3.875l-1.34375 0zm1.21875 -6.96875q0 1.53125 0.609375 2.265625q0.625 0.734375 1.515625 0.734375q0.890625 0 1.53125 -0.765625q0.640625 -0.765625 0.640625 -2.359375q0 -1.515625 -0.625 -2.265625q-0.625 -0.76564026 -1.484375 -0.76564026q-0.859375 0 -1.53125 0.81251526q-0.65625 0.796875 -0.65625 2.34375zm9.509155 3.921875l-3.03125 -7.9531403l1.421875 0l1.71875 4.7656403q0.265625 0.765625 0.5 1.59375q0.1875 -0.625 0.5 -1.5l1.765625 -4.8593903l1.390625 0l-3.015625 7.9531403l-1.25 0zm10.6484375 -2.90625l1.3125 0.171875q-0.203125 1.359375 -1.109375 2.140625q-0.890625 0.765625 -2.1875 0.765625q-1.640625 0 -2.640625 -1.0625q-0.984375 -1.0625 -0.984375 -3.046875q0 -1.296875 0.421875 -2.25q0.4375 -0.96876526 1.3125 -1.4531403q0.875 -0.484375 1.890625 -0.484375q1.296875 0 2.109375 0.65625q0.828125 0.65626526 1.0625 1.8593903l-1.3125 0.203125q-0.1875 -0.8125 -0.65625 -1.203125q-0.46875 -0.40626526 -1.140625 -0.40626526q-1.03125 0 -1.671875 0.73439026q-0.625 0.71875 -0.625 2.296875q0 1.609375 0.609375 2.34375q0.609375 0.71875 1.609375 0.71875q0.78125 0 1.3125 -0.484375q0.546875 -0.5 0.6875 -1.5z" fill-rule="nonzero"/><path fill="#ffffff" d="m744.74536 281.38513l0 -7.953125l1.203125 0l0 1.125q0.375 -0.59375 0.984375 -0.9375q0.625 -0.359375 1.421875 -0.359375q0.890625 0 1.453125 0.375q0.5625 0.359375 0.796875 1.015625q0.9375 -1.390625 2.453125 -1.390625q1.1875 0 1.8125 0.65625q0.640625 0.65625 0.640625 2.015625l0 5.453125l-1.34375 0l0 -5.0q0 -0.8125 -0.140625 -1.171875q-0.125 -0.359375 -0.46875 -0.5625q-0.34375 -0.21875 -0.796875 -0.21875q-0.84375 0 -1.40625 0.5625q-0.546875 0.546875 -0.546875 1.765625l0 4.625l-1.34375 0l0 -5.171875q0 -0.890625 -0.328125 -1.328125q-0.328125 -0.453125 -1.078125 -0.453125q-0.578125 0 -1.0625 0.296875q-0.46875 0.296875 -0.6875 0.875q-0.21875 0.578125 -0.21875 1.65625l0 4.125l-1.34375 0zm12.705994 3.0625l-0.15625 -1.265625q0.453125 0.125 0.78125 0.125q0.4375 0 0.703125 -0.15625q0.28125 -0.15625 0.453125 -0.421875q0.125 -0.203125 0.40625 -1.0q0.046875 -0.109375 0.125 -0.328125l-3.015625 -7.96875l1.453125 0l1.65625 4.609375q0.3125 0.875 0.5625 1.84375q0.234375 -0.9375 0.5625 -1.8125l1.703125 -4.640625l1.34375 0l-3.03125 8.09375q-0.484375 1.296875 -0.75 1.796875q-0.359375 0.671875 -0.828125 0.96875q-0.453125 0.3125 -1.109375 0.3125q-0.390625 0 -0.859375 -0.15625zm7.1796875 -5.4375l1.328125 -0.203125q0.125 0.796875 0.625 1.234375q0.515625 0.421875 1.4375 0.421875q0.9375 0 1.375 -0.375q0.453125 -0.390625 0.453125 -0.890625q0 -0.46875 -0.390625 -0.71875q-0.28125 -0.1875 -1.375 -0.46875q-1.484375 -0.375 -2.0625 -0.640625q-0.578125 -0.265625 -0.875 -0.75q-0.28125 -0.484375 -0.28125 -1.078125q0 -0.53125 0.234375 -0.984375q0.25 -0.453125 0.671875 -0.75q0.3125 -0.234375 0.84375 -0.390625q0.546875 -0.15625 1.171875 -0.15625q0.9375 0 1.640625 0.265625q0.703125 0.265625 1.03125 0.734375q0.34375 0.453125 0.46875 1.234375l-1.3125 0.171875q-0.09375 -0.609375 -0.53125 -0.953125q-0.421875 -0.34375 -1.203125 -0.34375q-0.921875 0 -1.328125 0.3125q-0.390625 0.296875 -0.390625 0.703125q0 0.265625 0.15625 0.46875q0.171875 0.21875 0.515625 0.359375q0.203125 0.078125 1.203125 0.359375q1.421875 0.375 1.984375 0.625q0.5625 0.234375 0.890625 0.703125q0.328125 0.453125 0.328125 1.15625q0 0.671875 -0.40625 1.265625q-0.390625 0.59375 -1.125 0.921875q-0.734375 0.3125 -1.671875 0.3125q-1.5625 0 -2.375 -0.640625q-0.796875 -0.640625 -1.03125 -1.90625zm13.2734375 5.421875l0 -3.890625q-0.3125 0.4375 -0.875 0.734375q-0.5625 0.28125 -1.203125 0.28125q-1.421875 0 -2.453125 -1.125q-1.015625 -1.125 -1.015625 -3.09375q0 -1.203125 0.421875 -2.140625q0.421875 -0.953125 1.203125 -1.4375q0.796875 -0.5 1.734375 -0.5q1.46875 0 2.328125 1.234375l0 -1.0625l1.203125 0l0 11.0l-1.34375 0zm-4.15625 -7.046875q0 1.53125 0.640625 2.3125q0.640625 0.765625 1.546875 0.765625q0.859375 0 1.484375 -0.734375q0.625 -0.734375 0.625 -2.21875q0 -1.59375 -0.65625 -2.390625q-0.65625 -0.796875 -1.546875 -0.796875q-0.875 0 -1.484375 0.75q-0.609375 0.734375 -0.609375 2.3125zm7.5872803 4.0l0 -10.96875l1.34375 0l0 10.96875l-1.34375 0zm2.9053955 -3.296875l0 -1.34375l4.140625 0l0 1.34375l-4.140625 0zm12.338745 2.0l0 1.296875l-7.25 0q-0.015625 -0.484375 0.15625 -0.9375q0.265625 -0.734375 0.875 -1.453125q0.625 -0.71875 1.765625 -1.671875q1.796875 -1.46875 2.421875 -2.3125q0.625 -0.859375 0.625 -1.625q0 -0.796875 -0.578125 -1.34375q-0.5625 -0.5625 -1.484375 -0.5625q-0.96875 0 -1.5625 0.59375q-0.578125 0.578125 -0.578125 1.609375l-1.390625 -0.140625q0.140625 -1.546875 1.0625 -2.359375q0.9375 -0.8125 2.5 -0.8125q1.578125 0 2.5 0.875q0.921875 0.875 0.921875 2.171875q0 0.65625 -0.28125 1.296875q-0.265625 0.625 -0.890625 1.328125q-0.625 0.703125 -2.078125 1.9375q-1.203125 1.015625 -1.546875 1.390625q-0.34375 0.359375 -0.578125 0.71875l5.390625 0z" fill-rule="nonzero"/><path fill="#ff0454" d="m739.91785 359.26984l0 0c0 -5.535919 13.720276 -10.023651 30.645142 -10.023651c16.924866 0 30.645142 4.487732 30.645142 10.023651l0 40.094604c0 5.5358887 -13.720276 10.023621 -30.645142 10.023621c-16.924866 0 -30.645142 -4.487732 -30.645142 -10.023621z" fill-rule="evenodd"/><path fill="#000000" fill-opacity="0.0" d="m801.2081 359.26984l0 0c0 5.535919 -13.720276 10.023651 -30.645142 10.023651c-16.924866 0 -30.645142 -4.487732 -30.645142 -10.023651" fill-rule="evenodd"/><path fill="#000000" fill-opacity="0.0" d="m739.91785 359.26984l0 0c0 -5.535919 13.720276 -10.023651 30.645142 -10.023651c16.924866 0 30.645142 4.487732 30.645142 10.023651l0 40.094604c0 5.5358887 -13.720276 10.023621 -30.645142 10.023621c-16.924866 0 -30.645142 -4.487732 -30.645142 -10.023621z" fill-rule="evenodd"/><path stroke="#ffffff" stroke-width="1.0" stroke-linejoin="round" stroke-linecap="butt" d="m801.2081 359.26984l0 0c0 5.535919 -13.720276 10.023651 -30.645142 10.023651c-16.924866 0 -30.645142 -4.487732 -30.645142 -10.023651" fill-rule="evenodd"/><path stroke="#ffffff" stroke-width="1.0" stroke-linejoin="round" stroke-linecap="butt" d="m739.91785 359.26984l0 0c0 -5.535919 13.720276 -10.023651 30.645142 -10.023651c16.924866 0 30.645142 4.487732 30.645142 10.023651l0 40.094604c0 5.5358887 -13.720276 10.023621 -30.645142 10.023621c-16.924866 0 -30.645142 -4.487732 -30.645142 -10.023621z" fill-rule="evenodd"/><path fill="#000000" fill-opacity="0.0" d="m679.1273 357.13654l182.86609 0l0 37.984253l-182.86609 0z" fill-rule="evenodd"/><path fill="#ffffff" d="m763.48157 383.90338l0 -11.0l1.21875 0l0 1.03125q0.4375 -0.59375 0.984375 -0.890625q0.546875 -0.3125 1.328125 -0.3125q1.015625 0 1.796875 0.53125q0.78125 0.515625 1.171875 1.46875q0.390625 0.953125 0.390625 2.09375q0 1.21875 -0.4375 2.203125q-0.4375 0.96875 -1.28125 1.484375q-0.828125 0.515625 -1.734375 0.515625q-0.6875 0 -1.21875 -0.28125q-0.53125 -0.28125 -0.875 -0.71875l0 3.875l-1.34375 0zm1.21875 -6.96875q0 1.53125 0.609375 2.265625q0.625 0.734375 1.515625 0.734375q0.890625 0 1.53125 -0.765625q0.640625 -0.765625 0.640625 -2.359375q0 -1.515625 -0.625 -2.265625q-0.625 -0.765625 -1.484375 -0.765625q-0.859375 0 -1.53125 0.8125q-0.65625 0.796875 -0.65625 2.34375zm9.509155 3.921875l-3.03125 -7.953125l1.421875 0l1.71875 4.765625q0.265625 0.765625 0.5 1.59375q0.1875 -0.625 0.5 -1.5l1.765625 -4.859375l1.390625 0l-3.015625 7.953125l-1.25 0z" fill-rule="nonzero"/><path fill="#000000" fill-opacity="0.0" d="m770.55774 166.7126l0 72.566925" fill-rule="evenodd"/><path stroke="#595959" stroke-width="1.0" stroke-linejoin="round" stroke-linecap="butt" d="m770.55774 166.7126l0 69.13985" fill-rule="evenodd"/><path fill="#595959" stroke="#595959" stroke-width="1.0" stroke-linecap="butt" d="m770.55774 235.85245l-1.1245728 -1.124588l1.1245728 3.0897675l1.1245728 -3.0897675z" fill-rule="evenodd"/><path fill="#000000" fill-opacity="0.0" d="m770.55774 295.83206l0 61.29135" fill-rule="evenodd"/><path stroke="#595959" stroke-width="1.0" stroke-linejoin="round" stroke-linecap="butt" d="m770.55774 295.83206l0 57.864258" fill-rule="evenodd"/><path fill="#595959" stroke="#595959" stroke-width="1.0" stroke-linecap="butt" d="m770.55774 353.69632l-1.1245728 -1.1246033l1.1245728 3.0897827l1.1245728 -3.0897827z" fill-rule="evenodd"/><path fill="#000000" fill-opacity="0.0" d="m86.755905 2.1889763l786.48816 0l0 85.82677l-786.48816 0z" fill-rule="evenodd"/><path fill="#595959" d="m424.37695 28.713352l2.140625 -0.1875q0.15625 1.28125 0.703125 2.109375q0.5625 0.828125 1.734375 1.34375q1.171875 0.5 2.640625 0.5q1.296875 0 2.296875 -0.375q1.0 -0.390625 1.484375 -1.0625q0.484375 -0.6875 0.484375 -1.484375q0 -0.796875 -0.46875 -1.40625q-0.46875 -0.609375 -1.546875 -1.015625q-0.6875 -0.265625 -3.0625 -0.828125q-2.359375 -0.578125 -3.3125 -1.078125q-1.234375 -0.640625 -1.84375 -1.59375q-0.59375 -0.96875 -0.59375 -2.140625q0 -1.3125 0.734375 -2.4375q0.75 -1.125 2.15625 -1.703125q1.421875 -0.59375 3.15625 -0.59375q1.90625 0 3.359375 0.609375q1.46875 0.609375 2.25 1.8125q0.796875 1.1875 0.84375 2.703125l-2.171875 0.171875q-0.171875 -1.640625 -1.1875 -2.46875q-1.015625 -0.828125 -3.0 -0.828125q-2.0625 0 -3.015625 0.765625q-0.9375 0.75 -0.9375 1.8125q0 0.921875 0.671875 1.515625q0.65625 0.609375 3.421875 1.234375q2.78125 0.625 3.8125 1.09375q1.5 0.6875 2.203125 1.75q0.71875 1.0625 0.71875 2.4375q0 1.375 -0.78125 2.59375q-0.78125 1.203125 -2.25 1.890625q-1.46875 0.671875 -3.3125 0.671875q-2.328125 0 -3.90625 -0.671875q-1.578125 -0.6875 -2.484375 -2.046875q-0.890625 -1.375 -0.9375 -3.09375zm21.117188 3.625l0.3125 1.859375q-0.890625 0.203125 -1.59375 0.203125q-1.15625 0 -1.796875 -0.359375q-0.625 -0.375 -0.890625 -0.96875q-0.25 -0.59375 -0.25 -2.484375l0 -7.171875l-1.546875 0l0 -1.640625l1.546875 0l0 -3.078125l2.09375 -1.265625l0 4.34375l2.125 0l0 1.640625l-2.125 0l0 7.28125q0 0.90625 0.109375 1.171875q0.125 0.25 0.375 0.40625q0.25 0.140625 0.71875 0.140625q0.34375 0 0.921875 -0.078125zm10.183594 0.359375q-1.171875 0.984375 -2.265625 1.40625q-1.078125 0.40625 -2.3125 0.40625q-2.046875 0 -3.15625 -1.0q-1.09375 -1.0 -1.09375 -2.5625q0 -0.921875 0.40625 -1.671875q0.421875 -0.75 1.09375 -1.203125q0.671875 -0.46875 1.515625 -0.703125q0.625 -0.15625 1.875 -0.3125q2.5625 -0.3125 3.765625 -0.734375q0.015625 -0.421875 0.015625 -0.546875q0 -1.28125 -0.609375 -1.8125q-0.796875 -0.71875 -2.390625 -0.71875q-1.5 0 -2.203125 0.53125q-0.703125 0.515625 -1.046875 1.84375l-2.0625 -0.28125q0.28125 -1.328125 0.921875 -2.140625q0.640625 -0.8125 1.859375 -1.25q1.21875 -0.453125 2.828125 -0.453125q1.59375 0 2.59375 0.375q1.0 0.375 1.46875 0.953125q0.46875 0.5625 0.65625 1.4375q0.09375 0.53125 0.09375 1.9375l0 2.8125q0 2.9375 0.140625 3.71875q0.140625 0.78125 0.53125 1.5l-2.203125 0q-0.328125 -0.65625 -0.421875 -1.53125zm-0.171875 -4.71875q-1.15625 0.46875 -3.453125 0.796875q-1.296875 0.1875 -1.84375 0.421875q-0.53125 0.234375 -0.828125 0.6875q-0.28125 0.453125 -0.28125 1.0q0 0.84375 0.625 1.40625q0.640625 0.5625 1.875 0.5625q1.21875 0 2.171875 -0.53125q0.953125 -0.53125 1.390625 -1.453125q0.34375 -0.71875 0.34375 -2.109375l0 -0.78125zm10.003906 4.359375l0.3125 1.859375q-0.890625 0.203125 -1.59375 0.203125q-1.15625 0 -1.796875 -0.359375q-0.625 -0.375 -0.890625 -0.96875q-0.25 -0.59375 -0.25 -2.484375l0 -7.171875l-1.546875 0l0 -1.640625l1.546875 0l0 -3.078125l2.09375 -1.265625l0 4.34375l2.125 0l0 1.640625l-2.125 0l0 7.28125q0 0.90625 0.109375 1.171875q0.125 0.25 0.375 0.40625q0.25 0.140625 0.71875 0.140625q0.34375 0 0.921875 -0.078125zm10.589844 -2.125l2.171875 0.28125q-0.515625 1.90625 -1.90625 2.96875q-1.390625 1.046875 -3.5625 1.046875q-2.734375 0 -4.34375 -1.671875q-1.59375 -1.6875 -1.59375 -4.734375q0 -3.140625 1.609375 -4.875q1.625 -1.734375 4.203125 -1.734375q2.5 0 4.078125 1.703125q1.59375 1.703125 1.59375 4.78125q0 0.1875 -0.015625 0.5625l-9.28125 0q0.109375 2.046875 1.15625 3.140625q1.046875 1.09375 2.609375 1.09375q1.15625 0 1.96875 -0.609375q0.828125 -0.609375 1.3125 -1.953125zm-6.9375 -3.40625l6.953125 0q-0.140625 -1.5625 -0.796875 -2.359375q-1.0 -1.21875 -2.609375 -1.21875q-1.453125 0 -2.453125 0.984375q-0.984375 0.96875 -1.09375 2.59375zm12.269531 7.421875l0 -10.8125l-1.875 0l0 -1.640625l1.875 0l0 -1.3125q0 -1.265625 0.21875 -1.875q0.296875 -0.8125 1.0625 -1.3125q0.78125 -0.515625 2.15625 -0.515625q0.890625 0 1.96875 0.203125l-0.3125 1.84375q-0.65625 -0.125 -1.25 -0.125q-0.953125 0 -1.359375 0.421875q-0.390625 0.40625 -0.390625 1.53125l0 1.140625l2.421875 0l0 1.640625l-2.421875 0l0 10.8125l-2.09375 0zm14.308594 0l0 -1.828125q-1.453125 2.109375 -3.9375 2.109375q-1.109375 0 -2.0625 -0.421875q-0.953125 -0.421875 -1.421875 -1.0625q-0.453125 -0.640625 -0.640625 -1.5625q-0.140625 -0.625 -0.140625 -1.96875l0 -7.71875l2.109375 0l0 6.90625q0 1.65625 0.140625 2.234375q0.1875 0.828125 0.828125 1.3125q0.65625 0.46875 1.609375 0.46875q0.9375 0 1.765625 -0.484375q0.84375 -0.5 1.1875 -1.328125q0.34375 -0.84375 0.34375 -2.4375l0 -6.671875l2.109375 0l0 12.453125l-1.890625 0zm5.1445312 0l0 -17.1875l2.109375 0l0 17.1875l-2.109375 0zm4.5351562 -3.71875l2.09375 -0.328125q0.171875 1.25 0.96875 1.921875q0.8125 0.671875 2.25 0.671875q1.453125 0 2.15625 -0.59375q0.703125 -0.59375 0.703125 -1.390625q0 -0.71875 -0.625 -1.125q-0.421875 -0.28125 -2.15625 -0.71875q-2.3125 -0.578125 -3.21875 -1.0q-0.890625 -0.4375 -1.359375 -1.1875q-0.453125 -0.765625 -0.453125 -1.671875q0 -0.828125 0.375 -1.53125q0.390625 -0.71875 1.046875 -1.1875q0.484375 -0.359375 1.328125 -0.609375q0.859375 -0.265625 1.828125 -0.265625q1.46875 0 2.578125 0.421875q1.109375 0.421875 1.625 1.15625q0.53125 0.71875 0.734375 1.921875l-2.0625 0.28125q-0.140625 -0.96875 -0.8125 -1.5q-0.671875 -0.546875 -1.90625 -0.546875q-1.453125 0 -2.078125 0.484375q-0.625 0.484375 -0.625 1.125q0 0.40625 0.265625 0.734375q0.25 0.34375 0.8125 0.5625q0.3125 0.125 1.859375 0.546875q2.234375 0.59375 3.109375 0.984375q0.890625 0.375 1.390625 1.109375q0.515625 0.71875 0.515625 1.796875q0 1.046875 -0.625 1.984375q-0.609375 0.9375 -1.765625 1.453125q-1.15625 0.5 -2.625 0.5q-2.421875 0 -3.703125 -1.0q-1.265625 -1.015625 -1.625 -3.0zm21.375 -0.296875l2.171875 0.28125q-0.515625 1.90625 -1.90625 2.96875q-1.390625 1.046875 -3.5625 1.046875q-2.734375 0 -4.34375 -1.671875q-1.59375 -1.6875 -1.59375 -4.734375q0 -3.140625 1.609375 -4.875q1.625 -1.734375 4.203125 -1.734375q2.5 0 4.078125 1.703125q1.59375 1.703125 1.59375 4.78125q0 0.1875 -0.015625 0.5625l-9.28125 0q0.109375 2.046875 1.15625 3.140625q1.046875 1.09375 2.609375 1.09375q1.15625 0 1.96875 -0.609375q0.828125 -0.609375 1.3125 -1.953125zm-6.9375 -3.40625l6.953125 0q-0.140625 -1.5625 -0.796875 -2.359375q-1.0 -1.21875 -2.609375 -1.21875q-1.453125 0 -2.453125 0.984375q-0.984375 0.96875 -1.09375 2.59375zm16.363281 5.53125l0.3125 1.859375q-0.890625 0.203125 -1.59375 0.203125q-1.15625 0 -1.796875 -0.359375q-0.625 -0.375 -0.890625 -0.96875q-0.25 -0.59375 -0.25 -2.484375l0 -7.171875l-1.546875 0l0 -1.640625l1.546875 0l0 -3.078125l2.09375 -1.265625l0 4.34375l2.125 0l0 1.640625l-2.125 0l0 7.28125q0 0.90625 0.109375 1.171875q0.125 0.25 0.375 0.40625q0.25 0.140625 0.71875 0.140625q0.34375 0 0.921875 -0.078125z" fill-rule="nonzero"/></g></svg>