<svg xmlns="http://www.w3.org/2000/svg" viewBox="0 0 800 400" width="800" height="400" font-family="'Segoe UI', Arial, sans-serif">
  <defs>
    <marker id="arrow2" markerWidth="10" markerHeight="7" refX="10" refY="3.5" orient="auto">
      <polygon points="0 0, 10 3.5, 0 7" fill="#ff0454"/>
    </marker>
  </defs>

  <rect width="800" height="400" rx="8" fill="#F5F5F5"/>

  <!-- Title -->
  <text x="400" y="35" text-anchor="middle" font-size="18" font-weight="bold" fill="#333">Exercice : Interface en ligne de commande</text>

  <!-- Terminal icon -->
  <rect x="200" y="65" width="400" height="25" rx="5" fill="#333"/>
  <circle cx="215" cy="77" r="4" fill="#ff0454"/>
  <circle cx="228" cy="77" r="4" fill="#FF9800"/>
  <circle cx="241" cy="77" r="4" fill="#4CAF50"/>
  <text x="400" y="82" text-anchor="middle" font-size="11" fill="#888">Terminal</text>

  <!-- Step 1 -->
  <rect x="30" y="120" width="130" height="65" rx="8" fill="#ff0454"/>
  <text x="95" y="148" text-anchor="middle" font-size="14" font-weight="bold" fill="white">Se connecter</text>
  <text x="95" y="168" text-anchor="middle" font-size="11" font-family="monospace" fill="#FFB3B3">oc login</text>

  <!-- Arrow -->
  <line x1="160" y1="152" x2="190" y2="152" stroke="#ff0454" stroke-width="2" marker-end="url(#arrow2)"/>

  <!-- Step 2 -->
  <rect x="195" y="120" width="130" height="65" rx="8" fill="#ff0454"/>
  <text x="260" y="143" text-anchor="middle" font-size="13" font-weight="bold" fill="white">Explorer les</text>
  <text x="260" y="160" text-anchor="middle" font-size="13" font-weight="bold" fill="white">commandes</text>
  <text x="260" y="177" text-anchor="middle" font-size="11" font-family="monospace" fill="#FFB3B3">oc help</text>

  <!-- Arrow -->
  <line x1="325" y1="152" x2="355" y2="152" stroke="#ff0454" stroke-width="2" marker-end="url(#arrow2)"/>

  <!-- Step 3 -->
  <rect x="360" y="120" width="130" height="65" rx="8" fill="#ff0454"/>
  <text x="425" y="148" text-anchor="middle" font-size="14" font-weight="bold" fill="white">Créer une app</text>
  <text x="425" y="168" text-anchor="middle" font-size="11" font-family="monospace" fill="#FFB3B3">oc new-app</text>

  <!-- Arrow -->
  <line x1="490" y1="152" x2="520" y2="152" stroke="#ff0454" stroke-width="2" marker-end="url(#arrow2)"/>

  <!-- Step 4 -->
  <rect x="525" y="120" width="130" height="65" rx="8" fill="#ff0454"/>
  <text x="590" y="148" text-anchor="middle" font-size="14" font-weight="bold" fill="white">Logs &amp; exec</text>
  <text x="590" y="168" text-anchor="middle" font-size="11" font-family="monospace" fill="#FFB3B3">oc logs/exec</text>

  <!-- Arrow -->
  <line x1="655" y1="152" x2="685" y2="152" stroke="#ff0454" stroke-width="2" marker-end="url(#arrow2)"/>

  <!-- Step 5 -->
  <rect x="690" y="120" width="90" height="65" rx="8" fill="#333"/>
  <text x="735" y="148" text-anchor="middle" font-size="14" font-weight="bold" fill="white">Nettoyer</text>
  <text x="735" y="168" text-anchor="middle" font-size="10" font-family="monospace" fill="#AAA">oc delete</text>

  <!-- Detail cards -->
  <g transform="translate(0,220)">
    <rect x="30" y="0" width="130" height="80" rx="6" fill="white" stroke="#ff0454" stroke-width="1.5"/>
    <text x="95" y="20" text-anchor="middle" font-size="12" font-weight="bold" fill="#ff0454">Etape 1</text>
    <text x="95" y="38" text-anchor="middle" font-size="11" fill="#555">Se connecter au</text>
    <text x="95" y="53" text-anchor="middle" font-size="11" fill="#555">cluster avec token</text>
    <text x="95" y="70" text-anchor="middle" font-size="10" fill="#999">ou identifiants</text>

    <rect x="195" y="0" width="130" height="80" rx="6" fill="white" stroke="#ff0454" stroke-width="1.5"/>
    <text x="260" y="20" text-anchor="middle" font-size="12" font-weight="bold" fill="#ff0454">Etape 2</text>
    <text x="260" y="38" text-anchor="middle" font-size="11" fill="#555">oc get, describe,</text>
    <text x="260" y="53" text-anchor="middle" font-size="11" fill="#555">explain, api-</text>
    <text x="260" y="68" text-anchor="middle" font-size="11" fill="#555">resources</text>

    <rect x="360" y="0" width="130" height="80" rx="6" fill="white" stroke="#ff0454" stroke-width="1.5"/>
    <text x="425" y="20" text-anchor="middle" font-size="12" font-weight="bold" fill="#ff0454">Etape 3</text>
    <text x="425" y="38" text-anchor="middle" font-size="11" fill="#555">Déployer depuis</text>
    <text x="425" y="53" text-anchor="middle" font-size="11" fill="#555">une image ou</text>
    <text x="425" y="68" text-anchor="middle" font-size="11" fill="#555">un YAML</text>

    <rect x="525" y="0" width="130" height="80" rx="6" fill="white" stroke="#ff0454" stroke-width="1.5"/>
    <text x="590" y="20" text-anchor="middle" font-size="12" font-weight="bold" fill="#ff0454">Etape 4</text>
    <text x="590" y="38" text-anchor="middle" font-size="11" fill="#555">Consulter les logs</text>
    <text x="590" y="53" text-anchor="middle" font-size="11" fill="#555">et exécuter des</text>
    <text x="590" y="68" text-anchor="middle" font-size="11" fill="#555">commandes</text>

    <rect x="690" y="0" width="90" height="80" rx="6" fill="white" stroke="#333" stroke-width="1.5"/>
    <text x="735" y="20" text-anchor="middle" font-size="12" font-weight="bold" fill="#333">Etape 5</text>
    <text x="735" y="38" text-anchor="middle" font-size="11" fill="#555">Supprimer les</text>
    <text x="735" y="53" text-anchor="middle" font-size="11" fill="#555">ressources</text>
    <text x="735" y="68" text-anchor="middle" font-size="11" fill="#555">créées</text>
  </g>
</svg>
